<?xml version="1.0" encoding="UTF-8" standalone="no"?>
<!-- Created with Inkscape (http://www.inkscape.org/) -->

<svg
   width="1024"
   height="1023.9996"
   viewBox="0 0 270.93332 270.93318"
   version="1.1"
   id="svg5"
   xml:space="preserve"
   sodipodi:docname="icon.svg"
   inkscape:version="1.2.2 (b0a8486541, 2022-12-01)"
   xmlns:inkscape="http://www.inkscape.org/namespaces/inkscape"
   xmlns:sodipodi="http://sodipodi.sourceforge.net/DTD/sodipodi-0.dtd"
   xmlns="http://www.w3.org/2000/svg"
   xmlns:svg="http://www.w3.org/2000/svg"><sodipodi:namedview
     id="namedview7"
     pagecolor="#ffffff"
     bordercolor="#666666"
     borderopacity="1.0"
     inkscape:showpageshadow="true"
     inkscape:pageopacity="0.0"
     inkscape:pagecheckerboard="0"
     inkscape:deskcolor="#d1d1d1"
     inkscape:document-units="mm"
     showgrid="true"
     inkscape:zoom="0.59033757"
     inkscape:cx="417.5577"
     inkscape:cy="437.03808"
     inkscape:window-width="1920"
     inkscape:window-height="1131"
     inkscape:window-x="0"
     inkscape:window-y="0"
     inkscape:window-maximized="1"
     inkscape:current-layer="layer1"
     showborder="true"
     borderlayer="true"><inkscape:page
       x="0"
       y="0"
       width="270.93332"
       height="270.93317"
       id="page3920"
       inkscape:label="Android" /><inkscape:page
       x="353.66705"
       y="-2.6315549e-05"
       width="270.93332"
       height="270.93323"
       id="page3918"
       inkscape:label="iOS" /></sodipodi:namedview><defs
     id="defs2" /><g
     inkscape:label="Layer 1"
     inkscape:groupmode="layer"
     id="layer1"
     transform="translate(-46.384803,-162.47583)"><g
       id="g1594"
       transform="translate(-243.35758,163.17516)"><path
         id="path1564"
         style="fill:#999999;fill-opacity:1;stroke:none;stroke-width:0;stroke-linejoin:round;stroke-dasharray:none"
         d="m 41.034198,16.933332 c -13.40587,0 -24.19851,10.803004 -24.19851,24.221776 v 53.156446 c 0,13.418776 10.79264,24.221776 24.19851,24.221776 h 27.08136 26.121614 c 13.405878,0 24.198518,-10.80301 24.198518,-24.221776 V 41.155109 c 0,-13.418772 -10.79264,-24.221777 -24.198518,-24.221777 H 68.213128 Z" /><path
         id="path1566"
         style="fill:#6d819a;fill-opacity:1;stroke:none;stroke-width:0;stroke-linejoin:round;stroke-dasharray:none"
         d="m 16.835665,67.733333 v 26.578223 c 0,13.418784 10.802991,24.221774 24.221777,24.221774 H 67.635665 V 67.733333 Z" /><path
         id="path1568"
         style="fill:#62647e;fill-opacity:1;stroke:none;stroke-width:0;stroke-linejoin:round;stroke-dasharray:none"
         d="m 118.43567,67.733333 v 26.578223 c 0,13.418784 -10.80299,24.221774 -24.221778,24.221774 H 67.635665 V 67.733333 Z" /><path
         id="path1570"
         style="fill:#788aa3;fill-opacity:1;stroke:none;stroke-width:0;stroke-linejoin:round;stroke-dasharray:none"
         d="M 16.835665,67.733333 V 92.096705 C 16.835665,104.39726 27.638656,114.3 41.057442,114.3 H 67.635665 V 67.733333 Z" /><path
         id="path1572"
         style="fill:#666a86;fill-opacity:1;stroke:none;stroke-width:0;stroke-linejoin:round;stroke-dasharray:none"
         d="M 118.43567,67.733333 V 92.096704 C 118.43567,104.39725 108.53293,114.3 96.232375,114.3 H 71.869003 V 67.733333 Z" /><path
         id="path1574"
         style="fill:#e3d3a1;fill-opacity:1;stroke:none;stroke-width:0;stroke-linejoin:round;stroke-dasharray:none"
         d="M 16.835665,67.733333 V 41.155108 c 0,-13.418785 10.802991,-24.221775 24.221777,-24.221775 h 26.578223 v 50.8 z" /><path
         id="path1576"
         style="fill:#a6c19f;fill-opacity:1;stroke:none;stroke-width:0;stroke-linejoin:round;stroke-dasharray:none"
         d="M 118.43567,67.733333 V 41.155108 c 0,-13.418785 -10.80299,-24.221775 -24.221783,-24.221775 H 67.635665 v 50.8 z" /><text
         xml:space="preserve"
         style="font-style:normal;font-variant:normal;font-weight:800;font-stretch:normal;font-size:26.0757px;line-height:1.25;font-family:Cantarell;-inkscape-font-specification:'Cantarell Ultra-Bold';stroke-width:0.651895"
         x="83.162506"
         y="100.44481"
         id="text1580"
         transform="scale(1.0052502,0.99477723)"><tspan
           sodipodi:role="line"
           id="tspan1578"
           style="font-style:normal;font-variant:normal;font-weight:800;font-stretch:normal;font-family:Cantarell;-inkscape-font-specification:'Cantarell Ultra-Bold';stroke-width:0.651895"
           x="83.162506"
           y="100.44481">G</tspan></text><path
         id="path1582"
         style="fill:#e8ddb5;fill-opacity:1;stroke:none;stroke-width:0;stroke-linejoin:round;stroke-dasharray:none"
         d="M 16.835665,63.5 V 39.136626 c 0,-12.300552 10.802991,-22.203293 24.221777,-22.203293 H 67.635665 V 63.5 Z" /><text
         xml:space="preserve"
         style="font-style:normal;font-variant:normal;font-weight:800;font-stretch:normal;font-size:27.5194px;line-height:1.25;font-family:Cantarell;-inkscape-font-specification:'Cantarell Ultra-Bold';stroke-width:0.687981"
         x="30.812176"
         y="52.215252"
         id="text1586"
         transform="scale(1.0609039,0.94259244)"><tspan
           id="tspan1584"
           style="font-style:normal;font-variant:normal;font-weight:800;font-stretch:normal;font-family:Cantarell;-inkscape-font-specification:'Cantarell Ultra-Bold';stroke-width:0.687981"
           x="30.812176"
           y="52.215252"
           sodipodi:role="line">C</tspan></text><path
         d="m 42.209207,102.62184 q -0.785814,0 -1.382447,-0.37836 -0.596636,-0.37835 -0.77126,-1.04775 h -0.407459 q -0.698502,0 -1.222376,-0.52387 -0.523875,-0.52388 -0.523875,-1.222378 v -4.161895 q -1.920874,-1.251479 -3.026832,-3.201459 -1.105959,-1.949979 -1.105959,-4.307414 0,-3.521603 2.459301,-5.980907 2.459304,-2.459302 5.980907,-2.459302 3.521603,0 5.980905,2.459302 2.4593,2.459304 2.4593,5.980907 0,2.357435 -1.105956,4.307414 -1.105959,1.94998 -3.026832,3.201459 v 4.161895 q 0,0.698498 -0.523876,1.222378 -0.523874,0.52387 -1.222375,0.52387 h -0.407459 q -0.174615,0.6694 -0.771261,1.04775 -0.596636,0.37836 -1.382446,0.37836 z m -2.561166,-3.172358 h 5.122333 v -1.280584 h -5.122333 z m 0,-2.444749 h 5.122333 v -1.164168 h -5.122333 z m -0.261937,-2.910417 h 2.153707 v -3.987271 l -2.677582,-2.677582 0.902229,-0.902228 2.44475,2.44475 2.444748,-2.44475 0.90223,0.902228 -2.677583,2.677582 v 3.987271 h 2.153707 q 1.74625,-0.814918 2.808553,-2.532064 1.0623,-1.717142 1.0623,-3.783538 0,-2.823104 -1.935425,-4.758532 -1.935428,-1.935427 -4.75853,-1.935427 -2.823104,0 -4.758532,1.935427 -1.935425,1.935428 -1.935425,4.758532 0,2.066396 1.0623,3.783538 1.062303,1.717146 2.808553,2.532064 z m 2.823104,-5.122331 z m 0,-1.397001 z"
         id="path1588"
         style="stroke-width:0.0291043" /><path
         id="path1590"
         style="fill:#b2c9ab;fill-opacity:1;stroke:none;stroke-width:0;stroke-linejoin:round;stroke-dasharray:none"
         d="M 118.43567,63.5 V 39.136627 c 0,-12.300553 -9.90274,-22.203294 -22.203299,-22.203294 H 71.869003 V 63.5 Z" /><path
         d="m 92.703909,44.029313 q 2.021349,0 3.424641,-1.224646 1.403287,-1.224645 1.403287,-2.966354 0,-1.513417 -1.0244,-2.590272 -1.024403,-1.076853 -2.483825,-1.076853 -1.281264,0 -2.196453,0.800364 -0.915191,0.800364 -0.915191,1.938658 0,0.49154 0.198292,0.957207 0.198292,0.465666 0.594874,0.873125 l 1.342278,-1.222376 q -0.152542,-0.101861 -0.2288,-0.25466 -0.07626,-0.152791 -0.07626,-0.327425 0,-0.407456 0.335569,-0.698499 0.335571,-0.29104 0.945696,-0.29104 0.701645,0 1.204999,0.538426 0.503354,0.538427 0.503354,1.382449 0,1.024146 -0.854175,1.734462 -0.854178,0.710287 -2.135443,0.710287 -1.561801,0 -2.641785,-1.178717 -1.079985,-1.17872 -1.079985,-2.912833 0,-0.914366 0.350822,-1.729284 0.350823,-0.814915 1.021961,-1.455207 l -1.311768,-1.251479 q -0.915189,0.844022 -1.418542,1.987349 -0.503355,1.143299 -0.503355,2.398184 0,2.453945 1.617078,4.156538 1.617049,1.702596 3.927138,1.702596 z m -7.649153,7.82902 v -5.005916 q -1.738858,-1.513418 -2.699807,-3.536157 -0.96095,-2.02274 -0.96095,-4.26376 0,-4.365625 3.203164,-7.421561 3.203162,-3.055939 7.779109,-3.055939 3.81329,0 6.757145,2.139157 2.943863,2.139156 3.828553,5.573448 l 1.67785,6.344709 q 0.12196,0.407458 -0.15254,0.742154 -0.27456,0.3347 -0.73217,0.3347 h -2.83708 v 4.074584 q 0,0.720326 -0.53767,1.233286 -0.537676,0.512961 -1.29271,0.512961 h -3.050621 v 2.328334 h -1.830378 v -4.074581 h 4.88101 v -5.820835 h 3.477719 l -1.37278,-5.238751 q -0.73216,-2.823103 -3.203171,-4.61301 -2.471008,-1.789906 -5.613157,-1.789906 -3.81329,0 -6.482591,2.517511 -2.669303,2.51751 -2.669303,6.142142 0,1.874804 0.803048,3.562118 0.80308,1.687345 2.27809,2.999707 l 0.579619,0.523875 v 5.79173 z m 7.840123,-10.768542 z"
         id="path1592"
         style="stroke-width:0.029797" /></g><g
       id="g1658"
       transform="translate(-243.35758,297.94956)"><path
         id="path1628"
         style="fill:#999999;fill-opacity:1;stroke:none;stroke-width:0;stroke-linejoin:round;stroke-dasharray:none"
         d="m 41.034198,16.933332 c -13.40587,0 -24.19851,10.803004 -24.19851,24.221776 v 53.156446 c 0,13.418776 10.79264,24.221776 24.19851,24.221776 h 27.08136 26.121614 c 13.405878,0 24.198518,-10.80301 24.198518,-24.221776 V 41.155109 c 0,-13.418772 -10.79264,-24.221777 -24.198518,-24.221777 H 68.213128 Z" /><path
         id="path1630"
         style="fill:#6d819a;fill-opacity:1;stroke:none;stroke-width:0;stroke-linejoin:round;stroke-dasharray:none"
         d="m 16.835665,67.733333 v 26.578223 c 0,13.418784 10.802991,24.221774 24.221777,24.221774 H 67.635665 V 67.733333 Z" /><path
         id="path1632"
         style="fill:#62647e;fill-opacity:1;stroke:none;stroke-width:0;stroke-linejoin:round;stroke-dasharray:none"
         d="m 118.43567,67.733333 v 26.578223 c 0,13.418784 -10.80299,24.221774 -24.221778,24.221774 H 67.635665 V 67.733333 Z" /><path
         id="path1634"
         style="fill:#788aa3;fill-opacity:1;stroke:none;stroke-width:0;stroke-linejoin:round;stroke-dasharray:none"
         d="m 16.835665,67.733333 v 24.363372 c 0,12.300555 9.902742,22.203295 22.203296,22.203295 H 63.402332 V 67.733333 Z" /><path
         id="path1636"
         style="fill:#666a86;fill-opacity:1;stroke:none;stroke-width:0;stroke-linejoin:round;stroke-dasharray:none"
         d="M 118.43567,67.733333 V 92.096704 C 118.43567,104.39725 108.53293,114.3 96.232375,114.3 H 71.869003 V 67.733333 Z" /><path
         id="path1638"
         style="fill:#e3d3a1;fill-opacity:1;stroke:none;stroke-width:0;stroke-linejoin:round;stroke-dasharray:none"
         d="M 16.835665,67.733333 V 41.155108 c 0,-13.418785 10.802991,-24.221775 24.221777,-24.221775 h 26.578223 v 50.8 z" /><path
         id="path1640"
         style="fill:#a6c19f;fill-opacity:1;stroke:none;stroke-width:0;stroke-linejoin:round;stroke-dasharray:none"
         d="M 118.43567,67.733333 V 41.155108 c 0,-13.418785 -10.80299,-24.221775 -24.221783,-24.221775 H 67.635665 v 50.8 z" /><text
         xml:space="preserve"
         style="font-style:normal;font-variant:normal;font-weight:800;font-stretch:normal;font-size:26.0757px;line-height:1.25;font-family:Cantarell;-inkscape-font-specification:'Cantarell Ultra-Bold';stroke-width:0.651895"
         x="83.162506"
         y="100.44481"
         id="text1644"
         transform="scale(1.0052502,0.99477723)"><tspan
           sodipodi:role="line"
           id="tspan1642"
           style="font-style:normal;font-variant:normal;font-weight:800;font-stretch:normal;font-family:Cantarell;-inkscape-font-specification:'Cantarell Ultra-Bold';stroke-width:0.651895"
           x="83.162506"
           y="100.44481">G</tspan></text><path
         id="path1646"
         style="fill:#e8ddb5;fill-opacity:1;stroke:none;stroke-width:0;stroke-linejoin:round;stroke-dasharray:none"
         d="M 16.835665,63.5 V 39.136626 c 0,-12.300552 9.902742,-22.203293 22.203295,-22.203293 H 63.402332 V 63.5 Z" /><text
         xml:space="preserve"
         style="font-style:normal;font-variant:normal;font-weight:800;font-stretch:normal;font-size:27.5194px;line-height:1.25;font-family:Cantarell;-inkscape-font-specification:'Cantarell Ultra-Bold';stroke-width:0.687981"
         x="30.812176"
         y="52.215252"
         id="text1650"
         transform="scale(1.0609039,0.94259244)"><tspan
           id="tspan1648"
           style="font-style:normal;font-variant:normal;font-weight:800;font-stretch:normal;font-family:Cantarell;-inkscape-font-specification:'Cantarell Ultra-Bold';stroke-width:0.687981"
           x="30.812176"
           y="52.215252"
           sodipodi:role="line">C</tspan></text><path
         d="m 42.209207,102.62184 q -0.785814,0 -1.382447,-0.37836 -0.596636,-0.37835 -0.77126,-1.04775 h -0.407459 q -0.698502,0 -1.222376,-0.52387 -0.523875,-0.52388 -0.523875,-1.222378 v -4.161895 q -1.920874,-1.251479 -3.026832,-3.201459 -1.105959,-1.949979 -1.105959,-4.307414 0,-3.521603 2.459301,-5.980907 2.459304,-2.459302 5.980907,-2.459302 3.521603,0 5.980905,2.459302 2.4593,2.459304 2.4593,5.980907 0,2.357435 -1.105956,4.307414 -1.105959,1.94998 -3.026832,3.201459 v 4.161895 q 0,0.698498 -0.523876,1.222378 -0.523874,0.52387 -1.222375,0.52387 h -0.407459 q -0.174615,0.6694 -0.771261,1.04775 -0.596636,0.37836 -1.382446,0.37836 z m -2.561166,-3.172358 h 5.122333 v -1.280584 h -5.122333 z m 0,-2.444749 h 5.122333 v -1.164168 h -5.122333 z m -0.261937,-2.910417 h 2.153707 v -3.987271 l -2.677582,-2.677582 0.902229,-0.902228 2.44475,2.44475 2.444748,-2.44475 0.90223,0.902228 -2.677583,2.677582 v 3.987271 h 2.153707 q 1.74625,-0.814918 2.808553,-2.532064 1.0623,-1.717142 1.0623,-3.783538 0,-2.823104 -1.935425,-4.758532 -1.935428,-1.935427 -4.75853,-1.935427 -2.823104,0 -4.758532,1.935427 -1.935425,1.935428 -1.935425,4.758532 0,2.066396 1.0623,3.783538 1.062303,1.717146 2.808553,2.532064 z m 2.823104,-5.122331 z m 0,-1.397001 z"
         id="path1652"
         style="stroke-width:0.0291043" /><path
         id="path1654"
         style="fill:#b2c9ab;fill-opacity:1;stroke:none;stroke-width:0;stroke-linejoin:round;stroke-dasharray:none"
         d="M 118.43567,63.5 V 39.136627 c 0,-12.300553 -9.90274,-22.203294 -22.203299,-22.203294 H 71.869003 V 63.5 Z" /><path
         d="m 92.703909,44.029313 q 2.021349,0 3.424641,-1.224646 1.403287,-1.224645 1.403287,-2.966354 0,-1.513417 -1.0244,-2.590272 -1.024403,-1.076853 -2.483825,-1.076853 -1.281264,0 -2.196453,0.800364 -0.915191,0.800364 -0.915191,1.938658 0,0.49154 0.198292,0.957207 0.198292,0.465666 0.594874,0.873125 l 1.342278,-1.222376 q -0.152542,-0.101861 -0.2288,-0.25466 -0.07626,-0.152791 -0.07626,-0.327425 0,-0.407456 0.335569,-0.698499 0.335571,-0.29104 0.945696,-0.29104 0.701645,0 1.204999,0.538426 0.503354,0.538427 0.503354,1.382449 0,1.024146 -0.854175,1.734462 -0.854178,0.710287 -2.135443,0.710287 -1.561801,0 -2.641785,-1.178717 -1.079985,-1.17872 -1.079985,-2.912833 0,-0.914366 0.350822,-1.729284 0.350823,-0.814915 1.021961,-1.455207 l -1.311768,-1.251479 q -0.915189,0.844022 -1.418542,1.987349 -0.503355,1.143299 -0.503355,2.398184 0,2.453945 1.617078,4.156538 1.617049,1.702596 3.927138,1.702596 z m -7.649153,7.82902 v -5.005916 q -1.738858,-1.513418 -2.699807,-3.536157 -0.96095,-2.02274 -0.96095,-4.26376 0,-4.365625 3.203164,-7.421561 3.203162,-3.055939 7.779109,-3.055939 3.81329,0 6.757145,2.139157 2.943863,2.139156 3.828553,5.573448 l 1.67785,6.344709 q 0.12196,0.407458 -0.15254,0.742154 -0.27456,0.3347 -0.73217,0.3347 h -2.83708 v 4.074584 q 0,0.720326 -0.53767,1.233286 -0.537676,0.512961 -1.29271,0.512961 h -3.050621 v 2.328334 h -1.830378 v -4.074581 h 4.88101 v -5.820835 h 3.477719 l -1.37278,-5.238751 q -0.73216,-2.823103 -3.203171,-4.61301 -2.471008,-1.789906 -5.613157,-1.789906 -3.81329,0 -6.482591,2.517511 -2.669303,2.51751 -2.669303,6.142142 0,1.874804 0.803048,3.562118 0.80308,1.687345 2.27809,2.999707 l 0.579619,0.523875 v 5.79173 z m 7.840123,-10.768542 z"
         id="path1656"
         style="stroke-width:0.029797" /></g><g
       id="g1954"
       transform="translate(0,166.47935)"><path
         id="path1777"
         style="fill:#999999;fill-opacity:1;stroke:none;stroke-width:0;stroke-linejoin:round;stroke-dasharray:none"
         d="m -345.43301,12.922633 c -13.40587,0 -24.19851,10.803004 -24.19851,24.221776 v 53.156446 c 0,13.418775 10.79264,24.221775 24.19851,24.221775 h 27.08136 26.12161 c 13.40588,0 24.19852,-10.80301 24.19852,-24.221775 V 37.14441 c 0,-13.418772 -10.79264,-24.221777 -24.19852,-24.221777 h -26.02404 z" /><path
         id="path1779"
         style="fill:#6d819a;fill-opacity:1;stroke:none;stroke-width:0;stroke-linejoin:round;stroke-dasharray:none"
         d="m -369.63155,63.722634 v 26.578223 c 0,13.418783 10.803,24.221773 24.22178,24.221773 h 26.57823 V 63.722634 Z" /><path
         id="path1781"
         style="fill:#62647e;fill-opacity:1;stroke:none;stroke-width:0;stroke-linejoin:round;stroke-dasharray:none"
         d="m -268.03154,63.722634 v 26.578223 c 0,13.418783 -10.80299,24.221773 -24.22178,24.221773 h -26.57822 V 63.722634 Z" /><path
         id="path1783"
         style="fill:#788aa3;fill-opacity:1;stroke:none;stroke-width:0;stroke-linejoin:round;stroke-dasharray:none"
         d="m -369.63155,63.722634 v 24.363372 c 0,12.300554 10.803,22.203294 24.22178,22.203294 h 26.57823 V 63.722634 Z" /><path
         id="path1785"
         style="fill:#666a86;fill-opacity:1;stroke:none;stroke-width:0;stroke-linejoin:round;stroke-dasharray:none"
         d="m -268.03154,63.722634 v 24.363371 c 0,12.300545 -9.90274,22.203295 -22.2033,22.203295 h -24.36337 V 63.722634 Z" /><path
         id="path1787"
         style="fill:#e3d3a1;fill-opacity:1;stroke:none;stroke-width:0;stroke-linejoin:round;stroke-dasharray:none"
         d="M -369.63155,63.722634 V 37.144409 c 0,-13.418785 10.803,-24.221775 24.22178,-24.221775 h 26.57823 v 50.8 z" /><path
         id="path1789"
         style="fill:#a6c19f;fill-opacity:1;stroke:none;stroke-width:0;stroke-linejoin:round;stroke-dasharray:none"
         d="M -268.03154,63.722634 V 37.144409 c 0,-13.418785 -10.80299,-24.221775 -24.22178,-24.221775 h -26.57822 v 50.8 z" /><text
         xml:space="preserve"
         style="font-style:normal;font-variant:normal;font-weight:800;font-stretch:normal;font-size:32.7809px;line-height:1.25;font-family:Cantarell;-inkscape-font-specification:'Cantarell Ultra-Bold';stroke-width:0.819526"
         x="-303.70013"
         y="98.837738"
         id="text1793"
         transform="scale(1.0052502,0.99477723)"><tspan
           sodipodi:role="line"
           id="tspan1791"
           style="font-style:normal;font-variant:normal;font-weight:800;font-stretch:normal;font-family:Cantarell;-inkscape-font-specification:'Cantarell Ultra-Bold';stroke-width:0.819526"
           x="-303.70013"
           y="98.837738">G</tspan></text><path
         id="path1795"
         style="fill:#e8ddb5;fill-opacity:1;stroke:none;stroke-width:0;stroke-linejoin:round;stroke-dasharray:none"
         d="M -369.63155,59.489301 V 35.125927 c 0,-12.300552 10.803,-22.203293 24.22178,-22.203293 h 26.57823 v 46.566667 z" /><text
         xml:space="preserve"
         style="font-style:normal;font-variant:normal;font-weight:800;font-stretch:normal;font-size:34.5958px;line-height:1.25;font-family:Cantarell;-inkscape-font-specification:'Cantarell Ultra-Bold';stroke-width:0.864889"
         x="-335.78287"
         y="50.415794"
         id="text1799"
         transform="scale(1.0609039,0.94259244)"><tspan
           id="tspan1797"
           style="font-style:normal;font-variant:normal;font-weight:800;font-stretch:normal;font-family:Cantarell;-inkscape-font-specification:'Cantarell Ultra-Bold';stroke-width:0.864889"
           x="-335.78287"
           y="50.415794"
           sodipodi:role="line">C</tspan></text><path
         d="m -344.258,98.611141 q -0.78582,0 -1.38245,-0.37836 -0.59664,-0.37835 -0.77126,-1.04775 h -0.40746 q -0.6985,0 -1.22238,-0.52387 -0.52387,-0.52388 -0.52387,-1.222378 v -4.161895 q -1.92087,-1.251479 -3.02683,-3.201459 -1.10596,-1.949979 -1.10596,-4.307414 0,-3.521603 2.4593,-5.980907 2.4593,-2.459302 5.98091,-2.459302 3.5216,0 5.9809,2.459302 2.4593,2.459304 2.4593,5.980907 0,2.357435 -1.10595,4.307414 -1.10596,1.94998 -3.02684,3.201459 v 4.161895 q 0,0.698498 -0.52387,1.222378 -0.52388,0.52387 -1.22238,0.52387 h -0.40746 q -0.17461,0.6694 -0.77126,1.04775 -0.59663,0.37836 -1.38244,0.37836 z m -2.56117,-3.172358 h 5.12233 v -1.280584 h -5.12233 z m 0,-2.444749 h 5.12233 v -1.164168 h -5.12233 z m -0.26194,-2.910417 h 2.15371 v -3.987271 l -2.67758,-2.677582 0.90223,-0.902228 2.44475,2.44475 2.44475,-2.44475 0.90223,0.902228 -2.67759,2.677582 v 3.987271 h 2.15371 q 1.74625,-0.814918 2.80855,-2.532064 1.0623,-1.717142 1.0623,-3.783538 0,-2.823104 -1.93542,-4.758532 -1.93543,-1.935427 -4.75853,-1.935427 -2.82311,0 -4.75853,1.935427 -1.93543,1.935428 -1.93543,4.758532 0,2.066396 1.0623,3.783538 1.0623,1.717146 2.80855,2.532064 z m 2.82311,-5.122331 z m 0,-1.397001 z"
         id="path1801"
         style="stroke-width:0.0291043" /><path
         id="path1803"
         style="fill:#b2c9ab;fill-opacity:1;stroke:none;stroke-width:0;stroke-linejoin:round;stroke-dasharray:none"
         d="M -268.03154,59.489301 V 35.125928 c 0,-12.300553 -9.90274,-22.203294 -22.2033,-22.203294 h -24.36337 v 46.566667 z" /><path
         d="m -293.7633,40.018614 q 2.02135,0 3.42464,-1.224646 1.40329,-1.224645 1.40329,-2.966354 0,-1.513417 -1.0244,-2.590272 -1.02441,-1.076853 -2.48383,-1.076853 -1.28126,0 -2.19645,0.800364 -0.91519,0.800364 -0.91519,1.938658 0,0.49154 0.19829,0.957207 0.19829,0.465666 0.59487,0.873125 l 1.34228,-1.222376 q -0.15254,-0.101861 -0.2288,-0.25466 -0.0763,-0.152791 -0.0763,-0.327425 0,-0.407456 0.33557,-0.698499 0.33557,-0.29104 0.9457,-0.29104 0.70164,0 1.205,0.538426 0.50335,0.538427 0.50335,1.382449 0,1.024146 -0.85418,1.734462 -0.85417,0.710287 -2.13544,0.710287 -1.5618,0 -2.64178,-1.178717 -1.07999,-1.17872 -1.07999,-2.912833 0,-0.914366 0.35082,-1.729284 0.35083,-0.814915 1.02197,-1.455207 l -1.31177,-1.251479 q -0.91519,0.844022 -1.41855,1.987349 -0.50335,1.143299 -0.50335,2.398184 0,2.453945 1.61708,4.156538 1.61705,1.702596 3.92714,1.702596 z m -7.64915,7.82902 v -5.005916 q -1.73886,-1.513418 -2.69981,-3.536157 -0.96095,-2.02274 -0.96095,-4.26376 0,-4.365625 3.20316,-7.421561 3.20317,-3.055939 7.77911,-3.055939 3.81329,0 6.75715,2.139157 2.94386,2.139156 3.82855,5.573448 l 1.67785,6.344709 q 0.12196,0.407458 -0.15254,0.742154 -0.27456,0.3347 -0.73217,0.3347 h -2.83708 v 4.074584 q 0,0.720326 -0.53767,1.233286 -0.53768,0.512961 -1.29271,0.512961 h -3.05062 v 2.328334 h -1.83038 v -4.074581 h 4.88101 v -5.820835 h 3.47772 l -1.37278,-5.238751 q -0.73216,-2.823103 -3.20317,-4.61301 -2.47101,-1.789906 -5.61316,-1.789906 -3.81329,0 -6.48259,2.517511 -2.6693,2.51751 -2.6693,6.142142 0,1.874804 0.80305,3.562118 0.80308,1.687345 2.27809,2.999707 l 0.57961,0.523875 v 5.79173 z m 7.84012,-10.768542 z"
         id="path1805"
         style="stroke-width:0.029797" /></g><g
       id="g2185"
       transform="translate(0,166.47935)"><path
         id="path1777-2"
         style="fill:#999999;fill-opacity:1;stroke:none;stroke-width:0;stroke-linejoin:round;stroke-dasharray:none"
         d="m -345.43301,148.40354 c -13.40587,0 -24.19851,10.80301 -24.19851,24.22178 v 53.15644 c 0,13.41878 10.79264,24.22178 24.19851,24.22178 h 27.08136 26.12161 c 13.40588,0 24.19852,-10.80301 24.19852,-24.22178 v -53.15644 c 0,-13.41877 -10.79264,-24.22178 -24.19852,-24.22178 h -26.02404 z" /><path
         id="path1779-3"
         style="fill:#6d819a;fill-opacity:1;stroke:none;stroke-width:0;stroke-linejoin:round;stroke-dasharray:none"
         d="m -369.63155,199.20354 v 26.57823 c 0,13.41878 10.803,24.22177 24.22178,24.22177 h 26.57823 v -50.8 z" /><path
         id="path1781-7"
         style="fill:#62647e;fill-opacity:1;stroke:none;stroke-width:0;stroke-linejoin:round;stroke-dasharray:none"
         d="m -268.03154,199.20354 v 26.57823 c 0,13.41878 -10.80299,24.22177 -24.22178,24.22177 h -26.57822 v -50.8 z" /><path
         id="path1783-5"
         style="fill:#788aa3;fill-opacity:1;stroke:none;stroke-width:0;stroke-linejoin:round;stroke-dasharray:none"
         d="m -369.63155,199.20354 v 24.36338 c 0,12.30055 9.90275,22.20329 22.20329,22.20329 h 24.36338 v -46.56667 z" /><path
         id="path1785-9"
         style="fill:#666a86;fill-opacity:1;stroke:none;stroke-width:0;stroke-linejoin:round;stroke-dasharray:none"
         d="m -268.03154,199.20354 v 24.36337 c 0,12.30055 -9.90274,22.2033 -22.2033,22.2033 h -24.36337 v -46.56667 z" /><path
         id="path1787-2"
         style="fill:#e3d3a1;fill-opacity:1;stroke:none;stroke-width:0;stroke-linejoin:round;stroke-dasharray:none"
         d="m -369.63155,199.20354 v -26.57822 c 0,-13.41879 10.803,-24.22178 24.22178,-24.22178 h 26.57823 v 50.8 z" /><path
         id="path1789-2"
         style="fill:#a6c19f;fill-opacity:1;stroke:none;stroke-width:0;stroke-linejoin:round;stroke-dasharray:none"
         d="m -268.03154,199.20354 v -26.57822 c 0,-13.41879 -10.80299,-24.22178 -24.22178,-24.22178 h -26.57822 v 50.8 z" /><text
         xml:space="preserve"
         style="font-style:normal;font-variant:normal;font-weight:800;font-stretch:normal;font-size:32.7809px;line-height:1.25;font-family:Cantarell;-inkscape-font-specification:'Cantarell Ultra-Bold';stroke-width:0.819526"
         x="-303.70013"
         y="235.02995"
         id="text1793-8"
         transform="scale(1.0052502,0.99477723)"><tspan
           sodipodi:role="line"
           id="tspan1791-9"
           style="font-style:normal;font-variant:normal;font-weight:800;font-stretch:normal;font-family:Cantarell;-inkscape-font-specification:'Cantarell Ultra-Bold';stroke-width:0.819526"
           x="-303.70013"
           y="235.02995">G</tspan></text><path
         id="path1795-7"
         style="fill:#e8ddb5;fill-opacity:1;stroke:none;stroke-width:0;stroke-linejoin:round;stroke-dasharray:none"
         d="m -369.63155,194.97021 v -24.36337 c 0,-12.30056 9.90275,-22.2033 22.20329,-22.2033 h 24.36338 v 46.56667 z" /><text
         xml:space="preserve"
         style="font-style:normal;font-variant:normal;font-weight:800;font-stretch:normal;font-size:34.5958px;line-height:1.25;font-family:Cantarell;-inkscape-font-specification:'Cantarell Ultra-Bold';stroke-width:0.864889"
         x="-335.78287"
         y="194.14803"
         id="text1799-3"
         transform="scale(1.0609039,0.94259244)"><tspan
           id="tspan1797-6"
           style="font-style:normal;font-variant:normal;font-weight:800;font-stretch:normal;font-family:Cantarell;-inkscape-font-specification:'Cantarell Ultra-Bold';stroke-width:0.864889"
           x="-335.78287"
           y="194.14803"
           sodipodi:role="line">C</tspan></text><path
         d="m -344.258,234.09205 q -0.78582,0 -1.38245,-0.37836 -0.59664,-0.37835 -0.77126,-1.04775 h -0.40746 q -0.6985,0 -1.22238,-0.52387 -0.52387,-0.52388 -0.52387,-1.22238 v -4.16189 q -1.92087,-1.25148 -3.02683,-3.20146 -1.10596,-1.94998 -1.10596,-4.30742 0,-3.5216 2.4593,-5.9809 2.4593,-2.4593 5.98091,-2.4593 3.5216,0 5.9809,2.4593 2.4593,2.4593 2.4593,5.9809 0,2.35744 -1.10595,4.30742 -1.10596,1.94998 -3.02684,3.20146 v 4.16189 q 0,0.6985 -0.52387,1.22238 -0.52388,0.52387 -1.22238,0.52387 h -0.40746 q -0.17461,0.6694 -0.77126,1.04775 -0.59663,0.37836 -1.38244,0.37836 z m -2.56117,-3.17236 h 5.12233 v -1.28058 h -5.12233 z m 0,-2.44475 h 5.12233 v -1.16416 h -5.12233 z m -0.26194,-2.91041 h 2.15371 v -3.98727 l -2.67758,-2.67759 0.90223,-0.90222 2.44475,2.44475 2.44475,-2.44475 0.90223,0.90222 -2.67759,2.67759 v 3.98727 h 2.15371 q 1.74625,-0.81492 2.80855,-2.53207 1.0623,-1.71714 1.0623,-3.78354 0,-2.8231 -1.93542,-4.75853 -1.93543,-1.93542 -4.75853,-1.93542 -2.82311,0 -4.75853,1.93542 -1.93543,1.93543 -1.93543,4.75853 0,2.0664 1.0623,3.78354 1.0623,1.71715 2.80855,2.53207 z m 2.82311,-5.12233 z m 0,-1.39701 z"
         id="path1801-1"
         style="stroke-width:0.0291043" /><path
         id="path1803-2"
         style="fill:#b2c9ab;fill-opacity:1;stroke:none;stroke-width:0;stroke-linejoin:round;stroke-dasharray:none"
         d="m -268.03154,194.97021 v -24.36337 c 0,-12.30056 -9.90274,-22.2033 -22.2033,-22.2033 h -24.36337 v 46.56667 z" /><path
         d="m -293.7633,175.49952 q 2.02135,0 3.42464,-1.22464 1.40329,-1.22465 1.40329,-2.96636 0,-1.51341 -1.0244,-2.59027 -1.02441,-1.07685 -2.48383,-1.07685 -1.28126,0 -2.19645,0.80036 -0.91519,0.80037 -0.91519,1.93866 0,0.49154 0.19829,0.95721 0.19829,0.46566 0.59487,0.87312 l 1.34228,-1.22237 q -0.15254,-0.10186 -0.2288,-0.25466 -0.0763,-0.15279 -0.0763,-0.32743 0,-0.40745 0.33557,-0.6985 0.33557,-0.29104 0.9457,-0.29104 0.70164,0 1.205,0.53843 0.50335,0.53843 0.50335,1.38245 0,1.02414 -0.85418,1.73446 -0.85417,0.71029 -2.13544,0.71029 -1.5618,0 -2.64178,-1.17872 -1.07999,-1.17872 -1.07999,-2.91283 0,-0.91437 0.35082,-1.72929 0.35083,-0.81491 1.02197,-1.4552 l -1.31177,-1.25148 q -0.91519,0.84402 -1.41855,1.98735 -0.50335,1.14329 -0.50335,2.39818 0,2.45394 1.61708,4.15654 1.61705,1.70259 3.92714,1.70259 z m -7.64915,7.82902 v -5.00591 q -1.73886,-1.51342 -2.69981,-3.53616 -0.96095,-2.02274 -0.96095,-4.26376 0,-4.36562 3.20316,-7.42156 3.20317,-3.05594 7.77911,-3.05594 3.81329,0 6.75715,2.13916 2.94386,2.13915 3.82855,5.57345 l 1.67785,6.34471 q 0.12196,0.40745 -0.15254,0.74215 -0.27456,0.3347 -0.73217,0.3347 h -2.83708 v 4.07458 q 0,0.72033 -0.53767,1.23329 -0.53768,0.51296 -1.29271,0.51296 h -3.05062 v 2.32833 h -1.83038 v -4.07458 h 4.88101 v -5.82083 h 3.47772 l -1.37278,-5.23875 q -0.73216,-2.82311 -3.20317,-4.61301 -2.47101,-1.78991 -5.61316,-1.78991 -3.81329,0 -6.48259,2.51751 -2.6693,2.51751 -2.6693,6.14214 0,1.87481 0.80305,3.56212 0.80308,1.68735 2.27809,2.99971 l 0.57961,0.52387 v 5.79173 z m 7.84012,-10.76854 z"
         id="path1805-9"
         style="stroke-width:0.029797" /></g><g
       id="g2426"
       transform="translate(0,166.47935)"><path
         id="path2263"
         style="fill:#999999;fill-opacity:1;stroke:none;stroke-width:0;stroke-linejoin:round;stroke-dasharray:none"
         d="m -488.83751,12.922633 c -13.40587,0 -24.19851,10.803004 -24.19851,24.221776 v 53.156446 c 0,13.418775 10.79264,24.221775 24.19851,24.221775 h 27.08136 26.12161 c 13.40588,0 24.19852,-10.80301 24.19852,-24.221775 V 37.14441 c 0,-13.418772 -10.79264,-24.221777 -24.19852,-24.221777 h -26.02404 z" /><path
         id="path2265"
         style="fill:#6d819a;fill-opacity:1;stroke:none;stroke-width:0;stroke-linejoin:round;stroke-dasharray:none"
         d="m -513.03605,63.722634 v 26.578223 c 0,13.418783 10.803,24.221773 24.22178,24.221773 h 26.57823 V 63.722634 Z" /><path
         id="path2267"
         style="fill:#62647e;fill-opacity:1;stroke:none;stroke-width:0;stroke-linejoin:round;stroke-dasharray:none"
         d="m -411.43604,63.722634 v 26.578223 c 0,13.418783 -10.80299,24.221773 -24.22178,24.221773 h -26.57822 V 63.722634 Z" /><path
         id="path2269"
         style="fill:#788aa3;fill-opacity:1;stroke:none;stroke-width:0;stroke-linejoin:round;stroke-dasharray:none"
         d="m -513.03605,63.722634 v 24.363372 c 0,12.300554 10.803,22.203294 24.22178,22.203294 h 26.57823 V 63.722634 Z" /><path
         id="path2271"
         style="fill:#666a86;fill-opacity:1;stroke:none;stroke-width:0;stroke-linejoin:round;stroke-dasharray:none"
         d="m -411.43604,63.722634 v 24.363371 c 0,12.300545 -9.90274,22.203295 -22.2033,22.203295 h -24.36337 V 63.722634 Z" /><path
         id="path2273"
         style="fill:#e3d3a1;fill-opacity:1;stroke:none;stroke-width:0;stroke-linejoin:round;stroke-dasharray:none"
         d="M -513.03605,63.722634 V 37.144409 c 0,-13.418785 10.803,-24.221775 24.22178,-24.221775 h 26.57823 v 50.8 z" /><path
         id="path2275"
         style="fill:#a6c19f;fill-opacity:1;stroke:none;stroke-width:0;stroke-linejoin:round;stroke-dasharray:none"
         d="M -411.43604,63.722634 V 37.144409 c 0,-13.418785 -10.80299,-24.221775 -24.22178,-24.221775 h -26.57822 v 50.8 z" /><text
         xml:space="preserve"
         style="font-style:normal;font-variant:normal;font-weight:800;font-stretch:normal;font-size:32.6876px;line-height:1.25;font-family:Cantarell;-inkscape-font-specification:'Cantarell Ultra-Bold';fill:#384646;fill-opacity:1;stroke-width:0.817194"
         x="-447.5621"
         y="98.556488"
         id="text2279"
         transform="scale(1.0023898,0.9976159)"><tspan
           sodipodi:role="line"
           id="tspan2277"
           style="font-style:normal;font-variant:normal;font-weight:800;font-stretch:normal;font-family:Cantarell;-inkscape-font-specification:'Cantarell Ultra-Bold';fill:#384646;fill-opacity:1;stroke-width:0.817194"
           x="-447.5621"
           y="98.556488">G</tspan></text><path
         id="path2281"
         style="fill:#e8ddb5;fill-opacity:1;stroke:none;stroke-width:0;stroke-linejoin:round;stroke-dasharray:none"
         d="M -513.03605,59.489301 V 35.125927 c 0,-12.300552 10.803,-22.203293 24.22178,-22.203293 h 26.57823 v 46.566667 z" /><text
         xml:space="preserve"
         style="font-style:normal;font-variant:normal;font-weight:800;font-stretch:normal;font-size:33.4019px;line-height:1.25;font-family:Cantarell;-inkscape-font-specification:'Cantarell Ultra-Bold';fill:#384646;fill-opacity:1;stroke-width:0.835043"
         x="-486.99286"
         y="48.67601"
         id="text2285"
         transform="scale(1.0242939,0.97628229)"><tspan
           id="tspan2283"
           style="font-style:normal;font-variant:normal;font-weight:800;font-stretch:normal;font-family:Cantarell;-inkscape-font-specification:'Cantarell Ultra-Bold';fill:#384646;fill-opacity:1;stroke-width:0.835043"
           x="-486.99286"
           y="48.67601"
           sodipodi:role="line">C</tspan></text><path
         d="m -487.6625,98.611141 q -0.78582,0 -1.38245,-0.37836 -0.59664,-0.37835 -0.77126,-1.04775 h -0.40746 q -0.6985,0 -1.22238,-0.52387 -0.52387,-0.52388 -0.52387,-1.222378 v -4.161895 q -1.92087,-1.251479 -3.02683,-3.201459 -1.10596,-1.949979 -1.10596,-4.307414 0,-3.521603 2.4593,-5.980907 2.4593,-2.459302 5.98091,-2.459302 3.5216,0 5.9809,2.459302 2.4593,2.459304 2.4593,5.980907 0,2.357435 -1.10595,4.307414 -1.10596,1.94998 -3.02684,3.201459 v 4.161895 q 0,0.698498 -0.52387,1.222378 -0.52388,0.52387 -1.22238,0.52387 h -0.40746 q -0.17461,0.6694 -0.77126,1.04775 -0.59663,0.37836 -1.38244,0.37836 z m -2.56117,-3.172358 h 5.12233 v -1.280584 h -5.12233 z m 0,-2.444749 h 5.12233 v -1.164168 h -5.12233 z m -0.26194,-2.910417 h 2.15371 v -3.987271 l -2.67758,-2.677582 0.90223,-0.902228 2.44475,2.44475 2.44475,-2.44475 0.90223,0.902228 -2.67759,2.677582 v 3.987271 h 2.15371 q 1.74625,-0.814918 2.80855,-2.532064 1.0623,-1.717142 1.0623,-3.783538 0,-2.823104 -1.93542,-4.758532 -1.93543,-1.935427 -4.75853,-1.935427 -2.82311,0 -4.75853,1.935427 -1.93543,1.935428 -1.93543,4.758532 0,2.066396 1.0623,3.783538 1.0623,1.717146 2.80855,2.532064 z m 2.82311,-5.122331 z m 0,-1.397001 z"
         id="path2287"
         style="fill:#384646;fill-opacity:1;stroke-width:0.0291043" /><path
         id="path2289"
         style="fill:#b2c9ab;fill-opacity:1;stroke:none;stroke-width:0;stroke-linejoin:round;stroke-dasharray:none"
         d="M -411.43604,59.489301 V 35.125928 c 0,-12.300553 -9.90274,-22.203294 -22.2033,-22.203294 h -24.36337 v 46.566667 z" /><path
         d="m -437.1678,40.018614 q 2.02135,0 3.42464,-1.224646 1.40329,-1.224645 1.40329,-2.966354 0,-1.513417 -1.0244,-2.590272 -1.02441,-1.076853 -2.48383,-1.076853 -1.28126,0 -2.19645,0.800364 -0.91519,0.800364 -0.91519,1.938658 0,0.49154 0.19829,0.957207 0.19829,0.465666 0.59487,0.873125 l 1.34228,-1.222376 q -0.15254,-0.101861 -0.2288,-0.25466 -0.0763,-0.152791 -0.0763,-0.327425 0,-0.407456 0.33557,-0.698499 0.33557,-0.29104 0.9457,-0.29104 0.70164,0 1.205,0.538426 0.50335,0.538427 0.50335,1.382449 0,1.024146 -0.85418,1.734462 -0.85417,0.710287 -2.13544,0.710287 -1.5618,0 -2.64178,-1.178717 -1.07999,-1.17872 -1.07999,-2.912833 0,-0.914366 0.35082,-1.729284 0.35083,-0.814915 1.02197,-1.455207 l -1.31177,-1.251479 q -0.91519,0.844022 -1.41855,1.987349 -0.50335,1.143299 -0.50335,2.398184 0,2.453945 1.61708,4.156538 1.61705,1.702596 3.92714,1.702596 z m -7.64915,7.82902 v -5.005916 q -1.73886,-1.513418 -2.69981,-3.536157 -0.96095,-2.02274 -0.96095,-4.26376 0,-4.365625 3.20316,-7.421561 3.20317,-3.055939 7.77911,-3.055939 3.81329,0 6.75715,2.139157 2.94386,2.139156 3.82855,5.573448 l 1.67785,6.344709 q 0.12196,0.407458 -0.15254,0.742154 -0.27456,0.3347 -0.73217,0.3347 h -2.83708 v 4.074584 q 0,0.720326 -0.53767,1.233286 -0.53768,0.512961 -1.29271,0.512961 h -3.05062 v 2.328334 h -1.83038 v -4.074581 h 4.88101 v -5.820835 h 3.47772 l -1.37278,-5.238751 q -0.73216,-2.823103 -3.20317,-4.61301 -2.47101,-1.789906 -5.61316,-1.789906 -3.81329,0 -6.48259,2.517511 -2.6693,2.51751 -2.6693,6.142142 0,1.874804 0.80305,3.562118 0.80308,1.687345 2.27809,2.999707 l 0.57961,0.523875 v 5.79173 z m 7.84012,-10.768542 z"
         id="path2291"
         style="fill:#384646;fill-opacity:1;stroke-width:0.029797" /></g><g
       id="g2409"
       transform="translate(0,166.47935)"><path
         id="path2295"
         style="fill:#999999;fill-opacity:1;stroke:none;stroke-width:0;stroke-linejoin:round;stroke-dasharray:none"
         d="m -488.83751,148.40354 c -13.40587,0 -24.19851,10.80301 -24.19851,24.22178 v 53.15644 c 0,13.41878 10.79264,24.22178 24.19851,24.22178 h 27.08136 26.12161 c 13.40588,0 24.19852,-10.80301 24.19852,-24.22178 v -53.15644 c 0,-13.41877 -10.79264,-24.22178 -24.19852,-24.22178 h -26.02404 z" /><path
         id="path2297"
         style="fill:#6d819a;fill-opacity:1;stroke:none;stroke-width:0;stroke-linejoin:round;stroke-dasharray:none"
         d="m -513.03605,199.20354 v 26.57823 c 0,13.41878 10.803,24.22177 24.22178,24.22177 h 26.57823 v -50.8 z" /><path
         id="path2299"
         style="fill:#62647e;fill-opacity:1;stroke:none;stroke-width:0;stroke-linejoin:round;stroke-dasharray:none"
         d="m -411.43604,199.20354 v 26.57823 c 0,13.41878 -10.80299,24.22177 -24.22178,24.22177 h -26.57822 v -50.8 z" /><path
         id="path2301"
         style="fill:#788aa3;fill-opacity:1;stroke:none;stroke-width:0;stroke-linejoin:round;stroke-dasharray:none"
         d="m -513.03605,199.20354 v 24.36338 c 0,12.30055 9.90275,22.20329 22.20329,22.20329 h 24.36338 v -46.56667 z" /><path
         id="path2303"
         style="fill:#666a86;fill-opacity:1;stroke:none;stroke-width:0;stroke-linejoin:round;stroke-dasharray:none"
         d="m -411.43604,199.20354 v 24.36337 c 0,12.30055 -9.90274,22.2033 -22.2033,22.2033 h -24.36337 v -46.56667 z" /><path
         id="path2305"
         style="fill:#e3d3a1;fill-opacity:1;stroke:none;stroke-width:0;stroke-linejoin:round;stroke-dasharray:none"
         d="m -513.03605,199.20354 v -26.57822 c 0,-13.41879 10.803,-24.22178 24.22178,-24.22178 h 26.57823 v 50.8 z" /><path
         id="path2307"
         style="fill:#a6c19f;fill-opacity:1;stroke:none;stroke-width:0;stroke-linejoin:round;stroke-dasharray:none"
         d="m -411.43604,199.20354 v -26.57822 c 0,-13.41879 -10.80299,-24.22178 -24.22178,-24.22178 h -26.57822 v 50.8 z" /><path
         id="path2313"
         style="fill:#e8ddb5;fill-opacity:1;stroke:none;stroke-width:0;stroke-linejoin:round;stroke-dasharray:none"
         d="m -513.03605,194.97021 v -24.36337 c 0,-12.30056 9.90275,-22.2033 22.20329,-22.2033 h 24.36338 v 46.56667 z" /><text
         xml:space="preserve"
         style="font-style:normal;font-variant:normal;font-weight:800;font-stretch:normal;font-size:33.4019px;line-height:1.25;font-family:Cantarell;-inkscape-font-specification:'Cantarell Ultra-Bold';fill:#384646;fill-opacity:1;stroke-width:0.835043"
         x="-486.99286"
         y="187.44827"
         id="text2285-3"
         transform="scale(1.0242939,0.97628229)"><tspan
           id="tspan2283-1"
           style="font-style:normal;font-variant:normal;font-weight:800;font-stretch:normal;font-family:Cantarell;-inkscape-font-specification:'Cantarell Ultra-Bold';fill:#384646;fill-opacity:1;stroke-width:0.835043"
           x="-486.99286"
           y="187.44827"
           sodipodi:role="line">C</tspan></text><path
         d="m -487.6625,234.09205 q -0.78582,0 -1.38245,-0.37836 -0.59664,-0.37835 -0.77126,-1.04775 h -0.40746 q -0.6985,0 -1.22238,-0.52387 -0.52387,-0.52388 -0.52387,-1.22238 v -4.16189 q -1.92087,-1.25148 -3.02683,-3.20146 -1.10596,-1.94998 -1.10596,-4.30742 0,-3.5216 2.4593,-5.9809 2.4593,-2.4593 5.98091,-2.4593 3.5216,0 5.9809,2.4593 2.4593,2.4593 2.4593,5.9809 0,2.35744 -1.10595,4.30742 -1.10596,1.94998 -3.02684,3.20146 v 4.16189 q 0,0.6985 -0.52387,1.22238 -0.52388,0.52387 -1.22238,0.52387 h -0.40746 q -0.17461,0.6694 -0.77126,1.04775 -0.59663,0.37836 -1.38244,0.37836 z m -2.56117,-3.17236 h 5.12233 v -1.28058 h -5.12233 z m 0,-2.44475 h 5.12233 v -1.16416 h -5.12233 z m -0.26194,-2.91041 h 2.15371 v -3.98727 l -2.67758,-2.67759 0.90223,-0.90222 2.44475,2.44475 2.44475,-2.44475 0.90223,0.90222 -2.67759,2.67759 v 3.98727 h 2.15371 q 1.74625,-0.81492 2.80855,-2.53207 1.0623,-1.71714 1.0623,-3.78354 0,-2.8231 -1.93542,-4.75853 -1.93543,-1.93542 -4.75853,-1.93542 -2.82311,0 -4.75853,1.93542 -1.93543,1.93543 -1.93543,4.75853 0,2.0664 1.0623,3.78354 1.0623,1.71715 2.80855,2.53207 z m 2.82311,-5.12233 z m 0,-1.39701 z"
         id="path2319"
         style="fill:#384646;fill-opacity:1;stroke-width:0.0291043" /><path
         id="path2321"
         style="fill:#b2c9ab;fill-opacity:1;stroke:none;stroke-width:0;stroke-linejoin:round;stroke-dasharray:none"
         d="m -411.43604,194.97021 v -24.36337 c 0,-12.30056 -9.90274,-22.2033 -22.2033,-22.2033 h -24.36337 v 46.56667 z" /><path
         d="m -437.1678,175.49952 q 2.02135,0 3.42464,-1.22464 1.40329,-1.22465 1.40329,-2.96636 0,-1.51341 -1.0244,-2.59027 -1.02441,-1.07685 -2.48383,-1.07685 -1.28126,0 -2.19645,0.80036 -0.91519,0.80037 -0.91519,1.93866 0,0.49154 0.19829,0.95721 0.19829,0.46566 0.59487,0.87312 l 1.34228,-1.22237 q -0.15254,-0.10186 -0.2288,-0.25466 -0.0763,-0.15279 -0.0763,-0.32743 0,-0.40745 0.33557,-0.6985 0.33557,-0.29104 0.9457,-0.29104 0.70164,0 1.205,0.53843 0.50335,0.53843 0.50335,1.38245 0,1.02414 -0.85418,1.73446 -0.85417,0.71029 -2.13544,0.71029 -1.5618,0 -2.64178,-1.17872 -1.07999,-1.17872 -1.07999,-2.91283 0,-0.91437 0.35082,-1.72929 0.35083,-0.81491 1.02197,-1.4552 l -1.31177,-1.25148 q -0.91519,0.84402 -1.41855,1.98735 -0.50335,1.14329 -0.50335,2.39818 0,2.45394 1.61708,4.15654 1.61705,1.70259 3.92714,1.70259 z m -7.64915,7.82902 v -5.00591 q -1.73886,-1.51342 -2.69981,-3.53616 -0.96095,-2.02274 -0.96095,-4.26376 0,-4.36562 3.20316,-7.42156 3.20317,-3.05594 7.77911,-3.05594 3.81329,0 6.75715,2.13916 2.94386,2.13915 3.82855,5.57345 l 1.67785,6.34471 q 0.12196,0.40745 -0.15254,0.74215 -0.27456,0.3347 -0.73217,0.3347 h -2.83708 v 4.07458 q 0,0.72033 -0.53767,1.23329 -0.53768,0.51296 -1.29271,0.51296 h -3.05062 v 2.32833 h -1.83038 v -4.07458 h 4.88101 v -5.82083 h 3.47772 l -1.37278,-5.23875 q -0.73216,-2.82311 -3.20317,-4.61301 -2.47101,-1.78991 -5.61316,-1.78991 -3.81329,0 -6.48259,2.51751 -2.6693,2.51751 -2.6693,6.14214 0,1.87481 0.80305,3.56212 0.80308,1.68735 2.27809,2.99971 l 0.57961,0.52387 v 5.79173 z m 7.84012,-10.76854 z"
         id="path2323"
         style="fill:#384646;fill-opacity:1;stroke-width:0.029797" /><text
         xml:space="preserve"
         style="font-style:normal;font-variant:normal;font-weight:800;font-stretch:normal;font-size:32.6876px;line-height:1.25;font-family:Cantarell;-inkscape-font-specification:'Cantarell Ultra-Bold';fill:#384646;fill-opacity:1;stroke-width:0.817194"
         x="-447.5621"
         y="234.36118"
         id="text2392"
         transform="scale(1.0023898,0.9976159)"><tspan
           sodipodi:role="line"
           id="tspan2390"
           style="font-style:normal;font-variant:normal;font-weight:800;font-stretch:normal;font-family:Cantarell;-inkscape-font-specification:'Cantarell Ultra-Bold';fill:#384646;fill-opacity:1;stroke-width:0.817194"
           x="-447.5621"
           y="234.36118">G</tspan></text></g><g
       id="g3333"
       transform="matrix(2.6666659,0,0,2.6666659,355.15679,117.32027)"><path
         id="path2611"
         style="fill:#999999;fill-opacity:1;stroke:none;stroke-width:0;stroke-linejoin:round;stroke-dasharray:none"
         d="m 41.0342,16.93333 c -13.40587,0 -24.19851,10.80301 -24.19851,24.22178 v 53.15644 c 0,13.41878 10.79264,24.22178 24.19851,24.22178 h 27.08136 26.12161 c 13.40588,0 24.19852,-10.80301 24.19852,-24.22178 V 41.15511 c 0,-13.41877 -10.79264,-24.22178 -24.19852,-24.22178 H 68.21313 Z" /><path
         id="path2613"
         style="fill:#6d819a;fill-opacity:1;stroke:none;stroke-width:0;stroke-linejoin:round;stroke-dasharray:none"
         d="m 16.83566,67.73333 v 26.57823 c 0,13.41878 10.803,24.22177 24.22178,24.22177 h 26.57823 v -50.8 z" /><path
         id="path2615"
         style="fill:#62647e;fill-opacity:1;stroke:none;stroke-width:0;stroke-linejoin:round;stroke-dasharray:none"
         d="m 118.43567,67.73333 v 26.57823 c 0,13.41878 -10.80299,24.22177 -24.22178,24.22177 H 67.63567 v -50.8 z" /><path
         id="path2617"
         style="fill:#788aa3;fill-opacity:1;stroke:none;stroke-width:0;stroke-linejoin:round;stroke-dasharray:none"
         d="m 16.83566,67.73333 v 24.36338 c 0,12.30055 9.90275,22.20329 22.20329,22.20329 H 63.40233 V 67.73333 Z" /><path
         id="path2619"
         style="fill:#666a86;fill-opacity:1;stroke:none;stroke-width:0;stroke-linejoin:round;stroke-dasharray:none"
         d="M 118.43567,67.73333 V 92.0967 c 0,12.30055 -9.90274,22.2033 -22.2033,22.2033 H 71.869 V 67.73333 Z" /><path
         id="path2621"
         style="fill:#e3d3a1;fill-opacity:1;stroke:none;stroke-width:0;stroke-linejoin:round;stroke-dasharray:none"
         d="M 16.83566,67.73333 V 41.15511 c 0,-13.41879 10.803,-24.22178 24.22178,-24.22178 h 26.57823 v 50.8 z" /><path
         id="path2623"
         style="fill:#a6c19f;fill-opacity:1;stroke:none;stroke-width:0;stroke-linejoin:round;stroke-dasharray:none"
         d="M 118.43567,67.73333 V 41.15511 c 0,-13.41879 -10.80299,-24.22178 -24.22178,-24.22178 H 67.63567 v 50.8 z" /><path
         id="path2625"
         style="fill:#e8ddb5;fill-opacity:1;stroke:none;stroke-width:0;stroke-linejoin:round;stroke-dasharray:none"
         d="M 16.83566,63.5 V 39.13663 c 0,-12.30056 9.90275,-22.2033 22.20329,-22.2033 H 63.40233 V 63.5 Z" /><g
         aria-label="C"
         transform="matrix(1.0242939,0,0,0.97628229,696.03052,-131.47021)"
         id="text2629"
         style="font-weight:800;font-size:33.4019px;line-height:1.25;font-family:Cantarell;-inkscape-font-specification:'Cantarell Ultra-Bold';fill:#303b3b;fill-opacity:1;stroke-width:0.835043"><path
           d="m -636.05041,187.78229 c 2.50515,0 5.37771,-0.66804 7.14801,-1.63669 l -1.26927,-4.17524 c -1.33608,0.46763 -3.03957,0.73484 -4.47586,0.73484 -4.64286,0 -7.31501,-2.73895 -7.31501,-7.24821 0,-4.24204 2.37153,-6.41316 6.58017,-6.41316 1.80371,0 3.90803,0.33401 5.1773,0.86844 l 1.60329,-4.54265 c -2.23793,-0.96866 -4.40905,-1.43629 -6.71378,-1.43629 -7.44863,0 -12.65932,4.80988 -12.65932,12.09149 0,7.0478 4.87667,11.75747 11.92447,11.75747 z"
           id="path2661"
           style="fill:#303b3b;fill-opacity:1" /></g><path
         d="m 42.20921,102.62184 q -0.78582,0 -1.38245,-0.37836 -0.59664,-0.37835 -0.77126,-1.04775 h -0.40746 q -0.6985,0 -1.22238,-0.52387 -0.52387,-0.52388 -0.52387,-1.22238 V 95.28759 Q 35.98092,94.03611 34.87496,92.08613 33.769,90.13615 33.769,87.77871 q 0,-3.5216 2.4593,-5.9809 2.4593,-2.4593 5.98091,-2.4593 3.5216,0 5.9809,2.4593 2.4593,2.4593 2.4593,5.9809 0,2.35744 -1.10595,4.30742 -1.10596,1.94998 -3.02684,3.20146 v 4.16189 q 0,0.6985 -0.52387,1.22238 -0.52388,0.52387 -1.22238,0.52387 h -0.40746 q -0.17461,0.6694 -0.77126,1.04775 -0.59663,0.37836 -1.38244,0.37836 z m -2.56117,-3.17236 h 5.12233 V 98.1689 h -5.12233 z m 0,-2.44475 h 5.12233 V 95.84057 H 39.64804 Z M 39.3861,94.09432 h 2.15371 v -3.98727 l -2.67758,-2.67759 0.90223,-0.90222 2.44475,2.44475 2.44475,-2.44475 0.90223,0.90222 -2.67759,2.67759 v 3.98727 h 2.15371 q 1.74625,-0.81492 2.80855,-2.53207 1.0623,-1.71714 1.0623,-3.78354 0,-2.8231 -1.93542,-4.75853 -1.93543,-1.93542 -4.75853,-1.93542 -2.82311,0 -4.75853,1.93542 -1.93543,1.93543 -1.93543,4.75853 0,2.0664 1.0623,3.78354 1.0623,1.71715 2.80855,2.53207 z m 2.82311,-5.12233 z m 0,-1.39701 z"
         id="path2631"
         style="fill:#303b3b;fill-opacity:1;stroke-width:0.0291043" /><path
         id="path2633"
         style="fill:#b2c9ab;fill-opacity:1;stroke:none;stroke-width:0;stroke-linejoin:round;stroke-dasharray:none"
         d="M 118.43567,63.5 V 39.13663 c 0,-12.30056 -9.90274,-22.2033 -22.2033,-22.2033 H 71.869 V 63.5 Z" /><path
         d="m 92.70391,44.02931 q 2.02135,0 3.42464,-1.22464 1.40329,-1.22465 1.40329,-2.96636 0,-1.51341 -1.0244,-2.59027 -1.02441,-1.07685 -2.48383,-1.07685 -1.28126,0 -2.19645,0.80036 -0.91519,0.80037 -0.91519,1.93866 0,0.49154 0.19829,0.95721 0.19829,0.46566 0.59487,0.87312 l 1.34228,-1.22237 q -0.15254,-0.10186 -0.2288,-0.25466 -0.0763,-0.15279 -0.0763,-0.32743 0,-0.40745 0.33557,-0.6985 0.33557,-0.29104 0.9457,-0.29104 0.70164,0 1.205,0.53843 0.50335,0.53843 0.50335,1.38245 0,1.02414 -0.85418,1.73446 -0.85417,0.71029 -2.13544,0.71029 -1.5618,0 -2.64178,-1.17872 -1.07999,-1.17872 -1.07999,-2.91283 0,-0.91437 0.35082,-1.72929 0.35083,-0.81491 1.02197,-1.4552 l -1.31177,-1.25148 q -0.91519,0.84402 -1.41855,1.98735 -0.50335,1.14329 -0.50335,2.39818 0,2.45394 1.61708,4.15654 1.61705,1.70259 3.92714,1.70259 z m -7.64915,7.82902 V 46.85242 Q 83.3159,45.339 82.35495,43.31626 81.394,41.29352 81.394,39.0525 q 0,-4.36562 3.20316,-7.42156 3.20317,-3.05594 7.77911,-3.05594 3.81329,0 6.75715,2.13916 2.94386,2.13915 3.82855,5.57345 l 1.67785,6.34471 q 0.12196,0.40745 -0.15254,0.74215 -0.27456,0.3347 -0.73217,0.3347 h -2.83708 v 4.07458 q 0,0.72033 -0.53767,1.23329 Q 99.84268,49.53 99.08765,49.53 h -3.05062 v 2.32833 h -1.83038 v -4.07458 h 4.88101 v -5.82083 h 3.47772 l -1.37278,-5.23875 q -0.73216,-2.82311 -3.20317,-4.61301 -2.47101,-1.78991 -5.61316,-1.78991 -3.81329,0 -6.48259,2.51751 -2.6693,2.51751 -2.6693,6.14214 0,1.87481 0.80305,3.56212 0.80308,1.68735 2.27809,2.99971 l 0.57961,0.52387 v 5.79173 z m 7.84012,-10.76854 z"
         id="path2635"
         style="fill:#303b3b;fill-opacity:1;stroke-width:0.029797" /><g
         aria-label="G"
         transform="matrix(1.0023898,0,0,0.9976159,696.03052,-131.47021)"
         id="text2639"
         style="font-weight:800;font-size:32.6876px;line-height:1.25;font-family:Cantarell;-inkscape-font-specification:'Cantarell Ultra-Bold';fill:#303b3b;fill-opacity:1;stroke-width:0.817194"><path
           d="m -600.21704,234.68805 c 3.59564,0 6.66827,-1.07869 9.2179,-3.23607 v -10.52541 h -10.19853 v 4.77239 h 4.80508 v 6.0799 l 0.84988,-3.30145 c -0.75182,0.81719 -2.19007,1.3075 -3.98789,1.3075 -4.08595,0 -6.63558,-2.64769 -6.63558,-6.96246 0,-4.2167 2.45157,-6.47214 7.06052,-6.47214 1.92857,0 4.18401,0.35956 5.68764,0.88256 l 1.569,-4.44551 c -1.92856,-0.91525 -4.51088,-1.43825 -7.0932,-1.43825 -8.04115,0 -13.17311,4.83776 -13.17311,11.93097 0,6.83171 4.77239,11.40797 11.89829,11.40797 z"
           id="path2658"
           style="fill:#303b3b;fill-opacity:1" /></g></g><g
       id="g1250"><circle
         style="fill:#999999;fill-opacity:1;stroke:none;stroke-width:0;stroke-linejoin:round;stroke-dasharray:none"
         id="circle3015"
         cx="181.85133"
         cy="297.9425"
         r="135.46652" /><path
         id="circle3017"
         style="fill:#e3d3a1;fill-opacity:1;stroke:none;stroke-width:0;stroke-linejoin:round;stroke-dasharray:none"
         d="M 181.85161,162.47583 A 135.46652,135.46652 0 0 0 46.385087,297.94235 H 181.85161 Z" /><path
         id="path3094"
         style="fill:#a6c19f;fill-opacity:1;stroke:none;stroke-width:0;stroke-linejoin:round;stroke-dasharray:none"
         d="M 181.85161,162.47583 A 135.46652,135.46652 0 0 1 317.31814,297.94235 H 181.85161 Z" /><path
         id="path3096"
         style="fill:#6d819a;fill-opacity:1;stroke:none;stroke-width:0;stroke-linejoin:round;stroke-dasharray:none"
         d="M 181.85161,433.40888 A 135.46652,135.46653 0 0 1 46.385087,297.94235 H 181.85161 Z" /><path
         id="path3098"
         style="fill:#62647e;fill-opacity:1;stroke:none;stroke-width:0;stroke-linejoin:round;stroke-dasharray:none"
         d="M 181.85161,433.40888 A 135.46652,135.46653 0 0 0 317.31814,297.94235 H 181.85161 Z" /><path
         id="path3120"
         style="fill:#b2c9ab;fill-opacity:1;stroke:none;stroke-width:0;stroke-linejoin:round;stroke-dasharray:none"
         d="M 193.1407 162.95539 L 193.1407 286.65326 L 316.83858 286.65326 A 135.46666 135.46666 0 0 0 193.1407 162.95539 z " /><path
         id="path3122"
         style="fill:#e8ddb5;fill-opacity:1;stroke:none;stroke-width:0;stroke-linejoin:round;stroke-dasharray:none"
         d="M 170.56275 162.98588 A 135.46666 135.46666 0 0 0 46.895366 286.65326 L 170.56275 286.65326 L 170.56275 162.98588 z " /><g
         aria-label="C"
         transform="matrix(2.3279399,0,0,2.2188226,1611.2004,-146.73868)"
         id="text2629-6"
         style="font-weight:800;font-size:33.4019px;line-height:1.25;font-family:Cantarell;-inkscape-font-specification:'Cantarell Ultra-Bold';fill:#303b3b;fill-opacity:1;stroke-width:0.835043"><path
           d="m -636.05041,187.78229 c 2.50515,0 5.37771,-0.66804 7.14801,-1.63669 l -1.26927,-4.17524 c -1.33608,0.46763 -3.03957,0.73484 -4.47586,0.73484 -4.64286,0 -7.31501,-2.73895 -7.31501,-7.24821 0,-4.24204 2.37153,-6.41316 6.58017,-6.41316 1.80371,0 3.90803,0.33401 5.1773,0.86844 l 1.60329,-4.54265 c -2.23793,-0.96866 -4.40905,-1.43629 -6.71378,-1.43629 -7.44863,0 -12.65932,4.80988 -12.65932,12.09149 0,7.0478 4.87667,11.75747 11.92447,11.75747 z"
           id="path2661-1"
           style="fill:#303b3b;fill-opacity:1" /></g><path
         id="path487"
         style="fill:#788aa3;fill-opacity:1;stroke:none;stroke-width:0;stroke-linejoin:round;stroke-dasharray:none"
         d="M 170.56275,421.60966 A 135.46666,135.46659 0 0 1 46.895366,297.94235 H 170.56275 Z" /><path
         d="m 125.05761,378.80627 q -1.78595,0 -3.14193,-0.85992 -1.356,-0.85989 -1.75286,-2.38125 h -0.92605 q -1.5875,0 -2.77813,-1.19061 -1.19061,-1.19064 -1.19061,-2.77813 v -9.45882 q -4.36561,-2.84429 -6.87916,-7.27607 -2.51354,-4.43176 -2.51354,-9.78956 0,-8.00362 5.58931,-13.59295 5.58932,-5.5893 13.59297,-5.5893 8.00363,0 13.59294,5.5893 5.58932,5.58933 5.58932,13.59295 0,5.3578 -2.51352,9.78956 -2.51355,4.43178 -6.87918,7.27607 v 9.45882 q 0,1.58749 -1.19061,2.77813 -1.19064,1.19061 -2.77814,1.19061 h -0.92604 q -0.39684,1.52136 -1.75286,2.38125 -1.35598,0.85992 -3.14191,0.85992 z m -5.82084,-7.20991 h 11.64165 v -2.9104 h -11.64165 z m 0,-5.55626 h 11.64165 v -2.64579 h -11.64165 z m -0.59532,-6.61453 h 4.8948 v -9.06196 l -6.08541,-6.08546 2.05052,-2.05051 5.55625,5.55626 5.55624,-5.55626 2.05053,2.05051 -6.08543,6.08546 v 9.06196 h 4.89479 q 3.96875,-1.85213 6.38306,-5.75471 2.41432,-3.90261 2.41432,-8.59895 0,-6.41613 -4.39868,-10.81485 -4.3987,-4.39866 -10.81483,-4.39866 -6.41616,0 -10.81483,4.39866 -4.3987,4.39872 -4.3987,10.81485 0,4.69634 2.41431,8.59895 2.41432,3.90258 6.38306,5.75471 z m 6.41616,-11.64167 z m 0,-3.17501 z"
         id="path2631-0"
         style="fill:#303b3b;fill-opacity:1;stroke-width:0.0661461" /><path
         d="m 233.73677,252.12371 q 4.59397,0 7.78327,-2.78325 3.18929,-2.78331 3.18929,-6.74173 0,-3.43954 -2.32818,-5.88698 -2.3282,-2.44736 -5.64506,-2.44736 -2.91196,0 -4.99193,1.81899 -2.07998,1.81904 -2.07998,4.40602 0,1.11715 0.45066,2.17549 0.45066,1.05832 1.35198,1.98437 l 3.05063,-2.7781 q -0.34668,-0.23147 -0.52,-0.5788 -0.17338,-0.34723 -0.17338,-0.74416 0,-0.92602 0.76265,-1.58746 0.76266,-0.66147 2.14932,-0.66147 1.59463,0 2.73864,1.22368 1.14397,1.2237 1.14397,3.14194 0,2.32757 -1.94131,3.94197 -1.9413,1.61429 -4.85327,1.61429 -3.54955,0 -6.00405,-2.6789 -2.45452,-2.67893 -2.45452,-6.6201 0,-2.07808 0.79732,-3.93018 0.79734,-1.85208 2.32266,-3.30728 l -2.98129,-2.84426 q -2.07998,1.91821 -3.22398,4.51669 -1.14397,2.59839 -1.14397,5.45042 0,5.57714 3.67517,9.44668 3.67511,3.86949 8.92531,3.86949 z m -17.38442,17.79323 v -11.37705 q -3.95195,-3.4396 -6.13593,-8.03674 -2.18397,-4.59711 -2.18397,-9.69034 0,-9.92185 7.2799,-16.86718 7.27993,-6.9453 17.67979,-6.9453 8.66655,0 15.35713,4.8617 6.69059,4.86173 8.70125,12.66692 l 3.81329,14.4198 q 0.27717,0.92603 -0.34668,1.68672 -0.624,0.76067 -1.66402,0.76067 h -6.44791 v 9.26041 q 0,1.6371 -1.22197,2.80291 -1.22201,1.16584 -2.93798,1.16584 h -6.93321 v 5.29164 h -4.15995 v -9.26039 h 11.09318 v -13.22918 h 7.90391 l -3.11996,-11.9062 q -1.66399,-6.41618 -7.27991,-10.48413 -5.61593,-4.06797 -12.75717,-4.06797 -8.66657,0 -14.73315,5.7216 -6.06659,5.72162 -6.06659,13.9594 0,4.26095 1.82512,8.09572 1.82517,3.83488 5.17747,6.81754 l 1.31729,1.19059 v 13.16302 z M 234.17079,245.443 Z"
         id="path2635-3"
         style="fill:#303b3b;fill-opacity:1;stroke-width:0.0677202" /><path
         id="path1100"
         style="fill:#666a86;fill-opacity:1;stroke:none;stroke-width:0;stroke-linejoin:round;stroke-dasharray:none"
         d="m 193.1407,421.64035 v -123.698 h 123.69788 a 135.46666,135.46681 0 0 1 -123.69788,123.698 z" /><g
         aria-label="G"
         transform="matrix(2.2781598,0,0,2.26731,1604.7992,-153.226)"
         id="text2639-2"
         style="font-weight:800;font-size:32.6876px;line-height:1.25;font-family:Cantarell;-inkscape-font-specification:'Cantarell Ultra-Bold';fill:#303b3b;fill-opacity:1;stroke-width:0.817194"><path
           d="m -600.21704,234.68805 c 3.59564,0 6.66827,-1.07869 9.2179,-3.23607 v -10.52541 h -10.19853 v 4.77239 h 4.80508 v 6.0799 l 0.84988,-3.30145 c -0.75182,0.81719 -2.19007,1.3075 -3.98789,1.3075 -4.08595,0 -6.63558,-2.64769 -6.63558,-6.96246 0,-4.2167 2.45157,-6.47214 7.06052,-6.47214 1.92857,0 4.18401,0.35956 5.68764,0.88256 l 1.569,-4.44551 c -1.92856,-0.91525 -4.51088,-1.43825 -7.0932,-1.43825 -8.04115,0 -13.17311,4.83776 -13.17311,11.93097 0,6.83171 4.77239,11.40797 11.89829,11.40797 z"
           id="path2658-0"
           style="fill:#303b3b;fill-opacity:1" /></g></g></g></svg>
