<svg width="512" height="512" viewBox="0 0 512 512" fill="none" xmlns="http://www.w3.org/2000/svg">
<g clip-path="url(#clip0_346_13)">
<rect x="-29" y="-18" width="620" height="587" fill="#91B888"/>
<rect x="25.6" y="25.6" width="460.8" height="460.8" rx="104.4" fill="#ACC8A4" stroke="#91B888" stroke-width="51.2"/>
<path d="M264.133 373.068C294.732 373.068 320.653 363.417 341.896 344.116C363.139 324.815 373.76 301.277 373.76 273.502C373.76 249.366 366.072 228.754 350.695 211.667C335.318 194.58 316.514 186.037 294.284 186.037C274.765 186.037 258.078 192.387 244.224 205.086C230.37 217.786 223.443 233.167 223.443 251.228C223.443 259.289 224.959 267.142 227.99 274.788C231.023 282.433 235.51 289.13 241.453 294.876C246.794 299.9 252.353 302.049 258.129 301.323C263.906 300.598 268.6 298.222 272.211 294.195C275.821 290.168 277.832 285.482 278.243 280.136C278.654 274.791 276.55 269.978 271.932 265.698C269.623 263.65 267.891 261.548 266.737 259.392C265.582 257.235 265.005 254.719 265.005 251.844C265.005 245.64 267.61 240.163 272.821 235.415C278.031 230.666 285.124 228.292 294.099 228.292C304.72 228.292 313.841 232.629 321.461 241.303C329.08 249.977 332.89 260.879 332.89 274.011C332.89 290.261 326.49 304.022 313.691 315.292C300.89 326.563 284.662 332.198 265.005 332.198C241.624 332.198 221.693 322.846 205.214 304.143C188.735 285.44 180.495 262.235 180.495 234.526C180.495 223.898 181.996 213.55 184.998 203.481C187.999 193.413 192.502 183.904 198.505 174.954C201.738 170.135 203.239 164.889 203.008 159.217C202.777 153.545 200.584 148.631 196.427 144.475C192.271 140.318 187.422 138.24 181.88 138.24C176.339 138.24 171.721 140.549 168.026 145.167C158.328 157.636 150.94 171.49 145.86 186.73C140.78 201.969 138.24 217.671 138.24 233.834C138.24 272.547 150.48 305.431 174.959 332.485C199.438 359.54 229.162 373.068 264.133 373.068Z" fill="#1C1B1F"/>
</g>
<defs>
<clipPath id="clip0_346_13">
<rect width="512" height="512" fill="white"/>
</clipPath>
</defs>
</svg>
