<?xml version="1.0" encoding="UTF-8"?>
<svg width="367.52" height="148.03" fill="none" version="1.1" viewBox="0 0 367.52 148.03" xmlns="http://www.w3.org/2000/svg">
 <mask id="path-4-outside-1_313_742" x="13.0001" y="18.5762" width="368" height="149" fill="#000000" maskUnits="userSpaceOnUse">
  <rect x="13" y="18.576" width="368" height="149" fill="#fff"/>
  <path d="m28 60.12c0-3.92 0.784-7.4107 2.352-10.472 1.6053-3.0614 3.8826-5.432 6.832-7.112 2.9493-1.7174 6.4213-2.576 10.416-2.576 3.4346 0 6.496 0.6533 9.184 1.96 2.7253 1.2693 4.928 3.08 6.608 5.432 1.7173 2.352 2.856 5.096 3.416 8.232h-13.104c-0.5974-1.3067-1.456-2.3147-2.576-3.024-1.0827-0.7467-2.3334-1.12-3.752-1.12-2.0907 0-3.752 0.784-4.984 2.352-1.1947 1.568-1.792 3.6773-1.792 6.328 0 2.6506 0.5973 4.76 1.792 6.328 1.232 1.568 2.8933 2.352 4.984 2.352 1.4186 0 2.6693-0.3547 3.752-1.064 1.12-0.7467 1.9786-1.7734 2.576-3.08h13.104c-0.56 3.136-1.6987 5.88-3.416 8.232-1.68 2.352-3.8827 4.1813-6.608 5.488-2.688 1.2693-5.7494 1.904-9.184 1.904-3.9947 0-7.4667-0.84-10.416-2.52-2.9494-1.7174-5.2267-4.1067-6.832-7.168-1.568-3.0614-2.352-6.552-2.352-10.472zm133.03-11.928c4.032 0 7.15 1.2133 9.352 3.64 2.24 2.4266 3.36 5.712 3.36 9.856v18.312h-12.376v-16.744c0-1.344-0.41-2.3894-1.232-3.136-0.784-0.784-1.848-1.176-3.192-1.176-1.381 0-2.464 0.392-3.248 1.176-0.784 0.7466-1.176 1.792-1.176 3.136v16.744h-12.376v-16.744c0-1.344-0.41-2.3894-1.232-3.136-0.784-0.784-1.848-1.176-3.192-1.176-1.381 0-2.464 0.392-3.248 1.176-0.784 0.7466-1.176 1.792-1.176 3.136v16.744h-12.432v-31.584h12.432v4.256c0.896-1.344 2.11-2.4267 3.64-3.248 1.568-0.8214 3.398-1.232 5.488-1.232 2.278 0 4.294 0.504 6.048 1.512 1.755 0.9706 3.155 2.352 4.2 4.144 1.158-1.6427 2.632-2.9867 4.424-4.032 1.792-1.0827 3.771-1.624 5.936-1.624zm30.53 4.536c0.784-1.456 1.904-2.5947 3.36-3.416 1.493-0.8587 3.267-1.288 5.32-1.288 2.464 0 4.685 0.6533 6.664 1.96 1.979 1.2693 3.528 3.136 4.648 5.6 1.157 2.4266 1.736 5.3013 1.736 8.624 0 3.3226-0.579 6.216-1.736 8.68-1.12 2.4266-2.669 4.2933-4.648 5.6-1.979 1.2693-4.2 1.904-6.664 1.904-2.053 0-3.827-0.4107-5.32-1.232-1.456-0.8587-2.576-2.016-3.36-3.472v19.432h-12.432v-46.704h12.432zm9.128 11.48c0-1.68-0.429-2.9867-1.288-3.92-0.859-0.9334-1.96-1.4-3.304-1.4s-2.445 0.4666-3.304 1.4c-0.859 0.9333-1.288 2.24-1.288 3.92s0.429 2.9866 1.288 3.92c0.859 0.9333 1.96 1.4 3.304 1.4s2.445-0.4667 3.304-1.4c0.859-0.9334 1.288-2.24 1.288-3.92zm28.934-25.648v41.44h-12.432v-41.44zm11.887 7.336c-2.165 0-3.901-0.5787-5.208-1.736-1.306-1.1574-1.96-2.6134-1.96-4.368 0-1.792 0.654-3.2667 1.96-4.424 1.307-1.1947 3.043-1.792 5.208-1.792 2.128 0 3.846 0.5973 5.152 1.792 1.307 1.1573 1.96 2.632 1.96 4.424 0 1.7546-0.653 3.2106-1.96 4.368-1.306 1.1573-3.024 1.736-5.152 1.736zm6.16 34.104h-12.432v-31.584h12.432zm3.935-15.792c0-3.2854 0.672-6.1414 2.016-8.568 1.381-2.464 3.285-4.3494 5.712-5.656 2.464-1.3067 5.264-1.96 8.4-1.96 4.107 0 7.56 1.1573 10.36 3.472 2.837 2.3146 4.629 5.5253 5.376 9.632h-13.16c-0.485-1.6427-1.437-2.464-2.856-2.464-1.008 0-1.811 0.4666-2.408 1.4-0.56 0.9333-0.84 2.3146-0.84 4.144 0 1.8293 0.28 3.2106 0.84 4.144 0.597 0.9333 1.4 1.4 2.408 1.4 1.419 0 2.371-0.8214 2.856-2.464h13.16c-0.747 4.1066-2.539 7.3173-5.376 9.632-2.8 2.3146-6.253 3.472-10.36 3.472-3.136 0-5.936-0.6534-8.4-1.96-2.427-1.3067-4.331-3.1734-5.712-5.6-1.344-2.464-2.016-5.3387-2.016-8.624zm42.077-18.312c-2.165 0-3.901-0.5787-5.208-1.736-1.307-1.1574-1.96-2.6134-1.96-4.368 0-1.792 0.653-3.2667 1.96-4.424 1.307-1.1947 3.043-1.792 5.208-1.792 2.128 0 3.845 0.5973 5.152 1.792 1.307 1.1573 1.96 2.632 1.96 4.424 0 1.7546-0.653 3.2106-1.96 4.368-1.307 1.1573-3.024 1.736-5.152 1.736zm6.16 34.104h-12.432v-31.584h12.432zm25.271-10.584v10.584h-4.704c-8.661 0-12.992-4.312-12.992-12.936v-8.288h-3.92v-10.36h3.92v-7.616h12.432v7.616h5.152v10.36h-5.152v8.512c0 0.7466 0.168 1.288 0.504 1.624 0.373 0.336 0.971 0.504 1.792 0.504zm40.407-21-20.216 46.704h-13.608l7.952-16.688-13.16-30.016h13.832l5.936 16.016 5.544-16.016zm-82.834 102.6c-1.338-0.546-2.415-1.361-3.233-2.445-0.817-1.084-1.314-2.292-1.49-3.624-1.698-0.693-2.904-1.891-3.619-3.593s-0.726-3.402-0.033-5.099l4.473-10.956c-2.216-3.245-3.564-6.886-4.046-10.923s0.065-7.985 1.64-11.842c2.541-6.2235 6.872-10.621 12.992-13.193 6.121-2.5715 12.293-2.5868 18.516-0.0457 6.224 2.5411 10.621 6.872 13.193 12.992 2.572 6.121 2.587 12.293 0.046 18.517-1.617 3.96-4 7.187-7.149 9.682s-6.65 4.126-10.504 4.893l-4.473 10.955c-0.693 1.697-1.891 2.904-3.593 3.619s-3.402 0.726-5.099 0.033c-1.059 0.828-2.259 1.343-3.602 1.545-1.342 0.202-2.682 0.03-4.019-0.516zm-2.203-12.241 12.344 5.04 1.134-2.777-12.344-5.041zm2.394-5.864 12.344 5.041 1.197-2.932-12.344-5.04zm3.1-9.355 4.474 1.827 3.403-8.333-4.018-9.561 4.564-1.917 3.469 8.257 8.258-3.469 1.917 4.563-9.561 4.018-3.403 8.332 4.475 1.827c3.324-0.203 6.39-1.247 9.199-3.13s4.876-4.445 6.199-7.686c1.848-4.526 1.844-8.998-0.013-13.416-1.856-4.419-5.047-7.5522-9.574-9.4003-4.526-1.8481-8.998-1.8439-13.417 0.0125-4.418 1.8564-7.551 5.0478-9.399 9.5738-1.323 3.24-1.641 6.516-0.953 9.828 0.689 3.311 2.148 6.202 4.38 8.674zm-165.48-16.603c-1.139 2.417-1.722 5.288-1.749 8.61-0.027 3.323 0.51 6.22 1.61 8.693 1.138 2.436 2.691 4.315 4.659 5.638 1.968 1.285 4.184 1.938 6.648 1.957 2.054 0.017 3.83-0.379 5.33-1.189 1.5-0.846 2.648-1.995 3.444-3.444l-0.035 4.312 12.376 0.099 0.254-31.583-12.376-0.0993-0.035 4.3123c-0.772-1.463-1.901-2.61-3.388-3.444-1.486-0.8704-3.256-1.314-5.309-1.3305-2.464-0.0198-4.691 0.6155-6.68 1.9065-1.989 1.253-3.572 3.107-4.749 5.562zm18.778 4.855c0.851 0.94 1.27 2.25 1.256 3.93-0.013 1.68-0.453 2.983-1.319 3.91-0.866 0.926-1.972 1.384-3.315 1.373-1.344-0.011-2.442-0.486-3.293-1.426-0.851-0.941-1.27-2.251-1.257-3.931 0.014-1.68 0.454-2.983 1.32-3.909 0.866-0.927 1.971-1.384 3.315-1.374 1.344 0.011 2.442 0.487 3.293 1.427zm70.832-7.887c-2.183-2.444-5.291-3.683-9.323-3.715-2.165-0.017-4.148 0.508-5.948 1.576-1.801 1.031-3.286 2.363-4.457 3.997-1.031-1.801-2.419-3.193-4.166-4.178-1.747-1.022-3.759-1.542-6.036-1.561-2.09-0.016-3.923 0.38-5.498 1.188-1.537 0.809-2.759 1.882-3.666 3.219l0.035-4.256-12.432-0.1-0.254 31.583 12.432 0.1 0.134-16.743c0.011-1.344 0.412-2.387 1.201-3.127 0.791-0.778 1.877-1.161 3.258-1.15 1.344 0.011 2.405 0.412 3.182 1.202 0.816 0.753 1.218 1.802 1.207 3.146l-0.135 16.743 12.376 0.1 0.135-16.744c0.01-1.344 0.411-2.386 1.201-3.126 0.79-0.778 1.876-1.161 3.257-1.15 1.344 0.011 2.405 0.411 3.183 1.201 0.815 0.754 1.217 1.802 1.206 3.146l-0.134 16.744 12.375 0.099 0.148-18.311c0.033-4.144-1.061-7.438-3.281-9.883zm39.035 14.874c0.119-0.783 0.181-1.604 0.188-2.462 0.026-3.248-0.642-6.072-2.004-8.473-1.325-2.4-3.214-4.244-5.668-5.533-2.416-1.326-5.192-2.002-8.328-2.027-3.136-0.026-5.941 0.605-8.415 1.892-2.437 1.287-4.356 3.157-5.757 5.61-1.364 2.416-2.059 5.266-2.085 8.552-0.027 3.285 0.622 6.165 1.946 8.639 1.362 2.438 3.251 4.32 5.667 5.646 2.454 1.327 5.248 2.002 8.384 2.028 2.613 0.021 5.007-0.464 7.18-1.455 2.211-1.027 4.033-2.413 5.466-4.156 1.47-1.78 2.438-3.788 2.904-6.025l-13.159-0.106c-0.608 1.228-1.583 1.836-2.927 1.825-2.091-0.017-3.218-1.389-3.383-4.115zm-13.377-7.891c0.668 0.528 0.998 1.314 0.989 2.36l-7.391-0.06c0.39-2.125 1.686-3.178 3.889-3.161 1.008 8e-3 1.846 0.295 2.513 0.861zm-154.83-67.016c4.8517-2.6685 10.112-3.3132 15.78-1.9342 6.4782 1.576 11.379 5.3988 14.706 11.468 3.326 6.0695 4.124 12.657 2.395 19.763-0.884 3.6339-2.417 6.9388-4.599 9.9147s-4.873 5.4003-8.073 7.2732l-5.2434-8.5887c2.0123-1.221 3.7242-2.7931 5.1354-4.7163 1.411-1.9233 2.402-4.0558 2.972-6.3976 1.08-4.4413 0.678-8.5164-1.207-12.225-1.885-3.7089-4.7301-6.0262-8.5358-6.9522-2.9959-0.7289-5.7375-0.4764-8.2247 0.7574-2.4871 1.2338-4.0352 3.1023-4.6443 5.6056-0.4519 1.8573-0.3136 3.5802 0.4148 5.1687 0.7285 1.5886 1.9024 2.5798 3.5219 2.9738 1.1336 0.2758 2.1286 0.2399 2.985-0.1077 0.8565-0.3475 1.3928-0.9655 1.6089-1.8537 0.0786-0.323 0.0866-0.6204 0.0241-0.8922s-0.1956-0.5181-0.3992-0.7387l8.6028-5.2199c0.8389 1.4871 1.3852 3.0313 1.6388 4.6326 0.2537 1.6013 0.1938 3.1691-0.1795 4.7033-0.8644 3.5531-2.9071 6.2208-6.1281 8.0031s-6.7343 2.2105-10.54 1.2846c-4.2105-1.0245-7.4055-3.491-9.5849-7.3998s-2.7091-8.1646-1.5893-12.767c1.2574-5.1681 4.312-9.0864 9.1637-11.755zm9.4518 91.554c5.7521 0.971 10.953-0.048 15.601-3.056 4.649-3.009 7.416-7.135 8.301-12.38 0.788-4.671-0.045-8.878-2.498-12.621s-5.816-5.975-10.089-6.696c-3.8619-0.652-7.3356 0.026-10.421 2.034s-4.9324 4.815-5.5408 8.42c-0.2627 1.558-0.2104 3.126 0.157 4.705s1.0226 3.08 1.9656 4.503l8.208-5.821c-0.2189-0.205-0.3692-0.441-0.451-0.708s-0.095-0.564-0.0397-0.892c0.1521-0.901 0.6429-1.556 1.4723-1.964s1.8193-0.515 2.9696-0.32c1.644 0.277 2.885 1.182 3.725 2.714 0.841 1.533 1.102 3.241 0.783 5.126-0.428 2.54-1.839 4.515-4.231 5.923-2.3932 1.408-5.1097 1.856-8.15 1.343-3.8621-0.652-6.8657-2.76-9.0109-6.324-2.1451-3.565-2.8374-7.601-2.0769-12.108 0.401-2.377 1.2367-4.575 2.507-6.594 1.2703-2.0188 2.8654-3.7092 4.7854-5.0709l-5.8434-8.1921c-3.0582 2.0967-5.5692 4.7072-7.533 7.8314-1.9639 3.1242-3.2569 6.5306-3.8791 10.218-1.2169 7.212 0.0504 13.726 3.8016 19.542s8.9137 9.279 15.487 10.388z" clip-rule="evenodd" fill-rule="evenodd"/>
 </mask>
 <mask id="mask0_313_742" x="243" y="68" width="105" height="105" maskUnits="userSpaceOnUse">
  <rect transform="rotate(22.211 273.24 68)" x="273.24" y="68" width="80" height="80" fill="#e9dcad"/>
 </mask>
 <g transform="translate(-13 -18.576)">
  <g fill="#1c1b1f">
   <rect x="236.13" y="27" width="17" height="16"/>
   <rect x="283.13" y="27" width="18" height="13"/>
   <rect x="240.13" y="74" width="41" height="41"/>
  </g>
  <path d="m28 60.12c0-3.92 0.784-7.4107 2.352-10.472 1.6053-3.0614 3.8826-5.432 6.832-7.112 2.9493-1.7174 6.4213-2.576 10.416-2.576 3.4346 0 6.496 0.6533 9.184 1.96 2.7253 1.2693 4.928 3.08 6.608 5.432 1.7173 2.352 2.856 5.096 3.416 8.232h-13.104c-0.5974-1.3067-1.456-2.3147-2.576-3.024-1.0827-0.7467-2.3334-1.12-3.752-1.12-2.0907 0-3.752 0.784-4.984 2.352-1.1947 1.568-1.792 3.6773-1.792 6.328 0 2.6506 0.5973 4.76 1.792 6.328 1.232 1.568 2.8933 2.352 4.984 2.352 1.4186 0 2.6693-0.3547 3.752-1.064 1.12-0.7467 1.9786-1.7734 2.576-3.08h13.104c-0.56 3.136-1.6987 5.88-3.416 8.232-1.68 2.352-3.8827 4.1813-6.608 5.488-2.688 1.2693-5.7494 1.904-9.184 1.904-3.9947 0-7.4667-0.84-10.416-2.52-2.9494-1.7174-5.2267-4.1067-6.832-7.168-1.568-3.0614-2.352-6.552-2.352-10.472zm133.03-11.928c4.032 0 7.15 1.2133 9.352 3.64 2.24 2.4266 3.36 5.712 3.36 9.856v18.312h-12.376v-16.744c0-1.344-0.41-2.3894-1.232-3.136-0.784-0.784-1.848-1.176-3.192-1.176-1.381 0-2.464 0.392-3.248 1.176-0.784 0.7466-1.176 1.792-1.176 3.136v16.744h-12.376v-16.744c0-1.344-0.41-2.3894-1.232-3.136-0.784-0.784-1.848-1.176-3.192-1.176-1.381 0-2.464 0.392-3.248 1.176-0.784 0.7466-1.176 1.792-1.176 3.136v16.744h-12.432v-31.584h12.432v4.256c0.896-1.344 2.11-2.4267 3.64-3.248 1.568-0.8214 3.398-1.232 5.488-1.232 2.278 0 4.294 0.504 6.048 1.512 1.755 0.9706 3.155 2.352 4.2 4.144 1.158-1.6427 2.632-2.9867 4.424-4.032 1.792-1.0827 3.771-1.624 5.936-1.624zm30.53 4.536c0.784-1.456 1.904-2.5947 3.36-3.416 1.493-0.8587 3.267-1.288 5.32-1.288 2.464 0 4.685 0.6533 6.664 1.96 1.979 1.2693 3.528 3.136 4.648 5.6 1.157 2.4266 1.736 5.3013 1.736 8.624 0 3.3226-0.579 6.216-1.736 8.68-1.12 2.4266-2.669 4.2933-4.648 5.6-1.979 1.2693-4.2 1.904-6.664 1.904-2.053 0-3.827-0.4107-5.32-1.232-1.456-0.8587-2.576-2.016-3.36-3.472v19.432h-12.432v-46.704h12.432zm9.128 11.48c0-1.68-0.429-2.9867-1.288-3.92-0.859-0.9334-1.96-1.4-3.304-1.4s-2.445 0.4666-3.304 1.4c-0.859 0.9333-1.288 2.24-1.288 3.92s0.429 2.9866 1.288 3.92c0.859 0.9333 1.96 1.4 3.304 1.4s2.445-0.4667 3.304-1.4c0.859-0.9334 1.288-2.24 1.288-3.92zm28.934-25.648v41.44h-12.432v-41.44zm11.887 7.336c-2.165 0-3.901-0.5787-5.208-1.736-1.306-1.1574-1.96-2.6134-1.96-4.368 0-1.792 0.654-3.2667 1.96-4.424 1.307-1.1947 3.043-1.792 5.208-1.792 2.128 0 3.846 0.5973 5.152 1.792 1.307 1.1573 1.96 2.632 1.96 4.424 0 1.7546-0.653 3.2106-1.96 4.368-1.306 1.1573-3.024 1.736-5.152 1.736zm6.16 34.104h-12.432v-31.584h12.432zm3.935-15.792c0-3.2854 0.672-6.1414 2.016-8.568 1.381-2.464 3.285-4.3494 5.712-5.656 2.464-1.3067 5.264-1.96 8.4-1.96 4.107 0 7.56 1.1573 10.36 3.472 2.837 2.3146 4.629 5.5253 5.376 9.632h-13.16c-0.485-1.6427-1.437-2.464-2.856-2.464-1.008 0-1.811 0.4666-2.408 1.4-0.56 0.9333-0.84 2.3146-0.84 4.144 0 1.8293 0.28 3.2106 0.84 4.144 0.597 0.9333 1.4 1.4 2.408 1.4 1.419 0 2.371-0.8214 2.856-2.464h13.16c-0.747 4.1066-2.539 7.3173-5.376 9.632-2.8 2.3146-6.253 3.472-10.36 3.472-3.136 0-5.936-0.6534-8.4-1.96-2.427-1.3067-4.331-3.1734-5.712-5.6-1.344-2.464-2.016-5.3387-2.016-8.624zm42.077-18.312c-2.165 0-3.901-0.5787-5.208-1.736-1.307-1.1574-1.96-2.6134-1.96-4.368 0-1.792 0.653-3.2667 1.96-4.424 1.307-1.1947 3.043-1.792 5.208-1.792 2.128 0 3.845 0.5973 5.152 1.792 1.307 1.1573 1.96 2.632 1.96 4.424 0 1.7546-0.653 3.2106-1.96 4.368-1.307 1.1573-3.024 1.736-5.152 1.736zm6.16 34.104h-12.432v-31.584h12.432zm25.271-10.584v10.584h-4.704c-8.661 0-12.992-4.312-12.992-12.936v-8.288h-3.92v-10.36h3.92v-7.616h12.432v7.616h5.152v10.36h-5.152v8.512c0 0.7466 0.168 1.288 0.504 1.624 0.373 0.336 0.971 0.504 1.792 0.504zm40.407-21-20.216 46.704h-13.608l7.952-16.688-13.16-30.016h13.832l5.936 16.016 5.544-16.016zm-82.834 102.6c-1.338-0.546-2.415-1.361-3.233-2.445-0.817-1.084-1.314-2.292-1.49-3.624-1.698-0.693-2.904-1.891-3.619-3.593s-0.726-3.402-0.033-5.099l4.473-10.956c-2.216-3.245-3.564-6.886-4.046-10.923s0.065-7.985 1.64-11.842c2.541-6.2235 6.872-10.621 12.992-13.193 6.121-2.5715 12.293-2.5868 18.516-0.0457 6.224 2.5411 10.621 6.872 13.193 12.992 2.572 6.121 2.587 12.293 0.046 18.517-1.617 3.96-4 7.187-7.149 9.682s-6.65 4.126-10.504 4.893l-4.473 10.955c-0.693 1.697-1.891 2.904-3.593 3.619s-3.402 0.726-5.099 0.033c-1.059 0.828-2.259 1.343-3.602 1.545-1.342 0.202-2.682 0.03-4.019-0.516zm-2.203-12.241 12.344 5.04 1.134-2.777-12.344-5.041zm2.394-5.864 12.344 5.041 1.197-2.932-12.344-5.04zm3.1-9.355 4.474 1.827 3.403-8.333-4.018-9.561 4.564-1.917 3.469 8.257 8.258-3.469 1.917 4.563-9.561 4.018-3.403 8.332 4.475 1.827c3.324-0.203 6.39-1.247 9.199-3.13s4.876-4.445 6.199-7.686c1.848-4.526 1.844-8.998-0.013-13.416-1.856-4.419-5.047-7.5522-9.574-9.4003-4.526-1.8481-8.998-1.8439-13.417 0.0125-4.418 1.8564-7.551 5.0478-9.399 9.5738-1.323 3.24-1.641 6.516-0.953 9.828 0.689 3.311 2.148 6.202 4.38 8.674zm-165.48-16.603c-1.139 2.417-1.722 5.288-1.749 8.61-0.027 3.323 0.51 6.22 1.61 8.693 1.138 2.436 2.691 4.315 4.659 5.638 1.968 1.285 4.184 1.938 6.648 1.957 2.054 0.017 3.83-0.379 5.33-1.189 1.5-0.846 2.648-1.995 3.444-3.444l-0.035 4.312 12.376 0.099 0.254-31.583-12.376-0.0993-0.035 4.3123c-0.772-1.463-1.901-2.61-3.388-3.444-1.486-0.8704-3.256-1.314-5.309-1.3305-2.464-0.0198-4.691 0.6155-6.68 1.9065-1.989 1.253-3.572 3.107-4.749 5.562zm18.778 4.855c0.851 0.94 1.27 2.25 1.256 3.93-0.013 1.68-0.453 2.983-1.319 3.91-0.866 0.926-1.972 1.384-3.315 1.373-1.344-0.011-2.442-0.486-3.293-1.426-0.851-0.941-1.27-2.251-1.257-3.931 0.014-1.68 0.454-2.983 1.32-3.909 0.866-0.927 1.971-1.384 3.315-1.374 1.344 0.011 2.442 0.487 3.293 1.427zm70.832-7.887c-2.183-2.444-5.291-3.683-9.323-3.715-2.165-0.017-4.148 0.508-5.948 1.576-1.801 1.031-3.286 2.363-4.457 3.997-1.031-1.801-2.419-3.193-4.166-4.178-1.747-1.022-3.759-1.542-6.036-1.561-2.09-0.016-3.923 0.38-5.498 1.188-1.537 0.809-2.759 1.882-3.666 3.219l0.035-4.256-12.432-0.1-0.254 31.583 12.432 0.1 0.134-16.743c0.011-1.344 0.412-2.387 1.201-3.127 0.791-0.778 1.877-1.161 3.258-1.15 1.344 0.011 2.405 0.412 3.182 1.202 0.816 0.753 1.218 1.802 1.207 3.146l-0.135 16.743 12.376 0.1 0.135-16.744c0.01-1.344 0.411-2.386 1.201-3.126 0.79-0.778 1.876-1.161 3.257-1.15 1.344 0.011 2.405 0.411 3.183 1.201 0.815 0.754 1.217 1.802 1.206 3.146l-0.134 16.744 12.375 0.099 0.148-18.311c0.033-4.144-1.061-7.438-3.281-9.883zm39.035 14.874c0.119-0.783 0.181-1.604 0.188-2.462 0.026-3.248-0.642-6.072-2.004-8.473-1.325-2.4-3.214-4.244-5.668-5.533-2.416-1.326-5.192-2.002-8.328-2.027-3.136-0.026-5.941 0.605-8.415 1.892-2.437 1.287-4.356 3.157-5.757 5.61-1.364 2.416-2.059 5.266-2.085 8.552-0.027 3.285 0.622 6.165 1.946 8.639 1.362 2.438 3.251 4.32 5.667 5.646 2.454 1.327 5.248 2.002 8.384 2.028 2.613 0.021 5.007-0.464 7.18-1.455 2.211-1.027 4.033-2.413 5.466-4.156 1.47-1.78 2.438-3.788 2.904-6.025l-13.159-0.106c-0.608 1.228-1.583 1.836-2.927 1.825-2.091-0.017-3.218-1.389-3.383-4.115zm-13.377-7.891c0.668 0.528 0.998 1.314 0.989 2.36l-7.391-0.06c0.39-2.125 1.686-3.178 3.889-3.161 1.008 8e-3 1.846 0.295 2.513 0.861zm-154.83-67.016c4.8517-2.6685 10.112-3.3132 15.78-1.9342 6.4782 1.576 11.379 5.3988 14.706 11.468 3.326 6.0695 4.124 12.657 2.395 19.763-0.884 3.6339-2.417 6.9388-4.599 9.9147s-4.873 5.4003-8.073 7.2732l-5.2434-8.5887c2.0123-1.221 3.7242-2.7931 5.1354-4.7163 1.411-1.9233 2.402-4.0558 2.972-6.3976 1.08-4.4413 0.678-8.5164-1.207-12.225-1.885-3.7089-4.7301-6.0262-8.5358-6.9522-2.9959-0.7289-5.7375-0.4764-8.2247 0.7574-2.4871 1.2338-4.0352 3.1023-4.6443 5.6056-0.4519 1.8573-0.3136 3.5802 0.4148 5.1687 0.7285 1.5886 1.9024 2.5798 3.5219 2.9738 1.1336 0.2758 2.1286 0.2399 2.985-0.1077 0.8565-0.3475 1.3928-0.9655 1.6089-1.8537 0.0786-0.323 0.0866-0.6204 0.0241-0.8922s-0.1956-0.5181-0.3992-0.7387l8.6028-5.2199c0.8389 1.4871 1.3852 3.0313 1.6388 4.6326 0.2537 1.6013 0.1938 3.1691-0.1795 4.7033-0.8644 3.5531-2.9071 6.2208-6.1281 8.0031s-6.7343 2.2105-10.54 1.2846c-4.2105-1.0245-7.4055-3.491-9.5849-7.3998s-2.7091-8.1646-1.5893-12.767c1.2574-5.1681 4.312-9.0864 9.1637-11.755zm9.4518 91.554c5.7521 0.971 10.953-0.048 15.601-3.056 4.649-3.009 7.416-7.135 8.301-12.38 0.788-4.671-0.045-8.878-2.498-12.621s-5.816-5.975-10.089-6.696c-3.8619-0.652-7.3356 0.026-10.421 2.034s-4.9324 4.815-5.5408 8.42c-0.2627 1.558-0.2104 3.126 0.157 4.705s1.0226 3.08 1.9656 4.503l8.208-5.821c-0.2189-0.205-0.3692-0.441-0.451-0.708s-0.095-0.564-0.0397-0.892c0.1521-0.901 0.6429-1.556 1.4723-1.964s1.8193-0.515 2.9696-0.32c1.644 0.277 2.885 1.182 3.725 2.714 0.841 1.533 1.102 3.241 0.783 5.126-0.428 2.54-1.839 4.515-4.231 5.923-2.3932 1.408-5.1097 1.856-8.15 1.343-3.8621-0.652-6.8657-2.76-9.0109-6.324-2.1451-3.565-2.8374-7.601-2.0769-12.108 0.401-2.377 1.2367-4.575 2.507-6.594 1.2703-2.0188 2.8654-3.7092 4.7854-5.0709l-5.8434-8.1921c-3.0582 2.0967-5.5692 4.7072-7.533 7.8314-1.9639 3.1242-3.2569 6.5306-3.8791 10.218-1.2169 7.212 0.0504 13.726 3.8016 19.542s8.9137 9.279 15.487 10.388z" clip-rule="evenodd" fill="#fff" fill-rule="evenodd"/>
  <path d="m30.352 49.648-13.284-6.9662c-0.0224 0.0426-0.0445 0.0853-0.0664 0.128zm6.832-7.112 7.4243 13.034c0.0413-0.0236 0.0825-0.0473 0.1235-0.0712zm19.6-0.616-6.5579 13.49c0.0746 0.0363 0.1496 0.0719 0.2248 0.107zm6.608 5.432-12.206 8.7185c0.0303 0.0425 0.0608 0.0848 0.0916 0.1269zm3.416 8.232v15c4.4396 0 8.6511-1.9667 11.501-5.3707 2.85-3.4041 4.0457-7.8957 3.2653-12.266zm-13.104 0-13.642 6.2364c2.4408 5.339 7.7717 8.7636 13.642 8.7636zm-2.576-3.024-8.516 12.348c0.1612 0.1112 0.3247 0.2192 0.4902 0.3241zm-8.736 1.232-11.795-9.2673c-0.046 0.0585-0.0916 0.1174-0.1367 0.1766zm0 12.656-11.932 9.0906c0.0451 0.0593 0.0907 0.1181 0.1367 0.1767zm8.736 1.288 8.2203 12.547c0.0335-0.0219 0.0669-0.044 0.1002-0.0662zm2.576-3.08v-15c-5.8705 0-11.201 3.4245-13.642 8.7636zm13.104 0 14.766 2.6368c0.7804-4.3704-0.4153-8.8621-3.2653-12.266-2.85-3.4041-7.0615-5.3707-11.501-5.3707zm-3.416 8.232-12.114-8.8454c-0.0308 0.0421-0.0613 0.0844-0.0916 0.1268zm-6.608 5.488 6.4051 13.564c0.0266-0.0126 0.0532-0.0252 0.0798-0.038zm-19.6-0.616-7.5479 12.963c0.0411 0.0239 0.0823 0.0476 0.1236 0.0712zm-6.832-7.168-13.351 6.8381c0.0219 0.0428 0.044 0.0855 0.0664 0.128zm140.03-18.76-11.107 10.082c0.029 0.0309 0.057 0.0618 0.085 0.0926zm3.36 28.168v15c8.285 0 15-6.7158 15-15zm-12.376 0h-15c0 8.2842 6.716 15 15 15zm-1.232-19.88-10.606 10.606c0.168 0.1683 0.34 0.3325 0.516 0.4926zm-6.44 0 10.345 10.862c0.088-0.0841 0.176-0.1693 0.262-0.2556zm-1.176 19.88v15c8.285 0 15-6.7158 15-15zm-12.376 0h-15c0 8.2842 6.716 15 15 15zm-1.232-19.88-10.606 10.606c0.168 0.1683 0.34 0.3325 0.516 0.4926zm-6.44 0 10.345 10.862c0.088-0.0841 0.176-0.1692 0.262-0.2554zm-1.176 19.88v15c8.285 0 15-6.7158 15-15zm-12.432 0h-15c0 8.2842 6.716 15 15 15zm0-31.584v-15c-8.284 0-15 6.7157-15 15zm12.432 0h15c0-8.2843-6.715-15-15-15zm0 4.256h-15c0 6.61 4.327 12.441 10.654 14.356 6.326 1.9154 13.16-0.5361 16.827-6.0359zm3.64-3.248-6.96-13.288c-0.044 0.0231-0.088 0.0465-0.132 0.0701zm11.536 0.28-7.472 13.007c0.07 0.0402 0.141 0.0798 0.211 0.1189zm4.2 4.144-12.956 7.558c2.572 4.4106 7.212 7.2095 12.314 7.4282 5.101 0.2187 9.964-2.1727 12.904-6.3469zm4.424-4.032 7.558 12.957c0.067-0.0388 0.133-0.0781 0.199-0.1179zm39.826-0.504 7.37 13.065c0.036-0.0202 0.071-0.0405 0.107-0.061zm-3.36 3.416h-15c0 6.8718 4.669 12.865 11.333 14.545 6.663 1.68 13.616-1.3828 16.874-7.4332zm15.344-2.744-8.266 12.517c0.055 0.0366 0.111 0.0727 0.167 0.1085zm4.648 5.6-13.656 6.207c0.038 0.0837 0.077 0.1671 0.117 0.2501zm0 17.304-13.577-6.3771c-0.014 0.0304-0.028 0.0608-0.043 0.0912zm-4.648 5.6 8.099 12.625c0.056-0.0358 0.112-0.0719 0.167-0.1085zm-11.984 0.672-7.62 12.92c0.129 0.0762 0.26 0.1504 0.391 0.2227zm-3.36-3.472 13.207-7.1116c-3.258-6.0505-10.211-9.1132-16.874-7.4333-6.664 1.68-11.333 7.673-11.333 14.545zm0 19.432v15c8.284 0 15-6.716 15-15zm-12.432 0h-15c0 8.2838 6.716 15 15 15zm0-46.704v-15c-8.284 0-15 6.7157-15 15zm12.432 0h15c0-8.2843-6.716-15-15-15zm7.84 11.872 11.039-10.156v-1e-4zm-6.608 0 11.039 10.156v-1e-4zm0 7.84 11.039-10.156v-1e-4zm6.608 0 11.039 10.156v-1e-4zm30.222 11.872v15c8.285 0 15-6.7158 15-15zm0-41.44h15c0-8.2843-6.715-15-15-15zm-12.432 41.44h-15c0 8.2842 6.716 15 15 15zm0-41.44v-15c-8.284 0-15 6.7157-15 15zm19.111 5.6 9.946-11.229zm0-8.792 9.946 11.229c0.059-0.0523 0.118-0.1051 0.176-0.1584zm10.36 0-10.121 11.07c0.058 0.0533 0.117 0.1061 0.176 0.1584zm0 8.792-9.945-11.229zm-11.424 35.84h-15c0 8.2842 6.716 15 15 15zm12.432 0v15c8.285 0 15-6.7158 15-15zm-12.432-31.584v-15c-8.284 0-15 6.7157-15 15zm12.432 0h15c0-8.2843-6.715-15-15-15zm5.951 7.224-13.084-7.3351c-0.013 0.0225-0.025 0.045-0.038 0.0676zm5.712-5.656-7.027-13.252c-0.028 0.0148-0.056 0.0298-0.084 0.0448zm18.76 1.512-9.557 11.561c0.025 0.0207 0.05 0.0413 0.075 0.0618zm5.376 9.632v15c4.448 0 8.666-1.974 11.516-5.3888 2.85-3.4149 4.038-7.9184 3.242-12.294zm-13.16 0-14.385 4.2502c1.883 6.3749 7.738 10.75 14.385 10.75zm-5.264-1.064-12.634-8.0859c-0.078 0.1217-0.154 0.2446-0.228 0.3685zm0 8.288-12.862 7.7174c0.074 0.1239 0.15 0.2467 0.228 0.3684zm5.264-1.064v-15c-6.647 0-12.502 4.3749-14.385 10.75zm13.16 0 14.758 2.6833c0.796-4.3761-0.392-8.8797-3.242-12.294-2.85-3.4149-7.068-5.3888-11.516-5.3888zm-5.376 9.632-9.482-11.623c-0.025 0.0205-0.05 0.0411-0.075 0.0618zm-18.76 1.512-7.111 13.207c0.028 0.0151 0.056 0.03 0.084 0.0449zm-5.712-5.6-13.168 7.1827c0.043 0.0797 0.087 0.1589 0.132 0.2377zm34.853-28.672 9.946-11.229v-1e-4zm0-8.792 9.946 11.229c0.059-0.0524 0.117-0.1052 0.176-0.1585zm10.36 0-10.121 11.07c0.058 0.0533 0.117 0.1061 0.176 0.1584zm0 8.792-9.945-11.229zm-11.424 35.84h-15c0 8.2842 6.716 15 15 15zm12.432 0v15c8.284 0 15-6.7158 15-15zm-12.432-31.584v-15c-8.284 0-15 6.7157-15 15zm12.432 0h15c0-8.2843-6.716-15-15-15zm25.271 31.584v15c8.284 0 15-6.7158 15-15zm0-10.584h15c0-8.2843-6.716-15-15-15zm-17.696-10.64h15c0-8.2843-6.716-15-15-15zm-3.92 0h-15c0 8.2842 6.716 15 15 15zm0-10.36v-15c-8.284 0-15 6.7157-15 15zm3.92 0v15c8.284 0 15-6.7158 15-15zm0-7.616v-15c-8.284 0-15 6.7157-15 15zm12.432 0h15c0-8.2843-6.716-15-15-15zm0 7.616h-15c0 8.2842 6.716 15 15 15zm5.152 0h15c0-8.2843-6.716-15-15-15zm0 10.36v15c8.284 0 15-6.7158 15-15zm-5.152 0v-15c-8.284 0-15 6.7157-15 15zm0.504 10.136-10.607 10.607c0.186 0.1858 0.377 0.3668 0.572 0.5426zm24.951 26.208v15c5.98 0 11.39-3.553 13.765-9.041zm20.216-46.704 13.765 5.9585c2.007-4.636 1.545-9.9708-1.228-14.193-2.773-4.2224-7.486-6.7652-12.537-6.7652zm-33.824 46.704-13.542-6.4526c-2.214 4.6475-1.891 10.106 0.857 14.459 2.748 4.353 7.537 6.993 12.685 6.993zm7.952-16.688 13.541 6.4525c1.874-3.9327 1.946-8.4858 0.196-12.476zm-13.16-30.016v-15c-5.065 0-9.787 2.5553-12.557 6.7947-2.77 4.2393-3.214 9.5903-1.181 14.228zm13.832 0 14.065-5.2129c-2.181-5.8827-7.792-9.7871-14.065-9.7871zm5.936 16.016-14.065 5.2129c2.201 5.9386 7.894 9.8549 14.227 9.7862s11.941-4.1075 14.012-10.092zm5.544-16.016v-15c-6.393 0-12.084 4.052-14.175 10.093zm-72.347 100.15 11.976-9.033zm3.233 2.445 5.67-13.887zm-4.723-6.069 14.87-1.967c-0.706-5.336-4.217-9.885-9.2-11.92zm-3.619-3.593 13.829-5.81zm-0.033-5.099-13.887-5.671zm4.473-10.956 13.887 5.671c1.904-4.663 1.341-9.97-1.499-14.129zm-4.046-10.923-14.894 1.778zm1.64-11.842 13.887 5.67zm12.992-13.193-5.81-13.829zm18.516-0.0457-5.67 13.887zm13.193 12.992-13.829 5.811zm0.046 18.517 13.887 5.67zm-7.149 9.682-9.315-11.757zm-10.504 4.893-2.928-14.712c-4.939 0.983-9.055 4.379-10.959 9.042zm-4.473 10.955 13.887 5.67zm-3.593 3.619 5.81 13.829zm-5.099 0.033 5.67-13.887c-4.984-2.035-10.675-1.243-14.914 2.074zm-3.602 1.545-2.23-14.833zm6.122-7.717-5.67 13.887c3.683 1.504 7.812 1.483 11.48-0.058s6.573-4.476 8.077-8.159zm-12.344-5.04-13.887-5.67c-3.132 7.669 0.547 16.425 8.217 19.557zm13.478 2.263 13.887 5.67c3.131-7.67-0.547-16.426-8.217-19.557zm-12.344-5.041 5.67-13.887c-3.683-1.503-7.813-1.483-11.48 0.058-3.668 1.541-6.573 4.476-8.077 8.159zm13.604 1.955-5.67 13.887c7.669 3.131 16.425-0.548 19.557-8.217zm-12.344-5.041-13.887-5.67c-1.504 3.683-1.483 7.813 0.058 11.481 1.541 3.667 4.476 6.573 8.159 8.076zm13.541 2.109 13.887 5.67c1.504-3.683 1.483-7.813-0.058-11.48-1.541-3.668-4.476-6.573-8.159-8.077zm-12.344-5.04 5.67-13.887c-7.67-3.132-16.426 0.547-19.557 8.216zm6.377-4.597-5.67 13.887c3.683 1.504 7.813 1.483 11.481-0.058 3.667-1.541 6.573-4.476 8.076-8.159zm-4.474-1.827-11.133 10.052c1.509 1.672 3.377 2.983 5.463 3.835zm7.877-6.506 13.887 5.671c1.503-3.683 1.483-7.813-0.058-11.481zm-4.018-9.561-5.81-13.829c-7.637 3.2088-11.227 12.002-8.019 19.639zm4.564-1.917 13.829-5.8102c-3.209-7.6376-12.002-11.228-19.639-8.0189zm3.469 8.257-13.829 5.811c3.209 7.637 12.002 11.227 19.639 8.018zm8.258-3.469 13.829-5.81c-3.209-7.6376-12.002-11.228-19.64-8.0189zm1.917 4.563 5.81 13.829c3.668-1.54 6.573-4.475 8.077-8.158s1.483-7.813-0.058-11.481zm-9.561 4.018-5.811-13.829c-3.667 1.54-6.573 4.475-8.076 8.158zm-3.403 8.332-13.887-5.67c-3.131 7.669 0.548 16.425 8.217 19.557zm4.475 1.827-5.67 13.887c2.086 0.852 4.337 1.222 6.586 1.085zm15.398-10.816-13.887-5.67zm-0.013-13.416 13.829-5.8106zm-22.991-9.3878-5.81-13.829zm-9.399 9.5738-13.887-5.6702zm-163.81 10.509-15-0.12zm1.749-8.61-13.525-6.486c-0.015 0.03-0.029 0.06-0.043 0.091zm-0.139 17.303-13.705 6.097c0.037 0.084 0.076 0.168 0.114 0.251zm4.659 5.638-8.366 12.45c0.055 0.037 0.11 0.074 0.165 0.11zm6.648 1.957-0.12 15zm5.33-1.189 7.123 13.201c0.084-0.045 0.167-0.091 0.249-0.137zm3.444-3.444 14.999 0.12c0.056-6.871-4.566-12.902-11.215-14.635-6.65-1.734-13.627 1.273-16.934 7.297zm-0.035 4.312-14.999-0.121c-0.067 8.284 6.595 15.054 14.879 15.12zm12.376 0.099-0.121 15c8.284 0.066 15.054-6.595 15.12-14.879zm0.254-31.583 14.999 0.121c0.067-8.2842-6.595-15.054-14.879-15.12zm-12.376-0.0993 0.121-15c-3.978-0.032-7.806 1.5177-10.642 4.308-2.835 2.7903-4.446 6.5928-4.478 10.571zm-0.035 4.3123-13.263 7.005c3.209 6.076 10.137 9.195 16.813 7.568 6.677-1.626 11.395-7.581 11.45-14.453zm-3.388-3.444-7.581 12.943c0.082 0.048 0.164 0.096 0.247 0.142zm-5.309-1.3305-0.121 15zm-6.68 1.9065 7.998 12.69c0.056-0.035 0.111-0.071 0.167-0.107zm15.285 14.347-14.999-0.12zm-1.256-3.93-11.121 10.067h1e-3zm-6.671 7.787-11.12 10.066zm0.063-7.84 10.957 10.244zm3.315-1.374 0.121-14.999zm64.802-10.175 0.121-15zm9.323 3.715-11.188 9.992c0.028 0.031 0.056 0.062 0.084 0.093zm-15.271-2.139 7.453 13.017c0.067-0.038 0.134-0.077 0.2-0.116zm-4.457 3.997-13.017 7.453c2.538 4.431 7.155 7.267 12.254 7.527 5.1 0.26 9.981-2.092 12.956-6.243zm-4.166-4.178-7.576 12.946c0.069 0.041 0.139 0.081 0.21 0.121zm-6.036-1.561 0.121-14.999zm-5.498 1.188-6.853-13.343c-0.044 0.0227-0.088 0.0457-0.132 0.069zm-3.666 3.219-14.999-0.121c-0.053 6.61 4.227 12.476 10.537 14.442 6.311 1.966 13.165-0.43 16.876-5.901zm0.035-4.256 14.999 0.121c0.032-3.9785-1.518-7.8064-4.308-10.642-2.79-2.8355-6.593-4.4465-10.571-4.4785zm-12.432-0.1 0.121-14.999c-8.284-0.0666-15.054 6.5949-15.121 14.879zm-0.254 31.583-14.999-0.121c-0.067 8.284 6.595 15.054 14.879 15.121zm12.432 0.1-0.121 15c3.978 0.031 7.806-1.518 10.642-4.308 2.835-2.791 4.446-6.593 4.478-10.571zm0.134-16.743 15 0.12zm1.201-3.127 10.258 10.945c0.089-0.083 0.177-0.168 0.263-0.253zm3.258-1.15-0.121 15zm3.182 1.202-10.691 10.521c0.167 0.169 0.338 0.335 0.512 0.497zm1.207 3.146 15 0.12zm-0.135 16.743-14.999-0.12c-0.067 8.284 6.595 15.053 14.879 15.12zm12.376 0.1-0.121 14.999c3.979 0.032 7.806-1.518 10.642-4.308s4.447-6.593 4.479-10.571zm0.135-16.744 14.999 0.121zm1.201-3.126 10.257 10.945c0.089-0.084 0.177-0.168 0.264-0.254zm3.257-1.15-0.12 14.999zm3.183 1.201-10.692 10.522c0.167 0.169 0.338 0.335 0.513 0.496zm1.206 3.146 15 0.121zm-0.134 16.744-15-0.121c-0.066 8.284 6.595 15.054 14.879 15.12zm12.375 0.099-0.12 15c3.978 0.032 7.806-1.518 10.641-4.308 2.836-2.791 4.447-6.593 4.479-10.571zm0.148-18.311 14.999 0.12zm35.942 2.529-15-0.121zm-0.188 2.462-0.12 15c7.464 0.06 13.837-5.378 14.952-12.759zm-1.816-10.935-13.132 7.249c0.028 0.052 0.057 0.103 0.086 0.154zm-5.668-5.533-7.217 13.149c0.08 0.044 0.16 0.087 0.241 0.13zm-8.328-2.027-0.12 14.999zm-8.415 1.892-6.921-13.308c-0.028 0.0146-0.056 0.0294-0.084 0.0442zm-5.757 5.61-13.025-7.44c-0.013 0.022-0.026 0.045-0.038 0.067zm-0.139 17.191-13.225 7.077c0.042 0.08 0.086 0.16 0.13 0.239zm5.667 5.646-7.217 13.15c0.028 0.015 0.055 0.03 0.083 0.045zm8.384 2.028 0.121-15zm7.18-1.455 6.221 13.649c0.034-0.015 0.067-0.03 0.101-0.046zm5.466-4.156-11.566-9.552c-7e-3 9e-3 -0.015 0.019-0.023 0.028zm2.904-6.025 14.685 3.06c0.917-4.399-0.188-8.978-3.009-12.476s-7.061-5.547-11.555-5.583zm-13.159-0.106 0.12-14.999c-5.747-0.046-11.016 3.196-13.565 8.347zm-2.927 1.825-0.121 15zm-3.383-4.115 0.12-15c-4.156-0.033-8.139 1.659-11.001 4.674-2.861 3.015-4.343 7.082-4.092 11.23zm7.603-5.371-0.12 14.999c8.284 0.067 15.053-6.595 15.12-14.879zm-0.989-2.36-9.695 11.445c0.129 0.109 0.259 0.216 0.391 0.32zm-6.402 2.3-14.754-2.71c-0.8 4.358 0.367 8.848 3.19 12.264 2.823 3.417 7.011 5.41 11.443 5.446zm3.889-3.161-0.121 15zm-136.53-68.09-3.546 14.575zm-15.78 1.9342 7.2289 13.143zm30.486 9.534 13.154-7.2086zm2.395 19.763 14.575 3.5461zm-12.672 17.188-12.803 7.8159c4.26 6.9783 13.323 9.2593 20.379 5.1303zm-5.2434-8.5887-7.7812-12.824c-3.4071 2.0673-5.8515 5.4056-6.7936 9.2779-0.9422 3.8723-0.3046 7.9604 1.772 11.362zm5.1354-4.7163-12.093-8.8745v1e-4zm2.972-6.3976 14.575 3.5461zm-1.207-12.225-13.372 6.7962zm-8.5358-6.9522-3.5461 14.575zm-8.2247 0.7574 6.6659 13.438zm-4.6443 5.6056 14.575 3.5461zm0.4148 5.1687-13.635 6.2526zm3.5219 2.9738 3.546-14.575zm2.985-0.1077-5.6408-13.899zm1.6089-1.8537 14.575 3.546zm0.0241-0.8922-14.618 3.3622v2e-4zm-0.3992-0.7387-7.7811-12.824c-3.8479 2.3347-6.444 6.2738-7.0721 10.73-0.6281 4.4568 0.7781 8.96 3.8308 12.267zm8.6028-5.2199 13.064-7.3699c-1.995-3.5369-5.339-6.1137-9.268-7.1416-3.9283-1.0279-8.1058-0.419-11.578 1.6876zm1.6388 4.6326-14.815 2.3466v1e-4zm-0.1795 4.7033 14.575 3.5461zm-6.1281 8.0031-7.2624-13.125zm-10.54 1.2846-3.5461 14.575zm-9.5849-7.3998-13.101 7.3048zm-1.5893-12.767 14.575 3.5461v-1e-4zm34.216 76.742 8.15 12.593zm-15.601 3.056 2.4958-14.791zm23.902-15.436 14.791 2.496zm-12.587-19.317 2.496-14.791zm-10.421 2.034 8.1815 12.572zm-5.5408 8.42 14.791 2.496zm2.1226 9.208-12.505 8.285c2.2428 3.385 5.7623 5.716 9.7544 6.461 3.992 0.745 8.1153-0.161 11.428-2.51zm8.208-5.821 8.6772 12.235c3.671-2.603 5.979-6.718 6.288-11.208 0.308-4.49-1.417-8.881-4.698-11.962zm-0.451-0.708-14.341 4.398h1e-4zm-0.0397-0.892 14.791 2.496zm4.4419-2.284-2.4956 14.791h1e-4zm3.725 2.714 13.154-7.211zm0.783 5.126 14.791 2.496zm-4.231 5.923 7.608 12.927zm-8.15 1.343-2.4958 14.791zm-9.0109-6.324 12.852-7.735h-1e-4zm-2.0769-12.108 14.791 2.496zm2.507-6.594 12.696 7.988zm4.7854-5.0709 8.6775 12.235c3.2509-2.305 5.4499-5.809 6.1139-9.7392 0.663-3.9297-0.265-7.9618-2.58-11.206zm-5.8434-8.1921 12.212-8.7106c-4.7477-6.6559-13.951-8.284-20.694-3.6609zm-7.533 7.8314 12.699 7.9826zm-3.8791 10.218-14.791-2.495zm3.8016 19.542-12.606 8.13zm-57.895-82.24c-2.7949 5.4567-4.0013 11.347-4.0013 17.31h30c0-1.8766 0.3615-2.9679 0.7026-3.6339zm12.758-13.308c-5.4911 3.1278-9.78 7.6264-12.692 13.18l26.569 13.932c0.2986-0.5694 0.5643-0.8121 0.972-1.0443zm17.84-4.5422c-6.1902 0-12.358 1.3494-17.964 4.6133l15.096 25.925c0.2932-0.1707 1.069-0.5386 2.8682-0.5386zm15.742 3.4695c-5.0161-2.4384-10.374-3.4695-15.742-3.4695v30c1.5018 0 2.2662 0.2755 2.6261 0.4505zm12.256 10.204c-3.2457-4.544-7.508-7.9947-12.481-10.311l-12.666 27.195c0.4777 0.2225 0.6207 0.393 0.7351 0.553zm5.9764 14.314c-0.9226-5.1662-2.8839-10.08-6.068-14.44l-24.229 17.691c0.2505 0.3431 0.5665 0.9177 0.764 2.0234zm-27.87 17.637h13.104v-30h-13.104zm-10.602-5.3517c-1.5424-0.9769-2.5345-2.3053-3.0404-3.4119l27.284-12.473c-1.7006-3.72-4.4099-7.0644-8.1924-9.4599zm4.2738 1.2077c-0.6181 0-1.4062-0.0834-2.2886-0.3467-0.8922-0.2664-1.7331-0.6732-2.4754-1.1851l17.032-24.696c-3.7862-2.6112-8.0591-3.7718-12.268-3.7718zm6.8107-3.3807c-0.698 0.8884-1.7704 1.8485-3.2231 2.534-1.4308 0.6752-2.7255 0.8467-3.5876 0.8467v-30c-6.4351 0-12.547 2.6988-16.779 8.0847zm1.4133-2.9393c0-0.4892 0.1067 0.9471-1.2766 2.7626l-23.863-18.181c-3.7726 4.9516-4.8605 10.606-4.8605 15.419zm-1.2766-2.7627c1.3833 1.8156 1.2766 3.2518 1.2766 2.7627h-30c0 4.8121 1.0879 10.467 4.8605 15.419zm-6.9474-3.5573c0.8621 0 2.1568 0.1714 3.5876 0.8466 1.4527 0.6856 2.5251 1.6456 3.2231 2.5341l-23.59 18.535c4.2317 5.3859 10.344 8.0847 16.779 8.0847zm-4.4684 1.389c1.5934-1.0439 3.2584-1.389 4.4684-1.389v30c4.0472 0 8.2135-1.0544 11.972-3.5171zm-2.8458 3.2306c0.4804-1.0509 1.3883-2.2595 2.7457-3.1644l16.641 24.962c3.5973-2.3982 6.2225-5.6601 7.8976-9.3243zm26.746-8.7636h-13.104v30h13.104zm8.6984 32.077c3.1841-4.3609 5.1454-9.2743 6.068-14.441l-29.533-5.2737c-0.1975 1.1058-0.5135 1.6804-0.764 2.0235zm-12.238 10.168c4.8992-2.3489 9.1099-5.7884 12.329-10.295l-24.412-17.437c-0.1409 0.1972-0.3355 0.4164-0.887 0.6808zm-15.669 3.3783c5.3062 0 10.609-0.9888 15.589-3.3403l-12.81-27.128c-0.3964 0.1872-1.2158 0.4678-2.7789 0.4678zm-17.84-4.4862c5.5826 3.1799 11.705 4.4862 17.84 4.4862v-30c-1.8545 0-2.6757-0.3738-2.9917-0.5538zm-12.692-13.236c2.8977 5.5259 7.1481 10.008 12.568 13.164l15.096-25.925c-0.4784-0.2785-0.7826-0.5747-1.0955-1.1715zm-4.0677-17.438c0 5.9634 1.2064 11.854 4.0013 17.31l26.701-13.676c-0.3411-0.666-0.7026-1.7572-0.7026-3.6338zm168.49-18.37c-5.683-6.2606-13.247-8.5584-20.459-8.5584v30c0.527 0 0.413 0.0799-0.078-0.1115-0.248-0.0965-0.548-0.2454-0.863-0.4614-0.317-0.2167-0.591-0.4607-0.814-0.7055zm7.253 19.938c0-6.9134-1.933-14.176-7.338-20.03l-22.044 20.348c-0.168-0.1819-0.316-0.3832-0.437-0.5879-0.119-0.2029-0.186-0.3668-0.218-0.4622-0.063-0.1844 0.037-0.0037 0.037 0.7319zm0 18.312v-18.312h-30v18.312zm-27.376 15h12.376v-30h-12.376zm-15-31.744v16.744h30v-16.744zm3.678 7.9631c-1.314-1.195-2.32-2.6755-2.947-4.2704-0.602-1.5313-0.731-2.8482-0.731-3.6927h30c0-4.6045-1.544-10.055-6.142-14.235zm6.898 2.7249c-0.777 0-1.975-0.1135-3.379-0.6309-1.457-0.5368-2.857-1.4082-4.035-2.5866l21.213-21.213c-4.176-4.1756-9.377-5.5694-13.799-5.5694zm7.359-3.2175c-1.223 1.2232-2.656 2.0925-4.1 2.6155-1.386 0.5019-2.546 0.602-3.259 0.602v-30c-4.325 0-9.602 1.3169-13.854 5.5694zm3.217-7.4705c0 0.77-0.111 2.0089-0.661 3.4748-0.573 1.5297-1.518 3.0133-2.818 4.2513l-20.69-21.724c-4.444 4.2324-5.831 9.6061-5.831 13.998zm0 16.744v-16.744h-30v16.744zm-27.376 15h12.376v-30h-12.376zm-15-31.744v16.744h30v-16.744zm3.678 7.9631c-1.314-1.195-2.32-2.6754-2.947-4.2703-0.602-1.5314-0.731-2.8482-0.731-3.6928h30c0-4.6046-1.544-10.055-6.142-14.235zm6.898 2.7249c-0.777 0-1.975-0.1135-3.379-0.6309-1.457-0.5368-2.857-1.4083-4.035-2.5866l21.213-21.213c-4.176-4.1756-9.377-5.5694-13.799-5.5694zm7.359-3.2174c-1.223 1.2232-2.656 2.0924-4.1 2.6154-1.386 0.5019-2.546 0.602-3.259 0.602v-30c-4.325 0-9.602 1.3169-13.854 5.5693zm3.217-7.4706c0 0.77-0.111 2.0089-0.661 3.4748-0.573 1.5296-1.518 3.0133-2.818 4.2512l-20.69-21.724c-4.444 4.2325-5.831 9.6061-5.831 13.998zm0 16.744v-16.744h-30v16.744zm-27.432 15h12.432v-30h-12.432zm-15-46.584v31.584h30v-31.584zm27.432-15h-12.432v30h12.432zm15 19.256v-4.256h-30v4.256zm-18.452-16.465c-3.534 1.896-6.664 4.5977-9.029 8.1449l24.962 16.641c-0.263 0.3943-0.575 0.7512-0.912 1.0516-0.333 0.297-0.631 0.4871-0.837 0.5973zm12.58-3.0146c-4.077 0-8.375 0.8111-12.448 2.9445l13.92 26.575c-0.936 0.4907-1.576 0.4806-1.472 0.4806zm13.52 3.5054c-4.302-2.4716-8.956-3.5054-13.52-3.5054v30c0.029 0-0.128 0.0025-0.418-0.0699-0.299-0.0747-0.65-0.2074-1.006-0.4115zm9.685 9.5925c-2.358-4.0426-5.691-7.3855-9.896-9.7114l-14.522 26.251c-0.297-0.1643-0.614-0.3942-0.908-0.684-0.291-0.2874-0.48-0.556-0.587-0.7395zm-16.091-9.4306c-3.59 2.094-6.69 4.8889-9.128 8.3494l24.524 17.279c-0.045 0.064-0.109 0.139-0.184 0.2071-0.073 0.067-0.116 0.09-0.096 0.0782zm13.494-3.6673c-4.801 0-9.478 1.2387-13.692 3.7852l15.513 25.678c-0.264 0.1597-0.597 0.3094-0.97 0.4116-0.371 0.1013-0.67 0.1257-0.851 0.1257zm26.52 3.0553c-3.897 2.1982-7.054 5.3884-9.197 9.3691l26.414 14.223c-0.257 0.4763-0.616 0.9838-1.085 1.461-0.469 0.4763-0.956 0.8298-1.392 1.076zm12.69-3.2233c-4.172 0-8.628 0.887-12.797 3.2844l14.954 26.007c-1.183 0.68-2.092 0.7084-2.157 0.7084zm14.93 4.443c-4.531-2.992-9.649-4.443-14.93-4.443v30c-0.109 0-0.369-0.0168-0.719-0.1195-0.353-0.1041-0.659-0.2554-0.883-0.4036zm10.037 11.91c-2.13-4.6861-5.442-8.9639-10.204-12.018l-16.198 25.251c-0.35-0.224-0.619-0.479-0.797-0.6934-0.169-0.2027-0.183-0.282-0.112-0.125zm3.081 14.831c0-5.0419-0.878-10.219-3.197-15.081l-27.078 12.914c2e-3 0.0044 0.068 0.1424 0.136 0.479 0.069 0.3441 0.139 0.8917 0.139 1.6879zm-3.159 15.057c2.278-4.8498 3.159-10.006 3.159-15.057h-30c0 1.5948-0.276 2.2248-0.313 2.3029zm-9.959 11.74c4.594-3.0342 7.864-7.2005 10.001-11.831l-27.239-12.572c-0.068 0.1486-0.062 0.0916 0.076-0.0742 0.145-0.1749 0.36-0.3789 0.63-0.5569zm-14.93 4.3871c5.19 0 10.248-1.3822 14.763-4.2786l-16.198-25.251c0.22-0.1413 0.507-0.2778 0.828-0.3695 0.316-0.0902 0.538-0.1011 0.607-0.1011zm-12.549-3.0888c4.12 2.2658 8.483 3.0888 12.549 3.0888v-30c-0.041 0 0.776 0.0017 1.909 0.6247zm-9.338-9.5036c2.111 3.9213 5.189 7.0643 8.947 9.2809l15.24-25.841c0.374 0.2209 0.805 0.5412 1.227 0.9772 0.423 0.4375 0.756 0.9076 1 1.3597zm28.207 12.32v-19.432h-30v19.432zm-27.432 15h12.432v-30h-12.432zm-15-61.704v46.704h30v-46.704zm27.432-15h-12.432v30h12.432zm15 19.312v-4.312h-30v4.312zm-18.199 17.716c-2.424-2.6348-2.673-5.4027-2.673-6.2358h30c0-4.1932-1.108-9.5744-5.249-14.076zm7.735 3.4442c-1.09 0-2.502-0.1962-4.018-0.8387-1.537-0.6512-2.787-1.5945-3.717-2.6054l22.078-20.312c-3.885-4.2222-9.086-6.2441-14.343-6.2441zm7.735-3.4442c-0.93 1.011-2.18 1.9543-3.717 2.6055-1.516 0.6425-2.928 0.8387-4.018 0.8387v-30c-5.257 0-10.459 2.0218-14.343 6.2442zm2.673-6.2358c0 0.8331-0.249 3.6011-2.673 6.2359l-22.078-20.312c-4.141 4.5014-5.249 9.8827-5.249 14.076zm-2.673-6.2359c2.424 2.6347 2.673 5.4027 2.673 6.2359h-30c0 4.1931 1.108 9.5744 5.249 14.076zm-7.735-3.4441c1.09 0 2.502 0.1961 4.018 0.8387 1.537 0.6512 2.787 1.5945 3.717 2.6055l-22.078 20.312c3.884 4.2223 9.086 6.2442 14.343 6.2442zm-7.735 3.4441c0.93-1.011 2.18-1.9543 3.717-2.6054 1.516-0.6425 2.927-0.8387 4.018-0.8387v30c5.257 0 10.458-2.0219 14.343-6.2441zm-2.673 6.2359c0-0.8332 0.249-3.6011 2.673-6.2358l22.078 20.312c4.141-4.5014 5.249-9.8827 5.249-14.076zm58.934 15.792v-41.44h-30v41.44zm-27.432 15h12.432v-30h-12.432zm-15-56.44v41.44h30v-41.44zm27.432-15h-12.432v30h12.432zm-3.266 31.829c4.666 4.1329 10.24 5.5072 15.153 5.5072v-30c0.242 0 0.905 0.0316 1.818 0.3357 0.956 0.3187 1.986 0.8727 2.92 1.6994zm-7.015-15.597c0 6.0225 2.474 11.575 7.015 15.597l19.891-22.458c0.789 0.6991 1.646 1.7379 2.27 3.128 0.623 1.3882 0.824 2.7059 0.824 3.7329zm7.015-15.653c-4.618 4.0899-7.015 9.6977-7.015 15.653h30c0 0.9633-0.185 2.2472-0.795 3.6259-0.616 1.3886-1.475 2.4493-2.299 3.1789zm15.153-5.5631c-5.034 0-10.672 1.4639-15.329 5.7215l20.243 22.141c-0.919 0.8397-1.959 1.4252-2.959 1.7694-0.956 0.3288-1.667 0.3682-1.955 0.3682zm15.274 5.7215c-4.609-4.2139-10.198-5.7215-15.274-5.7215v30c-0.334 0-1.074-0.0472-2.044-0.3846-1.011-0.3519-2.035-0.9386-2.925-1.753zm6.838 15.494c0-5.9553-2.397-11.563-7.014-15.653l-19.891 22.458c-0.824-0.7296-1.684-1.7903-2.299-3.1788-0.611-1.3787-0.796-2.6627-0.796-3.626zm-7.014 15.597c4.54-4.0214 7.014-9.5742 7.014-15.597h-30c0-1.0271 0.202-2.3448 0.825-3.7329 0.624-1.3901 1.481-2.429 2.27-3.128zm-15.098 5.5072c4.953 0 10.478-1.4157 15.098-5.5072l-19.891-22.458c0.906-0.8022 1.919-1.3576 2.888-1.6838 0.926-0.3124 1.618-0.3513 1.905-0.3513zm-6.272 34.104h12.432v-30h-12.432zm-15-46.584v31.584h30v-31.584zm27.432-15h-12.432v30h12.432zm15 46.584v-31.584h-30v31.584zm-22.171-31.628c-2.785 5.0282-3.894 10.477-3.894 15.836h30c0-0.6217 0.064-0.9933 0.105-1.1704 0.039-0.1661 0.065-0.1877 0.033-0.1302zm11.723-11.596c-5 2.6923-8.947 6.6446-11.685 11.528l26.168 14.67c0.025-0.0443 0.033-0.052 0.019-0.0336-0.014 0.0189-0.042 0.0533-0.085 0.0952-0.042 0.0421-0.087 0.0798-0.128 0.1103-0.02 0.0146-0.036 0.0257-0.049 0.0334-0.012 0.0076-0.018 0.011-0.017 0.0106zm15.511-3.7529c-5.277 0-10.541 1.117-15.427 3.7081l14.055 26.504c0.042-0.0223 0.377-0.2119 1.372-0.2119zm19.917 6.9108c-5.838-4.8266-12.804-6.9108-19.917-6.9108v30c0.637 0 0.896 0.0878 0.904 0.0905 9e-3 3e-3 -0.012-0.0036-0.048-0.0233-0.035-0.0198-0.055-0.0356-0.053-0.0341zm10.577 18.51c-1.29-7.0975-4.663-13.686-10.652-18.572l-18.964 23.246c-0.012-0.0099-0.045-0.0395-0.084-0.0856-0.018-0.0213-0.032-0.041-0.044-0.0574-0.011-0.0163-0.016-0.0256-0.016-0.0254 0 3e-4 8e-3 0.0131 0.02 0.0414 0.013 0.0284 0.032 0.0743 0.055 0.1407 0.046 0.1326 0.11 0.3523 0.169 0.6787zm-27.918 17.683h13.16v-30h-13.16zm-2.856-2.464c-2.395 0-5.422-0.7846-8.02-3.0267-2.36-2.0354-3.223-4.2896-3.509-5.2591l28.77-8.5004c-0.771-2.6123-2.353-6.0984-5.664-8.9552-3.551-3.0634-7.763-4.2586-11.577-4.2586zm10.226-5.5142c-0.74 1.1564-2.021 2.6552-4.045 3.8318-2.082 1.2107-4.27 1.6824-6.181 1.6824v-30c-6.699 0-12.013 3.5816-15.042 8.3141zm1.526-3.9418c0-0.1923 0.019 0.0421-0.089 0.5719-0.104 0.5142-0.395 1.6455-1.208 3.0015l-25.725-15.435c-2.613 4.3547-2.978 8.954-2.978 11.861zm-1.297-3.5734c0.813 1.356 1.104 2.4873 1.208 3.0015 0.108 0.5298 0.089 0.7641 0.089 0.5719h-30c0 2.9073 0.365 7.5066 2.978 11.861zm-10.455-5.8826c1.911 0 4.099 0.4716 6.181 1.6824 2.024 1.1766 3.305 2.6753 4.045 3.8317l-25.268 16.172c3.029 4.7326 8.343 8.3142 15.042 8.3142zm-11.529 8.2858c0.286-0.9696 1.149-3.2237 3.509-5.2592 2.598-2.2421 5.625-3.0266 8.02-3.0266v30c3.814 0 8.026-1.1952 11.577-4.2587 3.311-2.8568 4.893-6.3429 5.664-8.9551zm27.545-10.75h-13.16v30h13.16zm4.106 36.255c5.989-4.8858 9.362-11.474 10.652-18.572l-29.516-5.3666c-0.059 0.3264-0.123 0.546-0.169 0.6787-0.023 0.0663-0.042 0.1123-0.055 0.1407-0.012 0.0282-0.02 0.0411-0.02 0.0414 0 1e-4 5e-3 -0.0091 0.016-0.0255 0.012-0.0163 0.026-0.0361 0.044-0.0573 0.039-0.0462 0.072-0.0758 0.084-0.0857zm-19.842 6.8491c7.113 0 14.079-2.0843 19.917-6.9109l-19.114-23.122c-2e-3 0.0016 0.018-0.0142 0.053-0.034 0.036-0.0198 0.057-0.0264 0.048-0.0234-8e-3 0.0027-0.267 0.0906-0.904 0.0906zm-15.427-3.7081c4.886 2.5911 10.15 3.7081 15.427 3.7081v-30c-0.995 0-1.33-0.1897-1.372-0.2119zm-11.721-11.432c2.755 4.8394 6.697 8.7269 11.637 11.387l14.223-26.414c-0.014-0.0071 0-7e-4 0.032 0.0227 0.032 0.0236 0.071 0.0554 0.109 0.0933 0.039 0.0378 0.066 0.0703 0.082 0.0905 0.015 0.0197 0.01 0.0163-0.011-0.0199zm-3.98-16.044c0 5.3655 1.112 10.791 3.848 15.807l26.337-14.366c-1e-3 -2e-4 -2e-3 -0.0028-5e-3 -0.0086-2e-3 -0.0058-7e-3 -0.0164-0.013-0.0327-0.012-0.0316-0.033-0.0938-0.057-0.1944-0.047-0.2005-0.11-0.585-0.11-1.2055zm41.923-8.8193c4.667 4.133 10.241 5.5073 15.154 5.5073v-30c0.242 0 0.905 0.0316 1.818 0.3357 0.956 0.3187 1.986 0.8727 2.92 1.6995zm-7.014-15.597c0 6.0227 2.474 11.576 7.015 15.597l19.891-22.458c0.789 0.699 1.646 1.7378 2.269 3.1279 0.623 1.3881 0.825 2.7059 0.825 3.733zm7.015-15.653c-4.618 4.0897-7.015 9.6975-7.015 15.653h30c0 0.9634-0.185 2.2474-0.796 3.626-0.615 1.3886-1.475 2.4492-2.298 3.1788zm15.153-5.5631c-5.034 0-10.673 1.4639-15.33 5.7216l20.244 22.141c-0.919 0.8398-1.959 1.4253-2.959 1.7695-0.956 0.3288-1.667 0.3682-1.955 0.3682zm15.274 5.7215c-4.609-4.2139-10.198-5.7215-15.274-5.7215v30c-0.334 0-1.074-0.0472-2.044-0.3846-1.011-0.3519-2.035-0.9386-2.925-1.753zm6.838 15.494c0-5.9552-2.397-11.563-7.014-15.653l-19.891 22.458c-0.824-0.7296-1.684-1.7903-2.299-3.1789-0.611-1.3787-0.796-2.6626-0.796-3.6259zm-7.014 15.597c4.54-4.0215 7.014-9.5743 7.014-15.597h-30c0-1.027 0.202-2.3447 0.825-3.7329 0.623-1.3901 1.48-2.4289 2.27-3.128zm-15.098 5.5072c4.953 0 10.478-1.4157 15.098-5.5072l-19.891-22.458c0.905-0.8022 1.919-1.3576 2.887-1.6838 0.927-0.3124 1.618-0.3513 1.906-0.3513zm-6.272 34.104h12.432v-30h-12.432zm-15-46.584v31.584h30v-31.584zm27.432-15h-12.432v30h12.432zm15 46.584v-31.584h-30v31.584zm25.271 0v-10.584h-30v10.584zm-19.704 15h4.704v-30h-4.704zm-27.992-27.936c0 6.6405 1.68 14.373 7.664 20.332 5.973 5.947 13.701 7.6045 20.328 7.6045v-30c-0.966 0-1.202-0.1255-0.959-0.0449 0.315 0.1044 1.046 0.4316 1.799 1.1814 0.754 0.7511 1.092 1.4896 1.204 1.8251 0.088 0.2622-0.036 0.0475-0.036-0.8976zm0-8.288v8.288h30v-8.288zm11.08 15h3.92v-30h-3.92zm-15-25.36v10.36h30v-10.36zm18.92-15h-3.92v30h3.92zm-15 7.384v7.616h30v-7.616zm27.432-15h-12.432v30h12.432zm15 22.616v-7.616h-30v7.616zm-9.848-15h-5.152v30h5.152zm15 25.36v-10.36h-30v10.36zm-20.152 15h5.152v-30h-5.152zm15-6.488v-8.512h-30v8.512zm-3.889-8.9826c3.724 3.7241 3.889 7.9543 3.889 8.9826h-30c0 2.5215 0.501 7.8344 4.897 12.231zm-8.815-3.8894c0.547 0 1.627 0.0488 2.997 0.4342 1.407 0.3958 3.365 1.2197 5.246 2.9126l-20.07 22.298c4.418 3.9764 9.511 4.3548 11.827 4.3548zm2.968 0h-2.968v30h2.968zm33.956 46.663 20.216-46.704-27.531-11.917-20.216 46.704zm-27.373 9.041h13.608v-30h-13.608zm-5.59-38.14-7.952 16.688 27.083 12.905 7.952-16.688zm-13.356-17.54 13.16 30.016 27.475-12.046-13.16-30.016zm27.57-21.023h-13.832v30h13.832zm20.001 25.803-5.936-16.016-28.13 10.426 5.936 16.016zm-22.696-15.71-5.544 16.016 28.349 9.8133 5.544-16.016zm27.895-10.093h-13.72v30h13.72zm-98.042 124.18c2.549 3.379 5.866 5.8 9.537 7.299l11.341-27.774c0.997 0.407 2.159 1.198 3.073 2.409zm-4.386-10.69c0.519 3.925 2.027 7.562 4.386 10.69l23.951-18.066c0.724 0.96 1.237 2.181 1.404 3.442zm-2.577 0.25c2.244 5.341 6.368 9.461 11.777 11.67l11.341-27.774c0.837 0.341 1.813 0.924 2.721 1.824 0.905 0.899 1.482 1.859 1.819 2.66zm-0.091-16.58c-2.209 5.41-2.153 11.239 0.091 16.58l27.658-11.62c0.337 0.801 0.618 1.885 0.626 3.161 8e-3 1.278-0.26 2.383-0.601 3.22zm4.473-10.955-4.473 10.955 27.774 11.341 4.473-10.955zm-5.053-3.475c0.757 6.347 2.928 12.295 6.552 17.603l24.776-16.916c-0.807-1.181-1.334-2.515-1.54-4.243zm2.647-19.29c-2.513 6.1533-3.439 12.66-2.647 19.29l29.788-3.556c-0.172-1.444-5e-3 -2.832 0.633-4.394zm21.069-21.351c-9.84 4.1341-17.046 11.497-21.069 21.351l27.774 11.34c1.058-2.592 2.514-4.025 4.915-5.034zm29.997-0.1037c-9.855-4.0237-20.157-4.0304-29.997 0.1037l11.62 27.658c2.402-1.009 4.444-1.046 7.036 0.013zm21.351 21.07c-4.134-9.8397-11.497-17.046-21.351-21.07l-11.341 27.774c2.593 1.058 4.025 2.514 5.034 4.916zm0.104 29.997c4.023-9.855 4.03-20.157-0.104-29.997l-27.658 11.621c1.009 2.401 1.046 4.443-0.012 7.035zm-11.721 15.77c5.302-4.201 9.194-9.582 11.721-15.77l-27.774-11.341c-0.708 1.732-1.582 2.807-2.577 3.596zm-16.892 7.846c6.241-1.242 11.921-3.909 16.892-7.846l-18.63-23.515c-1.328 1.052-2.65 1.646-4.117 1.938zm6.487 1.914 4.473-10.955-27.774-11.34-4.473 10.955zm-11.67 11.778c5.341-2.244 9.461-6.368 11.67-11.778l-27.774-11.34c0.341-0.837 0.924-1.814 1.824-2.721 0.899-0.905 1.859-1.483 2.66-1.819zm-16.58 0.091c5.41 2.209 11.239 2.153 16.58-0.091l-11.62-27.658c0.801-0.337 1.885-0.618 3.161-0.626 1.278-9e-3 2.383 0.259 3.22 0.601zm4.3 2.491c3.874-0.582 7.496-2.125 10.615-4.565l-18.488-23.626c1.002-0.784 2.223-1.297 3.412-1.475zm-11.921-1.462c3.672 1.499 7.736 2.092 11.921 1.462l-4.461-29.666c1.5-0.226 2.884 0.023 3.881 0.43zm21.482-34.975-12.344-5.04-11.34 27.774 12.344 5.04zm-18.423 5.439-1.134 2.778 27.774 11.34 1.134-2.777zm-4.127 14.517 12.344 5.041 11.34-27.774-12.344-5.041zm18.423-5.439 1.134-2.777-27.774-11.341-1.134 2.778zm6.521-20.38-12.344-5.041-11.34 27.774 12.344 5.041zm-18.36 5.285-1.197 2.931 27.774 11.341 1.197-2.932zm-4.127 14.517 12.344 5.04 11.34-27.774-12.344-5.04zm18.36-5.285 1.197-2.932-27.774-11.341-1.197 2.932zm-0.642-27.086-4.475-1.827-11.34 27.774 4.474 1.827zm-16.155-0.116-3.403 8.333 27.774 11.34 3.403-8.332zm-3.96 1.919 4.018 9.562 27.658-11.621-4.017-9.561zm12.583-21.556-4.564 1.9173 11.621 27.658 4.563-1.917zm23.108 16.276-3.469-8.2572-27.658 11.62 3.469 8.258zm-11.382-11.488-8.257 3.4693 11.62 27.658 8.258-3.469zm21.557 12.582-1.917-4.563-27.658 11.62 1.917 4.564zm-17.58 23.657 9.561-4.018-11.62-27.658-9.562 4.018zm4.674 0.173 3.403-8.332-27.774-11.341-3.403 8.333zm-3.742-17.73-4.474-1.827-11.341 27.774 4.475 1.827zm-4.824-1.702c-0.633 0.425-1.14 0.579-1.761 0.617l1.831 29.944c6.025-0.369 11.651-2.301 16.636-5.643zm0.665-0.897c-0.237 0.579-0.424 0.736-0.665 0.897l16.706 24.918c5.378-3.606 9.323-8.573 11.733-14.474zm0.045-1.936c0.213 0.507 0.225 0.765 0.225 0.872 0 0.112-0.014 0.437-0.27 1.064l27.774 11.341c3.318-8.127 3.361-16.73-0.071-24.898zm-1.415-1.323c0.628 0.256 0.869 0.473 0.95 0.552 0.075 0.075 0.252 0.264 0.465 0.771l27.658-11.621c-3.432-8.168-9.606-14.159-17.732-17.477zm-1.936-0.046c0.507-0.213 0.765-0.224 0.872-0.224 0.112 0 0.437 0.013 1.064 0.27l11.341-27.774c-8.127-3.318-16.73-3.3612-24.898 0.0705zm-1.323 1.415c0.256-0.627 0.473-0.869 0.552-0.949 0.074-0.076 0.264-0.253 0.771-0.466l-11.621-27.658c-8.168 3.4317-14.158 9.6064-17.476 17.733zm-0.153 1.105c-0.059-0.283-0.084-0.526 0.153-1.105l-27.774-11.34c-2.41 5.9012-3.069 12.21-1.752 18.55zm0.826 1.674c-0.417-0.462-0.671-0.926-0.826-1.674l-29.373 6.105c1.221 5.875 3.887 11.194 7.933 15.674zm-163.37 2.181c0.014-1.666 0.301-2.299 0.319-2.336l-27.137-12.79c-2.262 4.798-3.141 9.905-3.181 14.885zm0.316 2.475c-0.055-0.124-0.329-0.818-0.316-2.475l-29.999-0.241c-0.04 4.987 0.76 10.089 2.905 14.91zm-0.68-0.715c0.249 0.167 0.438 0.351 0.556 0.493 0.11 0.134 0.096 0.155 0.01-0.029l-27.182 12.696c2.135 4.569 5.361 8.701 9.884 11.74zm-1.597-0.592c0.069 1e-3 0.291 0.013 0.606 0.106 0.32 0.094 0.606 0.233 0.825 0.376l-16.401 25.12c4.492 2.932 9.539 4.355 14.729 4.397zm-1.914 0.609c1.138-0.614 1.955-0.609 1.914-0.609l-0.241 29.999c4.065 0.033 8.435-0.755 12.573-2.988zm-2.583 2.539c0.273-0.495 0.637-0.991 1.085-1.439 0.444-0.445 0.886-0.757 1.249-0.962l14.744 26.127c3.827-2.16 7.024-5.288 9.221-9.291zm28.115 11.65 0.034-4.312-29.999-0.241-0.034 4.312zm-2.504-15.02-12.375-0.1-0.241 29.999 12.375 0.1zm-14.866-16.704-0.254 31.583 29.999 0.241 0.254-31.583zm2.504 15.02 12.375 0.1 0.241-29.999-12.375-0.0995zm15.085-10.567 0.035-4.312-29.999-0.2408-0.035 4.3118zm-25.722 9.521c-0.419-0.235-0.911-0.586-1.395-1.078-0.487-0.494-0.869-1.034-1.146-1.558l26.527-14.01c-2.165-4.0991-5.392-7.3224-9.318-9.523zm1.904 0.584c-0.066-1e-3 -0.974-0.036-2.151-0.726l15.162-25.886c-4.15-2.4308-8.598-3.3537-12.77-3.3872zm1.606-0.51c-0.225 0.146-0.532 0.295-0.887 0.396-0.35 0.1-0.61 0.115-0.719 0.114l0.241-29.999c-5.281-0.0425-10.41 1.3674-14.965 4.3229zm0.611-0.535c0.091-0.19 0.097-0.146-0.047 0.022-0.154 0.18-0.4 0.411-0.731 0.62l-15.996-25.38c-4.736 2.9852-8.074 7.1747-10.276 11.766zm21.509 2.42c0.033-4.193-1.031-9.583-5.136-14.118l-22.24 20.134c-2.403-2.654-2.63-5.424-2.623-6.257zm-5.362 14.033c4.177-4.468 5.328-9.84 5.362-14.033l-29.999-0.241c6e-3 -0.833 0.278-3.599 2.723-6.215zm-14.393 6.129c5.257 0.042 10.474-1.938 14.393-6.129l-21.914-20.489c0.938-1.003 2.195-1.936 3.737-2.575 1.522-0.63 2.935-0.815 4.025-0.806zm-14.292-6.36c3.85 4.254 9.035 6.317 14.292 6.36l0.241-29.999c1.09 8e-3 2.5 0.216 4.011 0.871 1.532 0.663 2.774 1.616 3.696 2.635zm-5.136-14.117c-0.034 4.193 1.031 9.583 5.136 14.117l22.24-20.133c2.403 2.654 2.63 5.424 2.623 6.257zm5.362-14.033c-4.177 4.468-5.328 9.84-5.362 14.033l29.999 0.241c-7e-3 0.833-0.278 3.599-2.723 6.214zm14.393-6.129c-5.257-0.0423-10.475 1.9377-14.393 6.129l21.914 20.488c-0.938 1.004-2.196 1.937-3.738 2.576-1.521 0.63-2.934 0.815-4.025 0.806zm14.292 6.359c-3.85-4.2532-9.035-6.3168-14.292-6.359l-0.242 29.999c-1.09-9e-3 -2.5-0.216-4.011-0.871-1.531-0.663-2.774-1.617-3.696-2.635zm50.269 13.465c0.527 4e-3 0.412 0.083-0.078-0.113-0.247-0.098-0.545-0.249-0.859-0.468-0.315-0.219-0.587-0.465-0.808-0.712l22.375-19.984c-5.632-6.306-13.178-8.6646-20.389-8.7226zm1.825-0.523c-0.266 0.157-0.6 0.305-0.974 0.404-0.371 0.098-0.671 0.12-0.851 0.119l0.241-30c-4.801-0.0385-9.487 1.1626-13.723 3.6751zm0.083-0.167c-0.046 0.064-0.111 0.138-0.186 0.206-0.074 0.066-0.117 0.089-0.097 0.077l-14.907-26.034c-3.607 2.0651-6.729 4.835-9.195 8.2757zm-23.725 0.152c-0.296-0.167-0.612-0.399-0.903-0.692-0.289-0.289-0.476-0.559-0.582-0.744l26.034-14.907c-2.325-4.0614-5.631-7.431-9.817-9.7907zm1.21 0.372c0.028 0-0.129 1e-3 -0.418-0.073-0.298-0.077-0.649-0.213-1.002-0.42l15.152-25.892c-4.282-2.5061-8.927-3.5773-13.491-3.614zm1.475-0.469c-0.94 0.483-1.58 0.468-1.475 0.469l0.241-29.999c-4.077-0.0328-8.382 0.7438-12.472 2.8444zm1.895-1.704c-0.266 0.393-0.581 0.747-0.921 1.045-0.335 0.294-0.635 0.482-0.841 0.59l-13.971-26.548c-3.549 1.8676-6.701 4.5439-9.094 8.0721zm-27.379-12.797-0.034 4.256 29.999 0.241 0.034-4.255zm2.447 15.021 12.432 0.1 0.241-30-12.431-0.0999zm14.867 16.704 0.254-31.583-30-0.2415-0.253 31.582zm-2.448-15.021-12.431-0.099-0.241 29.999 12.431 0.1zm-14.985-1.864-0.135 16.743 29.999 0.242 0.135-16.744zm5.943-13.951c-4.478 4.197-5.908 9.559-5.943 13.951l29.999 0.241c-6e-3 0.77-0.128 2.008-0.689 3.47-0.586 1.525-1.543 3.001-2.852 4.228zm13.635-5.2043c-4.325-0.0348-9.612 1.2397-13.898 5.4583l21.041 21.383c-1.233 1.213-2.672 2.071-4.12 2.582-1.391 0.491-2.551 0.581-3.264 0.576zm13.754 5.6803c-4.142-4.2092-9.332-5.6447-13.754-5.6803l-0.241 29.999c-0.777-6e-3 -1.974-0.13-3.374-0.658-1.453-0.549-2.846-1.431-4.014-2.619zm5.515 13.787c0.037-4.604-1.464-10.067-6.028-14.284l-20.358 22.036c-1.304-1.206-2.299-2.694-2.912-4.294-0.59-1.536-0.708-2.854-0.701-3.699zm-0.135 16.744 0.135-16.744-29.999-0.241-0.135 16.744zm-2.503-15.021-12.376-0.099-0.241 29.999 12.375 0.099zm-14.986-1.864-0.134 16.743 29.999 0.241 0.134-16.743zm5.944-13.951c-4.478 4.196-5.909 9.559-5.944 13.951l29.999 0.241c-6e-3 0.77-0.127 2.008-0.689 3.469-0.586 1.525-1.542 3.001-2.852 4.229zm13.635-5.2047c-4.325-0.0347-9.613 1.2397-13.899 5.4577l21.042 21.383c-1.233 1.214-2.673 2.071-4.121 2.583-1.39 0.49-2.551 0.581-3.263 0.575zm13.753 5.6797c-4.142-4.2085-9.332-5.6441-13.753-5.6797l-0.241 29.999c-0.778-6e-3 -1.975-0.129-3.375-0.658-1.452-0.548-2.845-1.431-4.014-2.618zm5.515 13.788c0.037-4.605-1.463-10.067-6.027-14.284l-20.358 22.035c-1.305-1.205-2.299-2.694-2.913-4.294-0.589-1.536-0.708-2.854-0.701-3.698zm-0.135 16.743 0.135-16.743-29.999-0.241-0.135 16.743zm-2.503-15.02-12.376-0.1-0.241 29.999 12.376 0.1zm-14.973-3.433-0.147 18.312 29.999 0.241 0.147-18.312zm0.615 0.323c-0.166-0.183-0.313-0.385-0.432-0.591-0.118-0.204-0.183-0.368-0.215-0.464-0.061-0.185 0.038-3e-3 0.032 0.732l29.999 0.241c0.056-6.913-1.82-14.19-7.177-20.088zm35.327 2.206c-1e-3 0.208-0.016 0.317-0.019 0.343l29.663 4.481c0.233-1.541 0.343-3.073 0.356-4.583zm-0.05-0.949c-0.056-0.098-0.052-0.131-0.029-0.032 0.027 0.112 0.084 0.42 0.079 0.981l30 0.241c0.043-5.414-1.081-10.926-3.958-15.995zm0.402 0.343c6e-3 3e-3 -0.101-0.056-0.245-0.196-0.146-0.142-0.224-0.266-0.243-0.301l26.264-14.497c-2.759-4.9993-6.803-8.9265-11.823-11.564zm-1.472-0.307c0.524 4e-3 0.844 0.061 1.007 0.101 0.154 0.037 0.213 0.07 0.224 0.076l14.435-26.299c-4.877-2.6766-10.153-3.8347-15.425-3.877zm-1.374 0.201c0.042-0.022 0.379-0.209 1.374-0.201l0.241-29.999c-5.277-0.0425-10.55 1.0322-15.457 3.5839zm0.346-0.258c0.026-0.044 0.034-0.052 0.02-0.033-0.015 0.018-0.043 0.053-0.086 0.094-0.043 0.042-0.088 0.079-0.129 0.109-0.02 0.015-0.037 0.026-0.049 0.033-0.012 8e-3 -0.019 0.011-0.018 0.011l-14.01-26.528c-5.022 2.652-9 6.5725-11.777 11.434zm-0.11 1.232c5e-3 -0.622 0.072-0.993 0.115-1.169 0.04-0.166 0.066-0.188 0.034-0.13l-26.126-14.746c-2.826 5.006-3.979 10.446-4.022 15.804zm0.173 1.443s-1e-3 -3e-3 -4e-3 -9e-3 -7e-3 -0.016-0.013-0.033c-0.012-0.031-0.032-0.094-0.055-0.195-0.045-0.2-0.106-0.585-0.101-1.206l-29.999-0.241c-0.043 5.365 1.025 10.799 3.721 15.837zm-0.341-0.427c-0.014-8e-3 0-1e-3 0.032 0.023s0.07 0.056 0.108 0.094c0.039 0.038 0.066 0.071 0.081 0.091s0.01 0.016-0.01-0.02l-26.191 14.631c2.716 4.861 6.627 8.78 11.545 11.48zm1.287 0.177c-0.995-8e-3 -1.329-0.2-1.371-0.223l-14.268 26.39c4.865 2.63 10.121 3.79 15.398 3.832zm0.838-0.104c-2e-3 1e-3 -0.204 0.109-0.838 0.104l-0.241 29.999c4.591 0.037 9.176-0.824 13.521-2.805zm0.098-0.031c0.015-0.017 0.03-0.034 0.046-0.049 0.015-0.015 0.024-0.022 0.022-0.02 0 0-0.074 0.057-0.267 0.147l12.644 27.205c4.083-1.898 7.759-4.617 10.732-8.235zm-0.191 0.439c9e-3 -0.047 0.038-0.148 0.097-0.27 0.027-0.057 0.054-0.104 0.078-0.141 0.012-0.018 0.021-0.032 0.029-0.042 7e-3 -0.01 0.011-0.014 0.01-0.014l23.131 19.104c3.005-3.638 5.055-7.869 6.024-12.517zm1.404 17.954 13.16 0.106 0.241-29.999-13.16-0.106zm-2.927 1.825c3.029 0.024 6.508-0.669 9.796-2.719 3.271-2.039 5.394-4.823 6.696-7.453l-26.889-13.305c0.695-1.403 2.027-3.269 4.322-4.7 2.312-1.442 4.632-1.836 6.316-1.823zm-18.235-18.211c0.177 2.928 0.962 7.567 4.355 11.695 3.898 4.742 9.265 6.478 13.88 6.516l0.241-30c2.525 0.021 6.283 1.063 9.054 4.433 2.265 2.756 2.403 5.346 2.416 5.547zm35.085-15.743-19.992-0.161-0.241 29.999 19.992 0.161zm2.491 9.588c0.036-4.505-1.558-10.192-6.685-14.246l-18.608 23.531c-1.661-1.313-2.968-3.039-3.782-4.982-0.776-1.851-0.933-3.481-0.924-4.544zm-22.512 14.82 7.392 0.059 0.241-29.999-7.392-0.0594zm4.131-33.16c-3.468-0.0279-8.093 0.7937-12.205 4.1356-4.149 3.3715-5.911 7.7905-6.559 11.314l29.507 5.421c-0.257 1.399-1.176 4.228-4.028 6.546-2.816 2.288-5.692 2.592-6.957 2.582zm12.087 4.4139c-3.746-3.1731-8.135-4.3822-12.087-4.4139l-0.242 29.999c-1.936-0.016-4.65-0.651-7.061-2.694zm-145.2-72.079c-9.0986-2.2137-18.229-1.2135-26.555 3.3659l14.458 26.286c1.3775-0.7576 2.7671-1.047 5.0046-0.5026zm24.314 18.834c-5.264-9.6059-13.567-16.22-24.314-18.834l-7.0922 29.15c2.2085 0.5374 3.7093 1.5691 5.0974 4.1021zm3.816 30.518c2.559-10.517 1.417-20.968-3.816-30.518l-26.309 14.417c1.4188 2.589 1.8748 5.3132 0.9753 9.0087zm-7.077 15.238c3.367-4.5917 5.732-9.7104 7.077-15.238l-29.15-7.0921c-0.4234 1.7399-1.1238 3.2309-2.1211 4.591zm-12.594 11.35c4.961-2.904 9.193-6.7123 12.594-11.35l-24.194-17.739c-0.9638 1.3144-2.1137 2.3546-3.5532 3.197zm-25.622-13.719 5.2432 8.5887 25.606-15.632-5.244-8.5887zm5.8451-21.407c-0.263 0.3584-0.5167 0.5806-0.8235 0.7668l15.563 25.648c3.718-2.2559 6.888-5.178 9.447-8.666zm0.49-1.0692c-0.107 0.4397-0.2615 0.7578-0.49 1.0691l24.186 17.749c2.594-3.5351 4.421-7.4821 5.454-11.726zm-0.0038-1.883c0.0979 0.1926 0.3274 0.5531 0.0038 1.883l29.15 7.0921c1.837-7.5528 1.262-15.342-2.41-22.568zm1.29 0.8265c-0.0334-0.0082-0.1635-0.0441-0.3543-0.1371-0.1938-0.0945-0.3961-0.2217-0.5839-0.3747-0.4039-0.3289-0.4726-0.5525-0.3518-0.3147l26.744-13.592c-3.728-7.335-10.01-12.699-18.362-14.731zm1.9873-0.38c-0.3981 0.1975-0.8831 0.3399-1.3689 0.3846-0.4636 0.0427-0.6982-0.0241-0.6184-0.0046l7.0922-29.15c-6.0224-1.4652-12.431-1.0845-18.437 1.8947zm3.2646-4.2858c-0.1995 0.82-0.6393 1.8192-1.4062 2.7449-0.7455 0.8998-1.4912 1.3587-1.8584 1.5409l-13.332-26.875c-6.1041 3.028-10.808 8.3247-12.553 15.497zm-0.5252-4.6299c0.3586 0.782 0.5944 1.6625 0.6671 2.5689 0.0714 0.8897-0.0299 1.6009-0.1419 2.061l-29.15-7.0921c-1.1701 4.809-0.9144 10.019 1.3549 14.967zm-6.5669-5.3485c1.2526 0.3048 2.701 0.9476 4.0363 2.0751 1.3168 1.1119 2.1015 2.3377 2.5306 3.2734l-27.27 12.505c2.5337 5.5252 7.2873 9.7576 13.61 11.296zm-6.2018 0.5682c2.7448-1.114 5.0854-0.8398 6.2018-0.5682l-7.0921 29.15c3.3836 0.8233 7.7143 1.0256 12.172-0.7835zm-7.3251 8.4991c0.3901-1.6037 1.206-3.4554 2.6819-5.1561 1.4717-1.6956 3.1682-2.7444 4.6432-3.343l11.282 27.798c5.267-2.1375 9.1713-6.5704 10.543-12.207zm-0.0194 6.0163c-0.552-2.3998-0.3488-4.503 0.0193-6.0163l29.15 7.0921c0.525-2.1593 0.744-4.8573 0.067-7.8006zm3.1967 6.0728c-1.4281-1.5472-2.6295-3.6069-3.1967-6.073l29.236-6.7245c-0.692-3.0097-2.16-5.5618-3.995-7.5502zm11.844-28.218-8.6028 5.2199 15.562 25.648 8.6032-5.2199zm24.236 15.11c-0.548-3.4591-1.72-6.6957-3.39-9.6559l-26.129 14.74c0.0107 0.019-0.0092-0.0134-0.0377-0.094-0.029-0.0818-0.0563-0.1841-0.0742-0.2968zm-0.42 10.596c0.855-3.5153 0.975-7.0876 0.42-10.596l-29.631 4.6934c-0.0209-0.1321-0.037-0.3176-0.0284-0.5419 0.0086-0.2253 0.0404-0.446 0.0894-0.6475zm-13.441 17.582c6.862-3.7972 11.577-9.923 13.441-17.582l-29.15-7.0921c0.016-0.0656 0.1325-0.4475 0.485-0.9078 0.1616-0.2111 0.3279-0.3788 0.4723-0.5008 0.1417-0.1198 0.2303-0.1688 0.227-0.167zm-21.348 2.7347c7.2067 1.7534 14.61 0.9936 21.348-2.7347l-14.525-26.249c-0.0129 0.0072 0.0267-0.0158 0.1138-0.0443 0.0883-0.029 0.1872-0.0513 0.2832-0.063 0.0947-0.0115 0.1473-8e-3 0.1426-0.0083-0.0072-5e-4 -0.0941-0.0069-0.2711-0.05zm-19.14-14.67c4.1379 7.4214 10.723 12.622 19.14 14.67l7.0921-29.15c-0.0658-0.016-0.1051-0.0288-0.1217-0.0346-0.0163-0.0057-0.0136-0.0057 0.0043 0.0028 0.018 0.0085 0.046 0.0229 0.0805 0.0439 0.0346 0.0212 0.0697 0.0453 0.1033 0.0712 0.0335 0.0259 0.0597 0.0492 0.0781 0.0667 0.0181 0.0175 0.0239 0.025 0.0183 0.0183-0.01-0.0118-0.0811-0.0981-0.1925-0.298zm-3.063-23.618c-1.9562 8.0404-1.0724 16.201 3.063 23.618l26.202-14.61c-0.2234-0.4006-0.3992-0.7512-0.1156-1.9165zm16.51-21.352c-8.3667 4.6018-14.212 11.91-16.51 21.352l29.15 7.0921c0.2176-0.8945 0.481-1.4226 1.8177-2.1578zm24.132 89.048c-1.3198 0.854-2.6852 1.242-4.9558 0.858l-4.9915 29.582c9.2334 1.558 18.269-0.092 26.247-5.254zm1.659-2.283c-0.1532 0.908-0.3782 1.454-1.659 2.283l16.299 25.186c8.016-5.188 13.325-12.896 14.942-22.477zm-0.2523-1.903c0.2515 0.384 0.4518 0.721 0.2523 1.903l29.582 4.992c1.376-8.16-0.088-16.237-4.743-23.339zm-0.0389-0.127c0.0668 0.011 0.1069 0.021 0.1238 0.026 0.0167 4e-3 0.014 4e-3 -0.0044-3e-3 -0.0186-7e-3 -0.0475-0.019-0.0834-0.038-0.0361-0.019-0.0728-0.04-0.1082-0.064-0.0353-0.023-0.0631-0.044-0.0826-0.061-0.0194-0.016-0.0257-0.023-0.0196-0.017 0.0108 0.012 0.0879 0.093 0.2133 0.284l25.092-16.444c-4.658-7.1068-11.597-11.824-20.139-13.265zm0.256-0.185c0.0124-8e-3 -0.0255 0.018-0.1103 0.053-0.086 0.035-0.1831 0.064-0.278 0.083-0.0937 0.018-0.1464 0.018-0.1417 0.018 0.0072 0 0.0944 0 0.274 0.031l4.9915-29.582c-7.3136-1.234-14.644 0.0528-21.099 4.253zm1.0685-1.656c-0.011 0.067-0.1 0.456-0.419 0.94-0.1458 0.222-0.2998 0.402-0.4351 0.534-0.1327 0.129-0.2175 0.184-0.2144 0.182l-16.363-25.144c-6.5734 4.2777-10.839 10.724-12.15 18.497zm-0.024-1.191c0.03 0.131 0.06 0.315 0.067 0.539 8e-3 0.225-8e-3 0.448-0.043 0.652l-29.582-4.991c-0.6019 3.567-0.4668 7.139 0.3382 10.599zm-0.14-0.381c-0.012-0.018 0.011 0.012 0.045 0.091 0.035 0.079 0.069 0.179 0.095 0.29l-29.22 6.799c0.7936 3.411 2.1935 6.555 4.0707 9.389zm-12.974-9.772-8.2079 5.821 17.355 24.471 8.2077-5.822zm-6.1142 15.925c0.9055 2.953 2.5516 5.393 4.5242 7.245l20.535-21.87c1.535 1.441 2.881 3.41 3.622 5.829zm-0.4899-7.786c-0.3698 2.192-0.3956 4.899 0.4898 7.786l28.682-8.796c0.721 2.354 0.669 4.466 0.41 6.002zm9.6438-12.928c-5.1008 2.5082-8.6787 7.2092-9.6438 12.929l29.582 4.991c-0.275 1.627-0.956 3.533-2.307 5.334-1.346 1.797-2.964 2.964-4.392 3.667zm12.085-1.6511c-3.4339-0.5794-7.768-0.4719-12.085 1.6511l13.239 26.921c-2.658 1.307-5.0126 1.201-6.1456 1.01zm14.383 10.294c-2.922-5.33-7.966-9.2116-14.383-10.294l-4.9915 29.582c-1.2712-0.215-2.7618-0.753-4.1742-1.782-1.393-1.015-2.2632-2.181-2.758-3.084zm2.42 14.833c0.824-4.881 0.197-10.059-2.42-14.833l-26.307 14.422c-0.4135-0.755-0.7116-1.616-0.8489-2.515-0.1348-0.882-0.0845-1.599-0.0057-2.066zm-11.414 16.354c5.872-3.456 10.186-9.076 11.414-16.354l-29.581-4.992c0.1404-0.832 0.5077-1.86 1.2065-2.838 0.6793-0.951 1.3903-1.462 1.7435-1.67zm-18.254 3.207c6.1117 1.031 12.477 0.194 18.254-3.207l-15.217-25.854c0.383-0.225 0.8565-0.402 1.3379-0.481 0.4593-0.076 0.6981-0.026 0.6171-0.04zm-19.367-13.381c4.2425 7.05 10.892 11.951 19.367 13.381l4.9915-29.582c0.0339 6e-3 0.1663 0.032 0.3632 0.112 0.2001 0.08 0.4109 0.192 0.6092 0.332 0.4263 0.299 0.5109 0.517 0.3734 0.288zm-4.0155-22.338c-1.2933 7.665-0.1634 15.394 4.0155 22.338l25.705-15.469c-0.1113-0.185-0.366-0.528-0.1383-1.877zm4.6016-12.085c-2.335 3.7114-3.8749 7.7784-4.6016 12.085l29.582 4.992c0.0753-0.447 0.2067-0.775 0.4124-1.102zm8.8043-9.3188c-3.5473 2.5158-6.5005 5.6569-8.8043 9.3188l25.393 15.975c0.2368-0.376 0.4739-0.616 0.7666-0.824zm-9.3777 12.754 5.8435 8.1924 24.423-17.422-5.8431-8.1921zm17.378 7.1034c0.8674-1.38 1.9401-2.499 3.3158-3.4425l-16.964-24.743c-4.7406 3.2504-8.6899 7.3516-11.75 12.22zm-1.7876 4.731c0.2979-1.766 0.8901-3.303 1.7876-4.731l-25.399-15.965c-3.0302 4.8205-5.0241 10.095-5.9707 15.705zm1.6163 8.916c-1.6001-2.481-2.2491-5.166-1.6163-8.916l-29.582-4.991c-1.8008 10.672 0.0846 21.015 5.9869 30.167zm5.3776 3.727c-2.2413-0.378-3.812-1.3-5.3776-3.727l-25.211 16.26c5.937 9.205 14.691 15.209 25.597 17.049z" fill="#1c1b1f" mask="url(#path-4-outside-1_313_742)"/>
  <g mask="url(#mask0_313_742)">
   <path d="m282.55 151.01c-1.337-0.546-2.415-1.361-3.232-2.445-0.818-1.084-1.315-2.292-1.491-3.624-1.697-0.693-2.903-1.891-3.619-3.593-0.715-1.702-0.726-3.402-0.033-5.1l4.473-10.955c-2.215-3.245-3.564-6.886-4.046-10.923s0.065-7.985 1.64-11.842c2.541-6.2237 6.872-10.621 12.993-13.193 6.12-2.5715 12.292-2.5868 18.516-0.0457 6.223 2.5411 10.621 6.872 13.192 12.992 2.572 6.121 2.587 12.293 0.046 18.516-1.617 3.961-4 7.188-7.149 9.683s-6.65 4.126-10.504 4.893l-4.473 10.955c-0.693 1.697-1.89 2.903-3.593 3.619-1.702 0.715-3.402 0.726-5.099 0.033-1.058 0.828-2.259 1.343-3.601 1.545-1.343 0.202-2.683 0.03-4.02-0.516zm-2.203-12.241 12.344 5.04 1.134-2.778-12.344-5.04zm2.394-5.864 12.344 5.04 1.197-2.931-12.344-5.041zm3.1-9.356 4.475 1.828 3.402-8.333-4.017-9.561 4.563-1.917 3.47 8.257 8.257-3.469 1.917 4.563-9.561 4.017-3.402 8.333 4.475 1.827c3.323-0.204 6.389-1.247 9.199-3.13 2.809-1.884 4.875-4.445 6.198-7.686 1.848-4.526 1.844-8.998-0.012-13.417-1.857-4.418-5.048-7.5514-9.574-9.3995-4.526-1.848-8.999-1.8439-13.417 0.0125-4.419 1.8564-7.552 5.048-9.4 9.574-1.323 3.24-1.64 6.516-0.952 9.827 0.688 3.312 2.148 6.203 4.379 8.674z" fill="#e9dcad"/>
  </g>
  <path d="m27.868 60.12c0-3.92 0.784-7.4107 2.352-10.472 1.6053-3.0613 3.8827-5.432 6.832-7.112 2.9493-1.7173 6.4213-2.576 10.416-2.576 3.4347 0 6.496 0.6533 9.184 1.96 2.7253 1.2693 4.928 3.08 6.608 5.432 1.7173 2.352 2.856 5.096 3.416 8.232h-13.104c-0.5973-1.3067-1.456-2.3147-2.576-3.024-1.0827-0.7467-2.3333-1.12-3.752-1.12-2.0907 0-3.752 0.784-4.984 2.352-1.1947 1.568-1.792 3.6773-1.792 6.328s0.5973 4.76 1.792 6.328c1.232 1.568 2.8933 2.352 4.984 2.352 1.4187 0 2.6693-0.3547 3.752-1.064 1.12-0.7467 1.9787-1.7733 2.576-3.08h13.104c-0.56 3.136-1.6987 5.88-3.416 8.232-1.68 2.352-3.8827 4.1813-6.608 5.488-2.688 1.2693-5.7493 1.904-9.184 1.904-3.9947 0-7.4667-0.84-10.416-2.52-2.9493-1.7173-5.2267-4.1067-6.832-7.168-1.568-3.0613-2.352-6.552-2.352-10.472zm133.03-11.928c4.032 0 7.149 1.2133 9.352 3.64 2.24 2.4267 3.36 5.712 3.36 9.856v18.312h-12.376v-16.744c0-1.344-0.411-2.3893-1.232-3.136-0.784-0.784-1.848-1.176-3.192-1.176-1.382 0-2.464 0.392-3.248 1.176-0.784 0.7467-1.176 1.792-1.176 3.136v16.744h-12.376v-16.744c0-1.344-0.411-2.3893-1.232-3.136-0.784-0.784-1.848-1.176-3.192-1.176-1.382 0-2.464 0.392-3.248 1.176-0.784 0.7467-1.176 1.792-1.176 3.136v16.744h-12.432v-31.584h12.432v4.256c0.896-1.344 2.109-2.4267 3.64-3.248 1.568-0.8213 3.397-1.232 5.488-1.232 2.277 0 4.293 0.504 6.048 1.512 1.754 0.9707 3.154 2.352 4.2 4.144 1.157-1.6427 2.632-2.9867 4.424-4.032 1.792-1.0827 3.77-1.624 5.936-1.624zm30.529 4.536c0.784-1.456 1.904-2.5947 3.36-3.416 1.494-0.8587 3.267-1.288 5.32-1.288 2.464 0 4.686 0.6533 6.664 1.96 1.979 1.2693 3.528 3.136 4.648 5.6 1.158 2.4267 1.736 5.3013 1.736 8.624s-0.578 6.216-1.736 8.68c-1.12 2.4267-2.669 4.2933-4.648 5.6-1.978 1.2693-4.2 1.904-6.664 1.904-2.053 0-3.826-0.4107-5.32-1.232-1.456-0.8587-2.576-2.016-3.36-3.472v19.432h-12.432v-46.704h12.432zm9.128 11.48c0-1.68-0.429-2.9867-1.288-3.92-0.858-0.9333-1.96-1.4-3.304-1.4s-2.445 0.4667-3.304 1.4c-0.858 0.9333-1.288 2.24-1.288 3.92s0.43 2.9867 1.288 3.92c0.859 0.9333 1.96 1.4 3.304 1.4s2.446-0.4667 3.304-1.4c0.859-0.9333 1.288-2.24 1.288-3.92zm28.935-25.648v41.44h-12.432v-41.44zm11.887 7.336c-2.166 0-3.902-0.5787-5.208-1.736-1.307-1.1573-1.96-2.6133-1.96-4.368 0-1.792 0.653-3.2667 1.96-4.424 1.306-1.1947 3.042-1.792 5.208-1.792 2.128 0 3.845 0.5973 5.152 1.792 1.306 1.1573 1.96 2.632 1.96 4.424 0 1.7547-0.654 3.2107-1.96 4.368-1.307 1.1573-3.024 1.736-5.152 1.736zm6.16 2.52v31.584h-12.432v-31.584zm3.935 15.792c0-3.2853 0.672-6.1413 2.016-8.568 1.381-2.464 3.285-4.3493 5.712-5.656 2.464-1.3067 5.264-1.96 8.4-1.96 4.106 0 7.56 1.1573 10.36 3.472 2.837 2.3147 4.629 5.5253 5.376 9.632h-13.16c-0.486-1.6427-1.438-2.464-2.856-2.464-1.008 0-1.811 0.4667-2.408 1.4-0.56 0.9333-0.84 2.3147-0.84 4.144s0.28 3.2107 0.84 4.144c0.597 0.9333 1.4 1.4 2.408 1.4 1.418 0 2.37-0.8213 2.856-2.464h13.16c-0.747 4.1067-2.539 7.3173-5.376 9.632-2.8 2.3147-6.254 3.472-10.36 3.472-3.136 0-5.936-0.6533-8.4-1.96-2.427-1.3067-4.331-3.1733-5.712-5.6-1.344-2.464-2.016-5.3387-2.016-8.624zm42.077-18.312c-2.166 0-3.902-0.5787-5.208-1.736-1.307-1.1573-1.96-2.6133-1.96-4.368 0-1.792 0.653-3.2667 1.96-4.424 1.306-1.1947 3.042-1.792 5.208-1.792 2.128 0 3.845 0.5973 5.152 1.792 1.306 1.1573 1.96 2.632 1.96 4.424 0 1.7547-0.654 3.2107-1.96 4.368-1.307 1.1573-3.024 1.736-5.152 1.736zm6.16 2.52v31.584h-12.432v-31.584zm25.27 21v10.584h-4.704c-8.661 0-12.992-4.312-12.992-12.936v-8.288h-3.92v-10.36h3.92v-7.616h12.432v7.616h5.152v10.36h-5.152v8.512c0 0.7467 0.168 1.288 0.504 1.624 0.374 0.336 0.971 0.504 1.792 0.504zm40.407-21-20.216 46.704h-13.608l7.952-16.688-13.16-30.016h13.832l5.936 16.016 5.544-16.016z" fill="#fff"/>
  <path d="m118.61 115.56c0.027-3.323 0.61-6.193 1.75-8.61 1.177-2.455 2.76-4.309 4.748-5.562 1.99-1.291 4.216-1.9265 6.68-1.9067 2.053 0.0165 3.823 0.4601 5.309 1.3307 1.487 0.833 2.617 1.981 3.389 3.443l0.035-4.3114 12.375 0.0994-0.254 31.583-12.375-0.099 0.034-4.312c-0.795 1.449-1.943 2.597-3.443 3.444-1.5 0.809-3.277 1.206-5.33 1.189-2.464-0.02-4.68-0.672-6.649-1.957-1.968-1.323-3.521-3.202-4.659-5.638-1.1-2.473-1.636-5.371-1.61-8.693zm21.784 0.175c0.013-1.68-0.406-2.99-1.257-3.93s-1.949-1.416-3.293-1.427c-1.343-0.011-2.449 0.447-3.315 1.374-0.866 0.926-1.306 2.229-1.319 3.909-0.014 1.68 0.405 2.99 1.256 3.93 0.851 0.941 1.949 1.416 3.293 1.427s2.449-0.447 3.315-1.373c0.866-0.927 1.306-2.23 1.32-3.91zm60.253-15.532c4.032 0.032 7.139 1.271 9.322 3.715 2.221 2.445 3.314 5.739 3.281 9.883l-0.147 18.311-12.376-0.099 0.135-16.744c0.011-1.344-0.392-2.392-1.207-3.146-0.778-0.79-1.838-1.191-3.182-1.201-1.382-0.011-2.467 0.372-3.258 1.15-0.79 0.74-1.19 1.782-1.201 3.126l-0.135 16.743-12.375-0.099 0.134-16.744c0.011-1.343-0.391-2.392-1.206-3.145-0.778-0.791-1.839-1.191-3.183-1.202-1.381-0.011-2.467 0.372-3.257 1.15-0.79 0.74-1.19 1.782-1.201 3.126l-0.135 16.744-12.431-0.1 0.253-31.583 12.432 0.1-0.034 4.256c0.907-1.337 2.129-2.41 3.666-3.219 1.574-0.809 3.407-1.205 5.498-1.188 2.277 0.019 4.289 0.539 6.035 1.561 1.747 0.985 3.136 2.377 4.167 4.177 1.17-1.633 2.656-2.965 4.456-3.996 1.801-1.068 3.784-1.594 5.949-1.576zm48.545 16.127c-6e-3 0.858-0.069 1.679-0.187 2.462l-19.992-0.16c0.165 2.726 1.293 4.098 3.383 4.115 1.344 0.011 2.32-0.598 2.927-1.825l13.16 0.106c-0.466 2.236-1.435 4.245-2.905 6.025-1.433 1.743-3.254 3.129-5.465 4.156-2.174 0.991-4.567 1.475-7.18 1.454-3.136-0.025-5.931-0.701-8.384-2.027-2.416-1.326-4.305-3.208-5.667-5.646-1.324-2.474-1.973-5.354-1.947-8.64 0.027-3.285 0.722-6.135 2.085-8.551 1.401-2.453 3.32-4.323 5.757-5.61 2.475-1.287 5.28-1.918 8.416-1.892 3.136 0.025 5.912 0.7 8.328 2.027 2.453 1.289 4.343 3.133 5.667 5.533 1.363 2.401 2.031 5.225 2.004 8.473zm-12.575-3.07c8e-3 -1.045-0.322-1.832-0.989-2.36-0.668-0.565-1.506-0.852-2.514-0.86-2.202-0.018-3.499 1.036-3.889 3.161z" fill="#fff"/>
  <path d="m80.8 43.885c4.8517-2.6685 10.112-3.3132 15.78-1.9342 6.4778 1.576 11.38 5.3988 14.706 11.468 3.326 6.0695 4.125 12.657 2.396 19.763-0.884 3.6339-2.418 6.9387-4.6 9.9147-2.182 2.9759-4.873 5.4003-8.073 7.2732l-5.2431-8.5887c2.0124-1.221 3.7242-2.7931 5.1351-4.7164 1.412-1.9232 2.402-4.0557 2.972-6.3975 1.081-4.4413 0.678-8.5164-1.207-12.225-1.884-3.7089-4.7298-6.0262-8.5355-6.9522-2.9959-0.7289-5.7374-0.4764-8.2246 0.7574s-4.0353 3.1023-4.6444 5.6056c-0.4518 1.8573-0.3136 3.5802 0.4149 5.1687 0.7284 1.5885 1.9024 2.5798 3.5218 2.9738 1.1336 0.2758 2.1286 0.2399 2.9851-0.1077 0.8564-0.3475 1.3927-0.9655 1.6088-1.8537 0.0786-0.323 0.0866-0.6204 0.0241-0.8923-0.0625-0.2718-0.1956-0.518-0.3992-0.7386l8.6029-5.2199c0.8389 1.4871 1.3851 3.0313 1.6388 4.6326 0.2536 1.6013 0.1938 3.169-0.1795 4.7033-0.8645 3.5531-2.9072 6.2208-6.1282 8.0031-3.2209 1.7823-6.7343 2.2105-10.54 1.2846-4.2105-1.0245-7.4055-3.4911-9.5849-7.3998-2.1793-3.9088-2.7091-8.1646-1.5892-12.767 1.2574-5.1681 4.3119-9.0865 9.1636-11.755z" clip-rule="evenodd" fill="#606586" fill-rule="evenodd"/>
  <path d="m105.85 132.38c-4.649 3.009-9.8494 4.027-15.601 3.057-6.5738-1.109-11.736-4.572-15.488-10.388-3.7512-5.817-5.0184-12.331-3.8016-19.542 0.6222-3.688 1.9153-7.0938 3.8791-10.218 1.9639-3.1242 4.4749-5.7347 7.533-7.8314l5.8435 8.1921c-1.92 1.3617-3.5152 3.0521-4.7855 5.0713-1.2703 2.019-2.106 4.217-2.507 6.593-0.7605 4.508-0.0682 8.544 2.077 12.108 2.1451 3.565 5.1487 5.673 9.0108 6.325 3.0404 0.513 5.7569 0.065 8.1496-1.343 2.393-1.409 3.803-3.383 4.232-5.923 0.318-1.885 0.057-3.594-0.783-5.126-0.84-1.533-2.082-2.438-3.7254-2.715-1.1504-0.194-2.1403-0.087-2.9698 0.321-0.8294 0.408-1.3202 1.062-1.4723 1.964-0.0553 0.328-0.042 0.625 0.0397 0.891 0.0818 0.267 0.2321 0.503 0.451 0.709l-8.2079 5.821c-0.943-1.423-1.5982-2.925-1.9656-4.504s-0.4197-3.147-0.157-4.704c0.6084-3.606 2.4553-6.412 5.5407-8.42s6.5592-2.686 10.422-2.035c4.273 0.721 7.636 2.953 10.089 6.696s3.285 7.951 2.497 12.622c-0.885 5.244-3.652 9.371-8.3 12.379z" clip-rule="evenodd" fill="#acc8a4" fill-rule="evenodd"/>
 </g>
</svg>
