<?xml version="1.0" encoding="UTF-8"?>
<!-- Created with Inkscape (http://www.inkscape.org/) -->
<svg width="129.65mm" height="52.224mm" version="1.1" viewBox="0 0 129.65 52.224" xmlns="http://www.w3.org/2000/svg">
 <g transform="translate(-45.922 -129.94)">
  <g>
   <path d="m126.53 129.94c-1.6694 0-3.5265 0.45663-5.1077 1.7586h-3.4717v5.2917-5.2917c-2.2546 0-4.1749 1.4125-4.9372 3.3988-0.3435-0.036-0.6891-0.0605-1.0376-0.0605-0.6862 0-1.3941 0.0722-2.1033 0.23048-0.3113-0.0574-0.6307-0.0917-0.9586-0.092h-4.3863v2.1342-4e-3 -2.1306c-0.9059 0-1.7583 0.22824-2.5037 0.62942-1.255-0.49701-2.5814-0.70848-3.8758-0.70848-1.234 0-2.4439 0.23511-3.5853 0.70848-1.2004-0.49195-2.4518-0.70848-3.685-0.70848-0.6757 0-1.3686 0.0663-2.0624 0.21135-0.373-0.0837-0.7595-0.1319-1.1576-0.13229h-4.3858v1.695c0-2e-3 0-4e-3 -0.01-6e-3v-1.6888c-0.55 0-1.0801 0.0841-1.5787 0.23978-1.4306-1.1081-3.0983-1.9134-4.9785-2.3709-3.2098-0.78093-6.4308-0.428-9.3679 1.1875l1.6634 3.0246c-3e-4 1.9e-4 -7e-4 3.3e-4 0 5.2e-4l-1.664-3.0251c-0.4216 0.23187-0.8229 0.48527-1.2072 0.75551-0.7421-0.62462-1.5623-1.1488-2.4484-1.5694v-2e-3c-0.013-6e-3 -0.025-0.011-0.038-0.0171-0.014-7e-3 -0.027-0.0141-0.041-0.0207v2e-3c-1.7465-0.83274-3.6077-1.1886-5.473-1.1886-2.1675 0-4.3269 0.47104-6.2926 1.604v-2e-3c-0.01 5e-3 -0.017 0.011-0.026 0.016-0.01 3e-3 -0.012 6e-3 -0.018 9e-3l5e-4 1e-3c-1.916 1.1023-3.4153 2.6793-4.4348 4.6235l3.9026 2.0464c-4e-4 6.9e-4 -7e-4 1e-3 0 2e-3l-3.9062-2.0485c-0.01 0.015-0.016 0.0299-0.023 0.045v2e-3c-0.9852 1.9244-1.4103 4.0015-1.4103 6.1045 0 2.103 0.4251 4.1801 1.4103 6.1045v2e-3c0.01 0.0151 0.016 0.03 0.023 0.045l3.9067-2.0485c4e-4 6.9e-4 7e-4 1e-3 0 2e-3l-3.9026 2.0464c1.0216 1.9481 2.5203 3.5283 4.4307 4.6416v3e-3c0.015 8e-3 0.029 0.017 0.044 0.0253l2.0918-3.6737v3e-3l-2.0914 3.6711c1.9694 1.1218 4.1295 1.5828 6.2937 1.5828 1.3596 0 2.7177-0.18712 4.0328-0.60565-0.4456 1.0659-0.7705 2.1784-0.9653 3.3331-0.6353 3.7651 0.03 7.4143 2.112 10.643 2.0944 3.2474 5.183 5.3654 9.0305 6.0146l0.5782-3.4272c7e-4 1.2e-4 0-1.1e-4 0 0l-0.5783 3.4267c3.2573 0.54961 6.4446-0.0324 9.2589-1.8536 0.385-0.24914 0.7505-0.51584 1.0992-0.79736 1.5458 0.96862 3.2696 1.444 5.042 1.4583 0.6908 6e-3 1.4066-0.0585 2.126-0.21187 0.3102 0.0593 0.6285 0.0961 0.9555 0.0987v-0.36277 0.36226l4.3651 0.0351c0.3369 3e-3 0.6655-0.0292 0.9854-0.0868 0.3186 0.0626 0.6464 0.10013 0.9829 0.10284v-0.38241c5e-4 -2e-4 0-3.2e-4 0-5.2e-4v0.38293l4.3837 0.0351c0.533 4e-3 1.0581-0.0726 1.5596-0.22273 0.4929 0.15657 1.0169 0.24367 1.5611 0.24805l0.01-1.0258c9e-4 -6.4e-4 0-1e-3 0-2e-3l-0.01 1.0278 4.363 0.0351h6e-4c0.5326 4e-3 1.0569-0.0728 1.558-0.22273 0.4933 0.15686 1.0179 0.24315 1.5627 0.24753l0.01-1.0263v-3e-3l-0.01 1.0289 4.3631 0.0351h5e-4c0.9209 7e-3 1.8167-0.22942 2.6081-0.66869 1.414 0.58132 2.8983 0.85153 4.3889 0.86351l0.028-3.5031-0.028 3.5031c1.6199 0.013 3.2369-0.29102 4.7697-0.9896l-5e-4 -1e-3c0.011-5e-3 0.022-0.0103 0.034-0.0155l-1.448-3.1161 0.01 5.2e-4 1.448 3.1156c1.4403-0.6694 2.7375-1.6287 3.7863-2.9047v-4e-3c0.2748-0.3338 0.5254-0.68241 0.7539-1.0433-0.3961 1.5923-0.2646 3.2438 0.3809 4.7806 0.4112 0.97876 1.0047 1.838 1.7446 2.5502 0.2054 0.39426 0.4408 0.77385 0.7116 1.1328 0.8991 1.192 2.0694 2.0462 3.3646 2.575l1.4004-3.4298h6e-4l-1.4 3.4292c1.2953 0.52886 2.7285 0.7383 4.2049 0.51625 0.4442-0.0668 0.8778-0.17351 1.3002-0.31109 1.0273 9e-3 2.0532-0.18857 3.0324-0.59997 1.8841-0.79158 3.3373-2.2464 4.1165-4.1548l0.6605-1.6175c1.0685-0.47742 2.0758-1.0861 3.0101-1.8262 1.8705-1.482 3.2438-3.3797 4.1352-5.563l-2.1777-0.88883v-5.2e-4l2.1777 0.88935c0.773-1.8933 1.1221-3.8335 1.0475-5.7686h2.5776c2.1099 0 4.0179-1.2532 4.856-3.1895l-3.9724-1.7198v-2e-3l3.9765 1.7213 7.1318-16.476v-2e-3c0.7069-1.6351 0.5439-3.5164-0.4341-5.0054-0.9784-1.4896-2.6408-2.3864-4.423-2.3864h-4.8348v1.897c0-2e-3 0-4e-3 -0.01-6e-3v-1.8908c-0.7111 0-1.397 0.14221-2.0267 0.4036-0.6292-0.2606-1.3138-0.4036-2.0232-0.4036h-2.6184c-0.9093-1.603-2.6282-2.6867-4.6028-2.6867h-3.3084c-0.1659-0.18329-0.3434-0.35959-0.5307-0.52916v-1e-3c-0.01-9e-3 -0.021-0.018-0.032-0.0274-0.01-9e-3 -0.02-0.0192-0.03-0.0284v1e-3c-1.6138-1.4436-3.5575-1.9637-5.3253-1.9637-1.7535 0-3.7137 0.50538-5.3443 1.9637v-1e-3c-0.01 7e-3 -0.016 0.0152-0.025 0.0227-0.012 0.0113-0.025 0.0217-0.038 0.0331v2e-3c-0.9898 0.89622-1.6839 1.9921-2.0655 3.1936-0.5554-0.0771-1.1169-0.11679-1.6815-0.11679-0.5999 0-1.199 0.0462-1.7937 0.13229-0.3806-1.2077-1.0759-2.3095-2.0702-3.2096v-1e-3c-0.01-9e-3 -0.021-0.018-0.032-0.0274-0.011-9e-3 -0.02-0.0192-0.03-0.0284v1e-3c-1.6137-1.4436-3.5575-1.9637-5.3252-1.9637zm-16.398 12.707 1.4485 0.77979v4e-3l-1.4542-0.7829v-5.1e-4zm1.0552 0.045c0 3.6e-4 0 1e-3 0.01 2e-3l0.4367 0.75964 0.7968 0.42943v2e-3l-0.7937-0.42736 0.4656 0.80977 0.1932-0.17777-5e-4 1e-3 -0.1927 0.17674 0.035 0.0615v4e-3l-0.5049-0.8785-0.035-0.0186v-4e-3l0.035 0.0186zm0.4357 0.75757v4e-3l0.01 4e-3v-4e-3zm-52.84-0.60565v2e-3l-0.6082 0.96014v-3e-3zm15.374 0.47491h5e-4l-0.1323 0.54364zm-13.885 0.0408c0 2e-3 0 4e-3 0.01 6e-3v0.32711l-0.01 4e-3zm52.388 0.24443v7e-3l-0.1891 0.29456 0.1891 0.1018v3e-3l-0.1788-0.0961-0.037 0.0341-0.2791 0.43512 0.153 0.26613v2e-3l-0.1519-0.26459-0.019 0.0289v-4e-3l0.019-0.0284-0.027-0.0476v-4e-3l0.027 0.0475 0.2692-0.42065 0.012-0.0109-0.011 0.01 0.034-0.0522-0.036-0.0196v-2e-3l0.036 0.0196zm-0.1928 0.30024v4e-3 -2e-3zm0 4e-3 -0.026 0.0398 0.037-0.0336zm-0.3069 0.47181v8e-3 -4e-3zm-51.886-0.59221v0.0336l-0.01 1e-3v-0.0305zm-2.1203 0.0455v3e-3l-0.1116 0.1757-0.01 3e-3zm-0.1101 0.18242-0.4026 0.6351v-4e-3l0.3979-0.62839zm55.165 0.28939v3e-3 -2e-3zm-40.266 0.0527 0.081 0.1633 5e-4 1e-3h-5e-4v-1e-3zm39.194 0.0589v4e-3l-0.2806 0.4377-0.01 3e-3zm0.5209 0.15141v3e-3l-0.3044 0.14522 0.3044 0.52916v8e-3l-0.308-0.53536-0.03 0.0145v-2e-3l0.03-0.0145-0.036-0.0615v-2e-3l0.036 0.062zm-0.3054 0.14573v4e-3 -2e-3zm-14.104-0.10335v6e-3 -3e-3zm-40.624 0.0599v4e-3l-0.153 0.24133v-2e-3zm40.116 8e-3v5e-3 -3e-3zm14.574 0.0532v2e-3l-0.5442 0.25993-0.3012 0.46974v-2e-3l0.2981-0.46457-0.1023 0.0486v-4e-3l0.1023-0.0486 0.082-0.12816 0.01-3e-3 -0.082 0.12816zm-0.5411 0.25787-0.01 3e-3v4e-3l0.01-3e-3zm-13.787-0.13746v4e-3 -2e-3zm38.701 0.0605v7e-3l-0.01 7e-3v-7e-3zm-79.219 3e-3v2e-3l-0.6672 1.0532c-8e-4 -1e-3 0-3e-3 0-4e-3zm79.219 0.0362v0.73794l-0.01-3e-3v-0.73329zm-25.031 0.093v4e-3l-0.4429 0.21136c-5e-4 -5.1e-4 0-1e-3 0-2e-3zm-12.97 0.30076 0.01 6e-3v6e-3l-0.01-6e-3zm-38.417 0.0238 0.01 1e-3v0.0336l-0.01-4e-3zm0 0.12609 0.01 4e-3v0.32711c0 2e-3 0 4e-3 -0.01 6e-3zm11.41 0.14625h5e-4v5.1e-4zm65.003 0.11937 0.01 4e-3v0.0305l-0.01 1e-3zm-47.434 0.0217v6e-3 -3e-3zm7.4874 0v6e-3 -3e-3zm-24.343 0.0326-5e-4 5.2e-4zm-0.7395 0.17002v1e-3l-0.059 0.0134v-0.00152h6e-4zm-0.061 0.014h5e-4v5.1e-4l-0.2764 0.0636v-5.2e-4zm65.09 0.2806 0.01 5.2e-4v0.031l-0.01 4e-3zm0.01 0.10542v0.73897l-0.01-2e-3v-0.73432zm-25.506 0.47026 0.5096 0.23977v3e-3l-0.5136-0.24082c6e-4 -7.9e-4 3e-4 -7.4e-4 0-2e-3zm0.6176 0.29042 0.465 0.21807v2e-3l-0.462-0.21704zm24.883 3e-3 0.01 6e-3v8e-3l-0.01-6e-3zm-24.295 0.27337 0.2703 0.12712v2e-3l-0.2718-0.12712zm0.7829 0.36794v2e-3 -1e-3zm-0.5126 0.27595v3e-3l-0.1984 0.10646v-2e-3zm-0.2398 0.12919v2e-3l-0.7163 0.38602v-4e-3zm-0.8676 0.46715v3e-3l-1.4175 0.76327v-5.2e-4zm-49.736 3.3182 1.2469 2.6004v5e-3l-1.2479-2.6029v-3e-3zm26.866 8.862c4e-4 -6e-5 7e-4 6e-5 0 0l-0.4093 0.7307v5.2e-4zm-1.6159 0.70487h5e-4l0.3204 0.49402 0.2868 0.44184-0.2868-0.44184zm1.2077 0.0263-0.5519 0.98392 0.1142 0.1757-0.1142-0.1757-0.03 0.0532v5.1e-4l-0.1426 0.25425-5e-4 -5.2e-4 0.1426-0.25424v-5.2e-4l0.03-0.0532v-5.1e-4l-0.048-0.0729 0.048 0.0729 0.1178-0.20981 0.433-0.77256zm-0.4377 1.1601 0.2501 0.38447zm24.294 0.0413 5e-4 5.1e-4 -5e-4 1e-3zm-24.594 0.1142h6e-4l-0.3768 0.67231-5e-4 -5.1e-4zm24.706 0.0729v5.1e-4l-5e-4 5.2e-4 -5e-4 -5.2e-4zm-35.747 0.15968v5.1e-4zm11.624 0.047v5.2e-4l0.2718 0.41961zm-12.451 0.14573v1e-3 -5.1e-4zm0.3277 0.0956 0.011 0.0176v3e-3l0.3457 0.53072-0.3457-0.53072-0.014-0.0202zm0.4495 6e-3v5.1e-4zm47.969 0.38395-5e-4 2e-3v2e-3 -2e-3zm-0.1411 0.0796v5e-3 -3e-3zm-48.986 5.2e-4 0.6542 0.92242 0.2625 0.0444-0.2625-0.0439 0.3312 0.46664c-4e-4 6.4e-4 0 1e-3 0 2e-3l-0.3328-0.46923v5.2e-4 -0.00103l-0.6527-0.92036zm1.0676 0.0822v2e-3 -1e-3zm0 3e-3 0.062 0.094v5.2e-4h-6e-4zm26.878 0.0971v0.00152-5.2e-4zm20.022 0.0269-0.023 0.0295c3e-4 -1e-3 3e-4 -3e-3 6e-4 -5e-3l0.02-0.0243c9e-4 -1.8e-4 0-3.4e-4 0-5.2e-4zm-12.535 0.0326v4e-3 -2e-3zm13.685 0.44545v0.53588zm-27.209 5.2705v5.2e-4zm-6.3495 1.7462v5e-3 -2e-3z" fill="#303b3b"/>
   <g fill-rule="evenodd">
    <path d="m51.205 144.6c0-1.3829 0.2766-2.6143 0.8297-3.6943 0.5664-1.08 1.3698-1.9163 2.4102-2.509 1.0405-0.60583 2.2653-0.90875 3.6745-0.90875 1.2117 0 2.2917 0.23048 3.24 0.69144 0.9614 0.4478 1.7384 1.0866 2.3311 1.9163 0.6058 0.82973 1.0075 1.7978 1.2051 2.9041h-4.6228c-0.2107-0.46097-0.5136-0.81657-0.9088-1.0668-0.3819-0.26341-0.8231-0.39512-1.3236-0.39512-0.7375 0-1.3236 0.27658-1.7582 0.82974-0.4215 0.55315-0.6322 1.2973-0.6322 2.2324 0 0.93509 0.2107 1.6792 0.6322 2.2324 0.4346 0.55316 1.0207 0.82973 1.7582 0.82973 0.5005 0 0.9417-0.12511 1.3236-0.37535 0.3952-0.26341 0.6981-0.62559 0.9088-1.0866h4.6228c-0.1976 1.1063-0.5993 2.0743-1.2051 2.9041-0.5927 0.82973-1.3697 1.4751-2.3311 1.936-0.9483 0.44779-2.0283 0.67168-3.24 0.67168-1.4092 0-2.634-0.29633-3.6745-0.88899-1.0404-0.60584-1.8438-1.4488-2.4102-2.5287-0.5531-1.08-0.8297-2.3114-0.8297-3.6943zm46.93-4.2079c1.4224 0 2.5221 0.42803 3.2992 1.2841 0.7902 0.85608 1.1853 2.0151 1.1853 3.477v6.4601h-4.366v-5.9069c0-0.47413-0.1448-0.8429-0.4346-1.1063-0.2766-0.27658-0.6519-0.41487-1.1261-0.41487-0.4873 0-0.8692 0.13829-1.1458 0.41487-0.2766 0.2634-0.4149 0.63217-0.4149 1.1063v5.9069h-4.3659v-5.9069c0-0.47413-0.1449-0.8429-0.4347-1.1063-0.2765-0.27658-0.6519-0.41487-1.126-0.41487-0.4873 0-0.8693 0.13829-1.1458 0.41487-0.2766 0.2634-0.4149 0.63217-0.4149 1.1063v5.9069h-4.3857v-11.142h4.3857v1.5014c0.3161-0.47414 0.7441-0.85607 1.2841-1.1458 0.5532-0.28974 1.1985-0.43462 1.936-0.43462 0.8034 0 1.5146 0.1778 2.1336 0.5334 0.6191 0.34243 1.1129 0.82973 1.4817 1.4619 0.4083-0.57949 0.9285-1.0536 1.5607-1.4224 0.6322-0.38194 1.3302-0.57291 2.0941-0.57291zm10.77 1.6002c0.2765-0.51365 0.6717-0.91534 1.1853-1.2051 0.5268-0.30292 1.1524-0.45438 1.8768-0.45438 0.8692 0 1.6529 0.23049 2.3509 0.69145 0.698 0.44779 1.2446 1.1063 1.6397 1.9756 0.4083 0.85607 0.6124 1.8702 0.6124 3.0424s-0.2041 2.1929-0.6124 3.0621c-0.3951 0.85607-0.9417 1.5146-1.6397 1.9756-0.698 0.4478-1.4817 0.67169-2.3509 0.67169-0.7244 0-1.35-0.14487-1.8768-0.43462-0.5136-0.30292-0.9088-0.7112-1.1853-1.2248v6.8552h-4.3858v-16.476h4.3858zm3.2201 4.0499c0-0.59267-0.1514-1.0536-0.4544-1.3829-0.3029-0.32926-0.6914-0.49389-1.1655-0.49389-0.4742 0-0.8627 0.16463-1.1656 0.49389s-0.4544 0.79022-0.4544 1.3829 0.1515 1.0536 0.4544 1.3829 0.6914 0.49389 1.1656 0.49389c0.4741 0 0.8626-0.16463 1.1655-0.49389 0.303-0.32926 0.4544-0.79022 0.4544-1.3829zm10.208-9.048v14.619h-4.3858v-14.619zm4.1934 2.588c-0.7639 0-1.3763-0.20414-1.8373-0.61242-0.4609-0.40828-0.6914-0.92192-0.6914-1.5409 0-0.63218 0.2305-1.1524 0.6914-1.5607 0.461-0.42145 1.0734-0.63218 1.8373-0.63218 0.7507 0 1.3565 0.21073 1.8175 0.63218 0.461 0.40828 0.6915 0.92851 0.6915 1.5607 0 0.61901-0.2305 1.1326-0.6915 1.5409s-1.0668 0.61242-1.8175 0.61242zm2.1731 12.031h-4.3857v-11.142h4.3857zm1.3881-5.5711c0-1.159 0.2371-2.1665 0.7112-3.0226 0.4873-0.86924 1.159-1.5344 2.0151-1.9953 0.8693-0.46096 1.857-0.69145 2.9633-0.69145 1.4488 0 2.667 0.40828 3.6548 1.2248 1.001 0.81656 1.6331 1.9492 1.8966 3.398h-4.6426c-0.1712-0.5795-0.5071-0.86924-1.0075-0.86924-0.3556 0-0.6388 0.16463-0.8495 0.49389-0.1976 0.32926-0.2964 0.81656-0.2964 1.4619s0.099 1.1326 0.2964 1.4619c0.2107 0.32926 0.4939 0.49389 0.8495 0.49389 0.5004 0 0.8363-0.28975 1.0075-0.86924h4.6426c-0.2635 1.4487-0.8956 2.5814-1.8966 3.398-0.9878 0.81656-2.206 1.2248-3.6548 1.2248-1.1063 0-2.094-0.23047-2.9633-0.69144-0.8561-0.46097-1.5278-1.1195-2.0151-1.9756-0.4741-0.86925-0.7112-1.8834-0.7112-3.0424zm14.844-6.4601c-0.7639 0-1.3763-0.20414-1.8373-0.61242s-0.6914-0.92192-0.6914-1.5409c0-0.63218 0.2304-1.1524 0.6914-1.5607 0.461-0.42145 1.0734-0.63218 1.8373-0.63218 0.7507 0 1.3565 0.21073 1.8175 0.63218 0.4609 0.40828 0.6914 0.92851 0.6914 1.5607 0 0.61901-0.2305 1.1326-0.6914 1.5409-0.461 0.40828-1.0668 0.61242-1.8175 0.61242zm2.1731 12.031h-4.3858v-11.142h4.3858zm8.915-3.7338v3.7338h-1.6595c-3.0555 0-4.5833-1.5212-4.5833-4.5635v-2.9238h-1.3829v-3.6548h1.3829v-2.6868h4.3858v2.6868h1.8175v3.6548h-1.8175v3.0028c0 0.2634 0.059 0.45437 0.1778 0.5729 0.1317 0.11854 0.3424 0.17781 0.6321 0.17781zm14.254-7.4083-7.1317 16.476h-4.8006l2.8053-5.8872-4.6426-10.589h4.8796l2.0941 5.6501 1.9558-5.6501zm-86.44 20.649c-0.402 0.85287-0.6077 1.8654-0.6171 3.0375-0.01 1.1721 0.1799 2.1944 0.568 3.0668 0.4014 0.85933 0.9492 1.5223 1.6435 1.9888 0.6945 0.45339 1.4763 0.68358 2.3455 0.69056 0.7243 6e-3 1.3511-0.13402 1.8802-0.41952 0.5292-0.29867 0.9342-0.70371 1.2149-1.2151l-0.012 1.5211 4.3659 0.0351 0.09-11.142-4.3659-0.0351-0.012 1.5211c-0.2725-0.51585-0.6709-0.92077-1.1954-1.2147-0.5244-0.30714-1.1487-0.46363-1.8731-0.46945-0.8692-7e-3 -1.6546 0.21719-2.3563 0.67253-0.7017 0.44216-1.2601 1.0962-1.6753 1.9622zm6.6243 1.7128c0.3003 0.33168 0.448 0.79385 0.4432 1.3865 0 0.59265-0.1599 1.0524-0.4654 1.3792-0.3056 0.32681-0.6954 0.48831-1.1695 0.4845-0.4742-4e-3 -0.8614-0.17156-1.1616-0.50324-0.3003-0.33169-0.448-0.79385-0.4433-1.3865 0-0.59265 0.16-1.0524 0.4655-1.3792 0.3056-0.32681 0.6954-0.48831 1.1695-0.4845 0.4741 4e-3 0.8613 0.17155 1.1616 0.50324zm24.988-2.7823c-0.7701-0.8623-1.8664-1.2992-3.2887-1.3106-0.7639-6e-3 -1.4634 0.17922-2.0987 0.55606-0.6351 0.36368-1.1591 0.83362-1.572 1.4098-0.3637-0.63512-0.8537-1.1264-1.4699-1.4738-0.6161-0.36057-1.3259-0.54408-2.1292-0.55054-0.7376-6e-3 -1.384 0.13376-1.9395 0.41905-0.5423 0.2854-0.9734 0.66388-1.2933 1.1355l0.012-1.5014-4.3856-0.0353-0.09 11.142 4.3856 0.0353 0.047-5.9067c0-0.47411 0.145-0.84176 0.4237-1.1029 0.2788-0.27434 0.6619-0.40956 1.1492-0.40564 0.4741 4e-3 0.8483 0.14511 1.1227 0.42391 0.2876 0.26572 0.4295 0.63565 0.4257 1.1098l-0.048 5.9067 4.3658 0.0351 0.047-5.9067c0-0.47412 0.1451-0.84176 0.4237-1.1029 0.2788-0.27435 0.6619-0.40956 1.1492-0.40564 0.4741 4e-3 0.8483 0.14511 1.1227 0.4239 0.2876 0.26573 0.4295 0.63565 0.4257 1.1098l-0.047 5.9067 4.3658 0.0351 0.052-6.4599c0.012-1.4619-0.3741-2.624-1.1574-3.4864zm13.771 5.2473c0.042-0.27625 0.064-0.56583 0.066-0.86874 0.01-1.1458-0.2265-2.1421-0.707-2.9889-0.4673-0.84669-1.1338-1.4974-1.9994-1.9522-0.8524-0.46783-1.8317-0.70619-2.9379-0.71509-1.1063-9e-3 -2.0959 0.21364-2.9688 0.6676-0.8598 0.45407-1.5368 1.1138-2.0311 1.979-0.481 0.85224-0.7261 1.8578-0.7355 3.0168-0.01 1.159 0.2196 2.1749 0.6868 3.048 0.4804 0.85997 1.1467 1.5239 1.9991 1.9917 0.8655 0.46794 1.8514 0.70635 2.9577 0.71525 0.9219 7e-3 1.7662-0.16361 2.5329-0.51306 0.78-0.36251 1.4227-0.85125 1.9281-1.4662 0.5187-0.62803 0.8603-1.3365 1.0247-2.1254l-4.6424-0.0373c-0.2142 0.43292-0.5584 0.64747-1.0325 0.64366-0.7376-6e-3 -1.1354-0.48986-1.1935-1.4518zm-4.7191-2.784c0.2356 0.18628 0.3519 0.46381 0.3489 0.83257l-2.6076-0.021c0.1377-0.74963 0.5951-1.1213 1.3721-1.1151 0.3556 3e-3 0.6511 0.10401 0.8866 0.30347z" fill="#fff"/>
    <path d="m73.212 171.17c2.0292 0.34239 3.8638-0.017 5.5037-1.0783 1.6399-1.0613 2.616-2.517 2.9282-4.3672 0.2781-1.6479-0.016-3.132-0.881-4.4525-0.8654-1.3205-2.0518-2.1079-3.5592-2.3622-1.3624-0.22989-2.5879 9e-3 -3.6764 0.71766-1.0884 0.70832-1.74 1.6985-1.9546 2.9705-0.093 0.54928-0.074 1.1024 0.055 1.6595 0.1296 0.55706 0.3607 1.0866 0.6934 1.5888l2.8956-2.0536c-0.077-0.0725-0.1303-0.15578-0.1591-0.24985-0.029-0.0941-0.033-0.19892-0.014-0.31455 0.054-0.31801 0.2268-0.54896 0.5194-0.69285 0.2926-0.1439 0.6418-0.1816 1.0476-0.11312 0.5798 0.0978 1.0179 0.41703 1.3142 0.95763 0.2964 0.5406 0.3885 1.1434 0.2763 1.8083-0.1512 0.8962-0.6489 1.5927-1.493 2.0896-0.8441 0.49683-1.8024 0.65475-2.875 0.47378-1.3624-0.2299-2.422-0.97361-3.1788-2.2312-0.7567-1.2575-1.001-2.6813-0.7327-4.2714 0.1415-0.83838 0.4363-1.6137 0.8844-2.326 0.4482-0.71231 1.0109-1.3086 1.6882-1.789l-2.0614-2.89c-1.0788 0.73969-1.9647 1.6606-2.6575 2.7628-0.6928 1.1021-1.1489 2.3037-1.3684 3.6046-0.4293 2.5441 0.018 4.842 1.3411 6.8939 1.3233 2.0519 3.1445 3.2734 5.4636 3.6648z" fill="#b2c9ab"/>
    <path d="m69.878 138.87c1.7116-0.94139 3.5671-1.1688 5.5667-0.68235 2.2852 0.55599 4.0145 1.9046 5.1878 4.0457 1.1734 2.1412 1.4551 4.4652 0.8452 6.9721-0.3119 1.2819-0.8527 2.4478-1.6225 3.4977s-1.7191 1.9051-2.8481 2.5658l-1.8497-3.0299c0.7099-0.43075 1.3139-0.98536 1.8117-1.6638 0.4979-0.67847 0.8474-1.4308 1.0484-2.2569 0.3812-1.5668 0.2393-3.0044-0.4257-4.3128-0.665-1.3084-1.6687-2.1259-3.0113-2.4526-1.0569-0.25715-2.024-0.16809-2.9015 0.26717-0.8774 0.43525-1.4235 1.0944-1.6384 1.9776-0.1594 0.65521-0.1106 1.263 0.1464 1.8234 0.2569 0.56039 0.6711 0.91009 1.2424 1.0491 0.3999 0.0973 0.7509 0.0846 1.053-0.038 0.3022-0.12262 0.4914-0.34061 0.5676-0.65397 0.028-0.11395 0.031-0.21886 0.01-0.31475-0.022-0.0959-0.069-0.18275-0.1408-0.26058l3.0349-1.8415c0.2959 0.52461 0.4886 1.0694 0.5781 1.6343 0.09 0.56489 0.068 1.118-0.063 1.6592-0.305 1.2534-1.0256 2.1946-2.1619 2.8233-1.1363 0.62876-2.3757 0.77981-3.7182 0.45317-1.4854-0.3614-2.6125-1.2316-3.3814-2.6105-0.7688-1.3789-0.9557-2.8803-0.5606-4.504 0.4436-1.8232 1.5211-3.2055 3.2327-4.1469z" fill="#666a86"/>
    <path d="m141.05 176.66c-0.4718-0.19262-0.8519-0.48013-1.1403-0.86252-0.2885-0.38238-0.4637-0.80854-0.5259-1.2785-0.5988-0.24449-1.0243-0.66698-1.2766-1.2675-0.2523-0.60049-0.2562-1.2001-0.012-1.7989l1.578-3.8648c-0.7816-1.1447-1.2574-2.4292-1.4273-3.8535-0.17-1.4242 0.023-2.8168 0.5784-4.1776 0.8965-2.1955 2.4243-3.7468 4.5836-4.654 2.1592-0.90719 4.3366-0.91256 6.5321-0.0161 2.1954 0.89643 3.7468 2.4243 4.654 4.5835s0.9125 4.3366 0.016 6.5321c-0.5705 1.3971-1.4111 2.5358-2.522 3.4158s-2.346 1.4554-3.7055 1.726l-1.578 3.8648c-0.2445 0.59877-0.667 1.0243-1.2675 1.2766-0.6005 0.25229-1.2001 0.2562-1.7989 0.0117-0.3733 0.29214-0.7968 0.47382-1.2704 0.54504-0.4737 0.0712-0.9464 0.0105-1.4181-0.18209zm-0.7772-4.3184 4.3547 1.7781 0.4001-0.9798-4.3547-1.7781zm0.8446-2.0685 4.3547 1.7781 0.4223-1.0342-4.3547-1.778zm1.0936-3.3005 1.5786 0.64454 1.2002-2.9394-1.4172-3.373 1.6099-0.67636 1.2239 2.913 2.913-1.2239 0.6764 1.6098-3.373 1.4172-1.2002 2.9394 1.5786 0.64455c1.1724-0.0717 2.2541-0.43974 3.2452-1.1042 0.991-0.66441 1.7199-1.5682 2.1866-2.7113 0.652-1.5967 0.6505-3.1744 0-4.7332-0.6549-1.5587-1.7807-2.6641-3.3774-3.316-1.5967-0.65195-3.1744-0.65048-4.7332 4e-3 -1.5587 0.6549-2.6641 1.7807-3.316 3.3774-0.4668 1.1431-0.5787 2.2988-0.336 3.467 0.2428 1.1682 0.7578 2.1882 1.545 3.06z" fill="#e8ddb5"/>
   </g>
  </g>
 </g>
</svg>
